{"glyphs":{"0":{"ha":694,"x_min":86,"x_max":608,"o":"m 86 792 l 192 897 l 503 897 l 608 792 l 608 133 l 503 28 l 192 28 l 86 133 l 86 792 m 533 714 l 474 810 l 231 810 l 174 753 l 174 354 l 533 714 m 482 115 l 525 236 l 499 554 l 165 211 l 221 115 l 482 115 z "},"1":{"ha":694,"x_min":174,"x_max":521,"o":"m 174 736 l 317 897 l 390 897 l 390 115 l 521 115 l 521 28 l 174 28 l 174 115 l 304 115 l 304 718 l 174 671 l 174 736 z "},"2":{"ha":694,"x_min":86,"x_max":608,"o":"m 86 792 l 192 897 l 503 897 l 608 792 l 608 532 l 200 115 l 608 115 l 608 28 l 86 28 l 86 142 l 525 571 l 499 788 l 196 788 l 169 593 l 86 593 l 86 792 z "},"3":{"ha":694,"x_min":69,"x_max":603,"o":"m 86 792 l 192 897 l 513 897 l 599 788 l 603 119 l 482 24 l 161 50 l 69 197 l 131 263 l 243 107 l 499 138 l 499 397 l 217 424 l 217 501 l 499 528 l 499 788 l 217 814 l 165 679 l 86 679 l 86 792 z "},"4":{"ha":694,"x_min":86,"x_max":608,"o":"m 86 436 l 539 897 l 608 897 l 608 28 l 521 28 l 521 246 l 86 246 l 86 436 m 521 722 l 494 722 l 174 393 l 174 332 l 521 332 l 521 722 z "},"5":{"ha":694,"x_min":74,"x_max":608,"o":"m 86 467 l 86 897 l 608 897 l 608 810 l 174 810 l 174 550 l 503 550 l 608 444 l 608 133 l 503 28 l 182 28 l 74 158 l 131 219 l 235 115 l 525 115 l 499 440 l 86 467 z "},"6":{"ha":694,"x_min":86,"x_max":608,"o":"m 86 792 l 192 897 l 564 897 l 564 814 l 196 788 l 169 550 l 503 550 l 608 444 l 608 133 l 503 28 l 192 28 l 86 133 l 86 792 m 499 138 l 499 440 l 169 467 l 196 138 l 499 138 z "},"7":{"ha":694,"x_min":86,"x_max":608,"o":"m 86 636 l 86 897 l 608 897 l 608 718 l 390 293 l 390 28 l 304 28 l 304 293 l 521 718 l 521 810 l 174 810 l 174 636 l 86 636 z "},"8":{"ha":694,"x_min":96,"x_max":599,"o":"m 96 788 l 182 897 l 513 897 l 599 788 l 599 138 l 513 28 l 182 28 l 96 138 l 96 788 m 499 528 l 499 788 l 217 814 l 165 683 l 196 528 l 499 528 m 499 138 l 499 397 l 217 424 l 165 293 l 196 138 l 499 138 z "},"9":{"ha":694,"x_min":86,"x_max":608,"o":"m 86 792 l 192 897 l 503 897 l 608 792 l 608 133 l 503 28 l 131 28 l 131 111 l 499 138 l 525 375 l 192 375 l 86 481 l 86 792 m 525 458 l 499 788 l 217 814 l 165 683 l 196 485 l 525 458 z "},"\u0000":{"ha":694,"x_min":86,"x_max":608,"o":"m 521 115 l 521 246 l 608 246 l 608 28 l 433 28 l 433 115 l 521 115 m 86 28 l 86 246 l 174 246 l 174 115 l 261 115 l 261 28 l 86 28 m 521 375 l 521 550 l 608 550 l 608 375 l 521 375 m 86 375 l 86 550 l 174 550 l 174 375 l 86 375 m 433 810 l 433 897 l 608 897 l 608 679 l 521 679 l 521 810 l 433 810 m 86 679 l 86 897 l 261 897 l 261 810 l 174 810 l 174 679 l 86 679 z "}," ":{"ha":694,"x_min":0,"x_max":0,"o":""},"!":{"ha":694,"x_min":304,"x_max":390,"o":"m 304 28 l 304 203 l 390 203 l 390 28 l 304 28 m 304 332 l 304 897 l 390 897 l 390 332 l 304 332 z "},"\"":{"ha":694,"x_min":174,"x_max":521,"o":"m 433 722 l 433 983 l 521 983 l 521 722 l 433 722 m 174 722 l 174 983 l 261 983 l 261 722 l 174 722 z "},"#":{"ha":694,"x_min":65,"x_max":629,"o":"m 174 689 l 174 897 l 261 897 l 261 679 l 433 679 l 433 897 l 521 897 l 521 689 l 629 636 l 521 583 l 521 342 l 629 289 l 521 236 l 521 28 l 433 28 l 433 246 l 261 246 l 261 28 l 174 28 l 174 236 l 65 289 l 174 342 l 174 583 l 65 636 l 174 689 m 433 332 l 433 593 l 261 593 l 261 332 l 433 332 z "},"$":{"ha":694,"x_min":74,"x_max":621,"o":"m 304 875 l 304 983 l 390 983 l 390 853 l 513 853 l 621 722 l 564 663 l 460 767 l 390 767 l 390 528 l 586 440 l 586 138 l 390 50 l 390 -58 l 304 -58 l 304 72 l 182 72 l 74 203 l 131 263 l 235 158 l 304 158 l 304 397 l 108 485 l 108 788 l 304 875 m 304 506 l 304 767 l 213 767 l 165 636 l 213 506 l 304 506 m 499 189 l 499 389 l 390 428 l 390 150 l 499 189 z "},"%":{"ha":694,"x_min":78,"x_max":564,"o":"m 294 158 l 347 293 l 543 267 l 543 50 l 347 24 l 294 158 m 478 115 l 478 203 l 390 203 l 390 115 l 478 115 m 82 64 l 499 897 l 564 897 l 564 853 l 165 50 l 131 15 l 82 64 m 78 767 l 131 901 l 325 875 l 325 658 l 131 632 l 78 767 m 261 722 l 261 810 l 174 810 l 174 722 l 261 722 z "},"&":{"ha":694,"x_min":43,"x_max":613,"o":"m 86 792 l 192 897 l 374 897 l 478 792 l 478 601 l 347 493 l 447 375 l 564 475 l 613 428 l 499 246 l 613 64 l 564 15 l 443 119 l 386 28 l 147 28 l 43 133 l 43 346 l 192 506 l 86 610 l 86 792 m 400 679 l 351 810 l 213 810 l 161 671 l 290 544 l 400 679 m 447 246 l 290 419 l 225 419 l 122 293 l 151 138 l 335 111 l 447 246 z "},"'":{"ha":694,"x_min":304,"x_max":390,"o":"m 304 722 l 304 983 l 390 983 l 390 722 l 304 722 z "},"(":{"ha":694,"x_min":217,"x_max":486,"o":"m 217 667 l 394 897 l 478 897 l 478 844 l 304 624 l 304 301 l 486 68 l 425 7 l 217 250 l 217 667 z "},")":{"ha":694,"x_min":208,"x_max":478,"o":"m 217 844 l 217 897 l 300 897 l 478 667 l 478 250 l 269 7 l 208 68 l 390 301 l 390 624 l 217 844 z "},"*":{"ha":694,"x_min":43,"x_max":608,"o":"m 274 506 l 74 722 l 186 722 l 335 589 l 443 722 l 578 722 l 378 506 l 608 506 l 608 419 l 378 419 l 578 203 l 443 203 l 335 336 l 186 203 l 74 203 l 274 419 l 43 419 l 43 506 l 274 506 z "},"+":{"ha":694,"x_min":86,"x_max":608,"o":"m 304 506 l 304 722 l 390 722 l 390 506 l 608 506 l 608 419 l 390 419 l 390 203 l 304 203 l 304 419 l 86 419 l 86 506 l 304 506 z "},",":{"ha":694,"x_min":225,"x_max":390,"o":"m 225 -58 l 321 203 l 390 203 l 390 46 l 286 -58 l 225 -58 z "},"-":{"ha":694,"x_min":86,"x_max":608,"o":"m 86 419 l 86 506 l 608 506 l 608 419 l 86 419 z "},".":{"ha":694,"x_min":304,"x_max":390,"o":"m 304 28 l 304 203 l 390 203 l 390 28 l 304 28 z "},"/":{"ha":694,"x_min":82,"x_max":564,"o":"m 82 64 l 499 897 l 564 897 l 564 853 l 165 50 l 131 15 l 82 64 z "},":":{"ha":694,"x_min":304,"x_max":390,"o":"m 304 28 l 304 203 l 390 203 l 390 28 l 304 28 m 304 463 l 304 636 l 390 636 l 390 463 l 304 463 z "},";":{"ha":694,"x_min":225,"x_max":390,"o":"m 225 -58 l 321 203 l 390 203 l 390 46 l 286 -58 l 225 -58 m 304 463 l 304 636 l 390 636 l 390 463 l 304 463 z "},"<":{"ha":694,"x_min":69,"x_max":625,"o":"m 69 463 l 494 897 l 625 897 l 200 463 l 625 28 l 494 28 l 69 463 z "},"=":{"ha":694,"x_min":86,"x_max":608,"o":"m 86 289 l 86 375 l 608 375 l 608 289 l 86 289 m 86 550 l 86 636 l 608 636 l 608 550 l 86 550 z "},">":{"ha":694,"x_min":69,"x_max":625,"o":"m 494 463 l 69 897 l 200 897 l 625 463 l 200 28 l 69 28 l 494 463 z "},"?":{"ha":694,"x_min":86,"x_max":608,"o":"m 304 28 l 304 203 l 390 203 l 390 28 l 304 28 m 86 792 l 192 897 l 503 897 l 608 792 l 603 571 l 347 289 l 304 289 l 304 406 l 525 610 l 499 788 l 196 788 l 169 593 l 86 593 l 86 792 z "},"@":{"ha":694,"x_min":43,"x_max":608,"o":"m 43 792 l 147 897 l 503 897 l 608 792 l 608 215 l 331 207 l 217 297 l 217 619 l 321 722 l 539 722 l 447 814 l 151 788 l 151 138 l 608 111 l 608 28 l 147 28 l 43 133 l 43 792 m 499 311 l 525 636 l 343 636 l 294 510 l 325 311 l 499 311 z "},"A":{"ha":694,"x_min":86,"x_max":608,"o":"m 86 792 l 192 897 l 503 897 l 608 792 l 608 28 l 521 28 l 521 375 l 174 375 l 174 28 l 86 28 l 86 792 m 525 463 l 499 788 l 235 814 l 174 753 l 174 463 l 525 463 z "},"B":{"ha":694,"x_min":86,"x_max":608,"o":"m 86 28 l 86 897 l 503 897 l 608 792 l 608 610 l 503 506 l 608 401 l 608 133 l 503 28 l 86 28 m 499 571 l 499 788 l 174 814 l 174 544 l 499 571 m 529 336 l 425 463 l 174 463 l 174 111 l 499 138 l 529 336 z "},"C":{"ha":694,"x_min":86,"x_max":625,"o":"m 86 792 l 196 901 l 533 875 l 625 728 l 564 663 l 451 818 l 196 788 l 196 138 l 451 107 l 564 263 l 625 197 l 533 50 l 213 24 l 86 124 l 86 792 z "},"D":{"ha":694,"x_min":86,"x_max":608,"o":"m 86 28 l 86 897 l 433 897 l 608 722 l 608 203 l 433 28 l 86 28 m 521 706 l 417 810 l 174 810 l 174 115 l 417 115 l 521 219 l 521 706 z "},"E":{"ha":694,"x_min":86,"x_max":608,"o":"m 86 28 l 86 897 l 608 897 l 608 810 l 174 810 l 174 506 l 478 506 l 478 419 l 174 419 l 174 115 l 608 115 l 608 28 l 86 28 z "},"F":{"ha":694,"x_min":86,"x_max":608,"o":"m 86 28 l 86 897 l 608 897 l 608 810 l 174 810 l 174 506 l 478 506 l 478 419 l 174 419 l 174 28 l 86 28 z "},"G":{"ha":694,"x_min":86,"x_max":625,"o":"m 86 792 l 196 901 l 533 875 l 625 728 l 564 663 l 451 818 l 196 788 l 196 138 l 499 138 l 525 419 l 347 419 l 347 506 l 608 506 l 608 133 l 503 28 l 192 28 l 86 133 l 86 792 z "},"H":{"ha":694,"x_min":86,"x_max":608,"o":"m 86 28 l 86 897 l 174 897 l 174 506 l 521 506 l 521 897 l 608 897 l 608 28 l 521 28 l 521 419 l 174 419 l 174 28 l 86 28 z "},"I":{"ha":694,"x_min":217,"x_max":478,"o":"m 217 810 l 217 897 l 478 897 l 478 810 l 390 810 l 390 115 l 478 115 l 478 28 l 217 28 l 217 115 l 304 115 l 304 810 l 217 810 z "},"J":{"ha":694,"x_min":86,"x_max":651,"o":"m 390 810 l 390 897 l 651 897 l 651 810 l 564 810 l 564 133 l 460 28 l 192 28 l 86 133 l 86 289 l 165 289 l 213 111 l 456 138 l 482 810 l 390 810 z "},"K":{"ha":694,"x_min":86,"x_max":625,"o":"m 86 28 l 86 897 l 174 897 l 174 532 l 564 914 l 625 853 l 243 463 l 625 72 l 564 11 l 174 393 l 174 28 l 86 28 z "},"L":{"ha":694,"x_min":86,"x_max":608,"o":"m 86 28 l 86 897 l 174 897 l 174 115 l 608 115 l 608 28 l 86 28 z "},"M":{"ha":694,"x_min":43,"x_max":608,"o":"m 43 28 l 43 897 l 108 897 l 282 636 l 369 636 l 543 897 l 608 897 l 608 28 l 521 28 l 521 744 l 360 497 l 290 497 l 131 744 l 131 28 l 43 28 z "},"N":{"ha":694,"x_min":86,"x_max":608,"o":"m 86 28 l 86 897 l 174 897 l 174 697 l 521 358 l 521 897 l 608 897 l 608 28 l 521 28 l 521 228 l 174 567 l 174 28 l 86 28 z "},"O":{"ha":694,"x_min":86,"x_max":608,"o":"m 86 792 l 192 897 l 503 897 l 608 792 l 608 133 l 503 28 l 192 28 l 86 133 l 86 792 m 499 138 l 499 788 l 217 814 l 169 693 l 196 138 l 499 138 z "},"P":{"ha":694,"x_min":86,"x_max":608,"o":"m 86 28 l 86 897 l 503 897 l 608 792 l 608 481 l 503 375 l 174 375 l 174 28 l 86 28 m 499 485 l 499 788 l 174 814 l 174 458 l 499 485 z "},"Q":{"ha":694,"x_min":86,"x_max":656,"o":"m 86 792 l 192 897 l 513 897 l 617 771 l 590 50 l 656 -58 l 525 -58 l 474 28 l 192 28 l 86 133 l 86 792 m 525 154 l 499 788 l 217 814 l 169 693 l 196 138 l 356 107 l 290 215 l 525 154 z "},"R":{"ha":694,"x_min":86,"x_max":625,"o":"m 86 28 l 86 897 l 503 897 l 608 792 l 608 481 l 503 375 l 331 375 l 625 72 l 564 11 l 174 393 l 174 28 l 86 28 m 499 485 l 499 788 l 174 814 l 174 458 l 499 485 z "},"S":{"ha":694,"x_min":69,"x_max":625,"o":"m 86 792 l 196 901 l 533 875 l 625 728 l 564 663 l 451 818 l 196 788 l 196 528 l 499 497 l 608 411 l 608 124 l 482 24 l 161 50 l 69 197 l 131 263 l 243 107 l 499 138 l 499 397 l 196 428 l 86 514 l 86 792 z "},"T":{"ha":694,"x_min":86,"x_max":608,"o":"m 86 810 l 86 897 l 608 897 l 608 810 l 390 810 l 390 28 l 304 28 l 304 810 l 86 810 z "},"U":{"ha":694,"x_min":86,"x_max":608,"o":"m 86 133 l 86 897 l 169 897 l 196 138 l 499 138 l 525 897 l 608 897 l 608 133 l 503 28 l 192 28 l 86 133 z "},"V":{"ha":694,"x_min":74,"x_max":621,"o":"m 135 528 l 74 897 l 151 897 l 300 193 l 347 146 l 394 193 l 543 897 l 621 897 l 560 528 l 421 28 l 274 28 l 135 528 z "},"W":{"ha":694,"x_min":43,"x_max":608,"o":"m 43 28 l 43 897 l 131 897 l 131 181 l 290 428 l 360 428 l 521 181 l 521 897 l 608 897 l 608 28 l 543 28 l 369 289 l 282 289 l 108 28 l 43 28 z "},"X":{"ha":694,"x_min":86,"x_max":608,"o":"m 86 857 l 86 897 l 161 897 l 317 550 l 378 550 l 533 897 l 608 897 l 608 857 l 417 463 l 608 68 l 608 28 l 533 28 l 378 375 l 317 375 l 161 28 l 86 28 l 86 68 l 278 463 l 86 857 z "},"Y":{"ha":694,"x_min":86,"x_max":608,"o":"m 86 806 l 86 897 l 151 897 l 313 506 l 382 506 l 543 897 l 608 897 l 608 806 l 390 381 l 390 28 l 304 28 l 304 381 l 86 806 z "},"Z":{"ha":694,"x_min":86,"x_max":608,"o":"m 86 810 l 86 897 l 608 897 l 608 653 l 174 228 l 174 115 l 608 115 l 608 28 l 86 28 l 86 272 l 521 697 l 521 810 l 86 810 z "},"[":{"ha":694,"x_min":174,"x_max":478,"o":"m 174 28 l 174 897 l 478 897 l 478 810 l 261 810 l 261 115 l 478 115 l 478 28 l 174 28 z "},"\\":{"ha":694,"x_min":86,"x_max":568,"o":"m 86 853 l 86 897 l 151 897 l 568 64 l 521 15 l 486 50 l 86 853 z "},"]":{"ha":694,"x_min":174,"x_max":478,"o":"m 174 810 l 174 897 l 478 897 l 478 28 l 174 28 l 174 115 l 390 115 l 390 810 l 174 810 z "},"^":{"ha":694,"x_min":69,"x_max":625,"o":"m 69 722 l 321 983 l 374 983 l 625 722 l 508 722 l 347 867 l 186 722 l 69 722 z "},"_":{"ha":694,"x_min":86,"x_max":608,"o":"m 86 -101 l 86 -15 l 608 -15 l 608 -101 l 86 -101 z "},"`":{"ha":694,"x_min":161,"x_max":447,"o":"m 317 940 l 161 1114 l 290 1114 l 447 940 l 317 940 z "},"a":{"ha":694,"x_min":86,"x_max":608,"o":"m 131 554 l 131 636 l 503 636 l 608 532 l 608 28 l 192 28 l 86 133 l 86 315 l 192 419 l 529 419 l 490 528 l 131 554 m 521 115 l 521 332 l 213 332 l 165 207 l 221 115 l 521 115 z "},"b":{"ha":694,"x_min":86,"x_max":608,"o":"m 86 28 l 86 897 l 174 897 l 174 636 l 503 636 l 608 532 l 608 133 l 503 28 l 86 28 m 499 138 l 499 528 l 174 554 l 174 111 l 499 138 z "},"c":{"ha":694,"x_min":86,"x_max":621,"o":"m 86 532 l 192 636 l 513 636 l 621 506 l 564 450 l 439 554 l 196 528 l 196 138 l 439 111 l 564 215 l 621 158 l 513 28 l 192 28 l 86 133 l 86 532 z "},"d":{"ha":694,"x_min":86,"x_max":608,"o":"m 521 636 l 521 897 l 608 897 l 608 28 l 192 28 l 86 133 l 86 532 l 192 636 l 521 636 m 521 111 l 521 550 l 213 550 l 169 428 l 196 138 l 521 111 z "},"e":{"ha":694,"x_min":86,"x_max":608,"o":"m 86 532 l 192 636 l 503 636 l 608 532 l 608 289 l 169 289 l 200 138 l 608 142 l 578 50 l 213 24 l 86 124 l 86 532 m 525 375 l 499 528 l 235 554 l 174 493 l 174 375 l 525 375 z "},"f":{"ha":694,"x_min":131,"x_max":651,"o":"m 304 792 l 408 897 l 651 897 l 651 814 l 413 788 l 386 636 l 564 636 l 564 550 l 390 550 l 390 28 l 304 28 l 304 550 l 131 550 l 131 636 l 304 636 l 304 792 z "},"g":{"ha":694,"x_min":86,"x_max":608,"o":"m 86 532 l 192 636 l 608 636 l 608 -85 l 503 -189 l 131 -189 l 131 -106 l 490 -81 l 529 28 l 192 28 l 86 133 l 86 532 m 521 111 l 521 550 l 213 550 l 169 428 l 196 138 l 521 111 z "},"h":{"ha":694,"x_min":86,"x_max":608,"o":"m 86 28 l 86 897 l 174 897 l 174 636 l 503 636 l 608 532 l 608 28 l 525 28 l 499 528 l 174 554 l 174 28 l 86 28 z "},"i":{"ha":694,"x_min":217,"x_max":478,"o":"m 217 550 l 217 636 l 390 636 l 390 115 l 478 115 l 478 28 l 217 28 l 217 115 l 304 115 l 304 550 l 217 550 m 304 722 l 304 897 l 390 897 l 390 722 l 304 722 z "},"j":{"ha":694,"x_min":113,"x_max":564,"o":"m 390 550 l 390 636 l 564 636 l 564 -93 l 439 -193 l 204 -167 l 113 -19 l 174 46 l 286 -111 l 456 -81 l 482 550 l 390 550 m 478 722 l 478 897 l 564 897 l 564 722 l 478 722 z "},"k":{"ha":694,"x_min":131,"x_max":625,"o":"m 131 28 l 131 897 l 217 897 l 217 358 l 503 636 l 625 636 l 331 332 l 625 28 l 503 28 l 217 306 l 217 28 l 131 28 z "},"l":{"ha":694,"x_min":217,"x_max":478,"o":"m 217 810 l 217 897 l 390 897 l 390 115 l 478 115 l 478 28 l 217 28 l 217 115 l 304 115 l 304 810 l 217 810 z "},"m":{"ha":694,"x_min":86,"x_max":608,"o":"m 86 28 l 86 636 l 503 636 l 608 532 l 608 28 l 525 28 l 499 519 l 390 558 l 390 28 l 304 28 l 304 550 l 174 550 l 174 28 l 86 28 z "},"n":{"ha":694,"x_min":86,"x_max":608,"o":"m 86 28 l 86 636 l 503 636 l 608 532 l 608 28 l 525 28 l 499 528 l 174 554 l 174 28 l 86 28 z "},"o":{"ha":694,"x_min":86,"x_max":608,"o":"m 86 532 l 192 636 l 503 636 l 608 532 l 608 133 l 503 28 l 192 28 l 86 133 l 86 532 m 499 138 l 499 528 l 217 554 l 169 428 l 196 138 l 499 138 z "},"p":{"ha":694,"x_min":86,"x_max":608,"o":"m 86 -189 l 86 636 l 503 636 l 608 532 l 608 133 l 503 28 l 174 28 l 174 -189 l 86 -189 m 499 138 l 499 528 l 174 554 l 174 111 l 499 138 z "},"q":{"ha":694,"x_min":86,"x_max":608,"o":"m 86 532 l 192 636 l 608 636 l 608 -189 l 521 -189 l 521 28 l 192 28 l 86 133 l 86 532 m 521 111 l 521 550 l 213 550 l 169 428 l 196 138 l 521 111 z "},"r":{"ha":694,"x_min":86,"x_max":608,"o":"m 86 28 l 86 636 l 174 636 l 174 532 l 278 636 l 608 636 l 608 550 l 335 550 l 174 406 l 174 28 l 86 28 z "},"s":{"ha":694,"x_min":82,"x_max":629,"o":"m 86 532 l 192 636 l 513 636 l 613 514 l 196 528 l 196 397 l 533 354 l 629 203 l 533 50 l 186 24 l 82 150 l 499 138 l 499 267 l 196 297 l 86 385 l 86 532 z "},"t":{"ha":694,"x_min":86,"x_max":608,"o":"m 261 636 l 261 897 l 347 897 l 347 636 l 521 636 l 521 550 l 343 550 l 369 138 l 608 111 l 608 28 l 364 28 l 261 133 l 261 550 l 86 550 l 86 636 l 261 636 z "},"u":{"ha":694,"x_min":86,"x_max":608,"o":"m 86 133 l 86 636 l 169 636 l 196 138 l 521 111 l 521 636 l 608 636 l 608 28 l 192 28 l 86 133 z "},"v":{"ha":694,"x_min":86,"x_max":608,"o":"m 86 571 l 86 636 l 156 636 l 308 158 l 386 158 l 539 636 l 608 636 l 608 571 l 417 28 l 278 28 l 86 571 z "},"w":{"ha":694,"x_min":86,"x_max":608,"o":"m 86 133 l 86 636 l 169 636 l 196 146 l 304 107 l 304 463 l 390 463 l 390 107 l 499 146 l 525 636 l 608 636 l 608 133 l 503 28 l 192 28 l 86 133 z "},"x":{"ha":694,"x_min":86,"x_max":608,"o":"m 86 532 l 86 636 l 135 636 l 347 397 l 560 636 l 608 636 l 608 532 l 421 332 l 608 133 l 608 28 l 560 28 l 347 267 l 135 28 l 86 28 l 86 133 l 274 332 l 86 532 z "},"y":{"ha":694,"x_min":86,"x_max":608,"o":"m 86 133 l 86 636 l 169 636 l 196 138 l 521 111 l 521 636 l 608 636 l 608 -85 l 503 -189 l 131 -189 l 131 -106 l 490 -81 l 529 28 l 192 28 l 86 133 z "},"z":{"ha":694,"x_min":86,"x_max":608,"o":"m 86 550 l 86 636 l 608 636 l 608 532 l 200 115 l 608 115 l 608 28 l 86 28 l 86 133 l 494 550 l 86 550 z "},"{":{"ha":694,"x_min":131,"x_max":521,"o":"m 261 792 l 364 897 l 521 897 l 521 818 l 356 779 l 321 463 l 356 146 l 521 107 l 521 28 l 364 28 l 261 133 l 261 419 l 131 419 l 131 506 l 261 506 l 261 792 z "},"|":{"ha":694,"x_min":304,"x_max":390,"o":"m 304 28 l 304 897 l 390 897 l 390 28 l 304 28 z "},"}":{"ha":694,"x_min":131,"x_max":521,"o":"m 131 818 l 131 897 l 286 897 l 390 792 l 390 506 l 521 506 l 521 419 l 390 419 l 390 133 l 286 28 l 131 28 l 131 107 l 294 146 l 331 463 l 294 779 l 131 818 z "},"~":{"ha":694,"x_min":86,"x_max":613,"o":"m 86 879 l 192 983 l 278 983 l 482 792 l 529 983 l 613 983 l 586 797 l 439 706 l 213 914 l 165 722 l 86 722 l 86 879 z "}," ":{"ha":694,"x_min":0,"x_max":0,"o":""},"¡":{"ha":694,"x_min":304,"x_max":390,"o":"m 304 28 l 304 636 l 390 636 l 390 28 l 304 28 m 304 722 l 304 897 l 390 897 l 390 722 l 304 722 z "},"¢":{"ha":694,"x_min":108,"x_max":621,"o":"m 304 658 l 304 767 l 390 767 l 390 636 l 513 636 l 621 506 l 564 444 l 460 550 l 390 550 l 390 115 l 460 115 l 564 219 l 621 158 l 513 28 l 390 28 l 390 -101 l 304 -101 l 304 7 l 108 93 l 108 571 l 304 658 m 304 107 l 304 550 l 213 550 l 169 428 l 196 146 l 304 107 z "},"£":{"ha":694,"x_min":65,"x_max":608,"o":"m 174 792 l 278 897 l 469 897 l 578 767 l 521 710 l 390 818 l 261 771 l 261 506 l 478 506 l 478 419 l 261 419 l 261 115 l 521 115 l 521 203 l 608 203 l 608 28 l 86 28 l 86 115 l 174 115 l 174 411 l 65 463 l 174 514 l 174 792 z "},"¤":{"ha":694,"x_min":78,"x_max":617,"o":"m 147 658 l 82 767 l 174 767 l 347 658 l 521 767 l 617 767 l 543 658 l 547 267 l 613 158 l 521 158 l 347 267 l 174 158 l 78 158 l 151 267 l 147 658 m 456 354 l 456 571 l 261 597 l 208 463 l 261 328 l 456 354 z "},"¥":{"ha":694,"x_min":86,"x_max":608,"o":"m 86 849 l 86 897 l 161 897 l 317 550 l 378 550 l 533 897 l 608 897 l 608 849 l 390 424 l 390 375 l 564 375 l 564 289 l 390 289 l 390 203 l 564 203 l 564 115 l 400 115 l 347 7 l 294 115 l 131 115 l 131 203 l 304 203 l 304 289 l 131 289 l 131 375 l 304 375 l 304 424 l 86 849 z "},"¦":{"ha":694,"x_min":304,"x_max":390,"o":"m 304 28 l 304 375 l 390 375 l 390 28 l 304 28 m 304 550 l 304 897 l 390 897 l 390 550 l 304 550 z "},"§":{"ha":694,"x_min":117,"x_max":533,"o":"m 143 875 l 225 983 l 425 983 l 533 853 l 478 797 l 347 906 l 217 857 l 217 767 l 417 689 l 517 567 l 508 93 l 425 -15 l 225 -15 l 117 115 l 174 172 l 304 64 l 433 111 l 433 203 l 235 281 l 135 401 l 143 875 m 433 532 l 331 636 l 217 636 l 217 436 l 321 332 l 433 332 l 433 532 z "},"¨":{"ha":694,"x_min":174,"x_max":521,"o":"m 433 940 l 433 1114 l 521 1114 l 521 940 l 433 940 m 174 940 l 174 1114 l 261 1114 l 261 940 l 174 940 z "},"©":{"ha":694,"x_min":43,"x_max":651,"o":"m 169 558 l 217 683 l 490 658 l 529 550 l 261 606 l 261 324 l 529 375 l 490 267 l 196 267 l 169 558 m 43 706 l 147 810 l 547 810 l 651 706 l 651 219 l 547 115 l 147 115 l 43 219 l 43 706 m 543 224 l 543 701 l 174 728 l 126 601 l 151 224 l 543 224 z "},"ª":{"ha":694,"x_min":113,"x_max":564,"o":"m 131 419 l 131 506 l 564 506 l 564 419 l 131 419 m 174 983 l 174 1069 l 460 1069 l 564 967 l 564 593 l 225 593 l 113 732 l 204 875 l 478 901 l 429 983 l 174 983 m 478 679 l 478 810 l 274 810 l 221 753 l 265 679 l 478 679 z "},"«":{"ha":694,"x_min":26,"x_max":668,"o":"m 243 332 l 539 636 l 668 636 l 374 332 l 668 28 l 539 28 l 243 332 m 26 332 l 321 636 l 451 636 l 156 332 l 451 28 l 321 28 l 26 332 z "},"¬":{"ha":694,"x_min":86,"x_max":608,"o":"m 86 550 l 86 636 l 608 636 l 608 289 l 521 289 l 521 550 l 86 550 z "},"­":{"ha":694,"x_min":131,"x_max":564,"o":"m 131 419 l 131 506 l 564 506 l 564 419 l 131 419 z "},"®":{"ha":694,"x_min":43,"x_max":651,"o":"m 174 246 l 174 679 l 482 679 l 533 536 l 429 367 l 529 246 l 421 246 l 261 389 l 261 246 l 174 246 m 433 463 l 433 593 l 261 593 l 261 463 l 433 463 m 43 706 l 147 810 l 547 810 l 651 706 l 651 219 l 547 115 l 147 115 l 43 219 l 43 706 m 543 224 l 543 701 l 174 728 l 126 601 l 151 224 l 543 224 z "},"¯":{"ha":694,"x_min":174,"x_max":521,"o":"m 174 983 l 174 1069 l 521 1069 l 521 983 l 174 983 z "},"°":{"ha":694,"x_min":165,"x_max":499,"o":"m 165 857 l 217 988 l 499 961 l 499 658 l 196 658 l 165 857 m 433 722 l 433 897 l 261 897 l 261 722 l 433 722 z "},"±":{"ha":694,"x_min":86,"x_max":608,"o":"m 86 28 l 86 115 l 608 115 l 608 28 l 86 28 m 304 506 l 304 722 l 390 722 l 390 506 l 608 506 l 608 419 l 390 419 l 390 203 l 304 203 l 304 419 l 86 419 l 86 506 l 304 506 z "},"²":{"ha":694,"x_min":165,"x_max":529,"o":"m 165 892 l 217 1031 l 499 1006 l 529 844 l 335 636 l 521 636 l 521 550 l 174 550 l 174 619 l 433 871 l 433 940 l 269 940 l 231 832 l 165 892 z "},"³":{"ha":694,"x_min":165,"x_max":499,"o":"m 174 971 l 235 1031 l 499 1006 l 499 571 l 204 571 l 165 679 l 433 628 l 433 767 l 304 767 l 304 853 l 433 853 l 433 953 l 174 901 l 174 971 z "},"´":{"ha":694,"x_min":247,"x_max":533,"o":"m 247 940 l 404 1114 l 533 1114 l 378 940 l 247 940 z "},"µ":{"ha":694,"x_min":86,"x_max":608,"o":"m 86 -189 l 86 636 l 174 636 l 174 115 l 360 115 l 521 258 l 521 636 l 608 636 l 608 28 l 521 28 l 521 133 l 417 28 l 174 28 l 174 -189 l 86 -189 z "},"¶":{"ha":694,"x_min":43,"x_max":608,"o":"m 43 792 l 147 897 l 608 897 l 608 28 l 521 28 l 521 810 l 390 810 l 390 28 l 304 28 l 304 419 l 147 419 l 43 524 l 43 792 m 304 501 l 304 810 l 169 810 l 122 683 l 151 528 l 304 501 z "},"·":{"ha":694,"x_min":304,"x_max":390,"o":"m 304 375 l 304 550 l 390 550 l 390 375 l 304 375 z "},"¸":{"ha":694,"x_min":217,"x_max":390,"o":"m 217 -189 l 317 28 l 390 28 l 390 -85 l 286 -189 l 217 -189 z "},"¹":{"ha":694,"x_min":196,"x_max":478,"o":"m 196 883 l 313 1026 l 390 1026 l 390 636 l 478 636 l 478 550 l 217 550 l 217 636 l 304 636 l 304 844 l 196 883 z "},"º":{"ha":694,"x_min":131,"x_max":564,"o":"m 131 419 l 131 506 l 564 506 l 564 419 l 131 419 m 131 967 l 235 1069 l 460 1069 l 564 967 l 564 697 l 460 593 l 235 593 l 131 697 l 131 967 m 456 701 l 456 961 l 261 988 l 208 857 l 239 701 l 456 701 z "},"»":{"ha":694,"x_min":26,"x_max":668,"o":"m 539 332 l 243 636 l 374 636 l 668 332 l 374 28 l 243 28 l 539 332 m 321 332 l 26 636 l 156 636 l 451 332 l 156 28 l 26 28 l 321 332 z "},"¼":{"ha":694,"x_min":26,"x_max":651,"o":"m 304 176 l 582 463 l 651 463 l 651 28 l 564 28 l 564 115 l 304 115 l 304 176 m 564 203 l 564 332 l 529 332 l 425 203 l 564 203 m 26 163 l 582 722 l 651 722 l 651 653 l 92 97 l 26 163 m 78 767 l 182 897 l 261 897 l 261 506 l 174 506 l 174 767 l 78 767 z "},"½":{"ha":694,"x_min":26,"x_max":660,"o":"m 339 285 l 386 419 l 613 419 l 660 285 l 508 115 l 651 115 l 651 28 l 331 28 l 564 272 l 564 332 l 443 332 l 404 224 l 339 285 m 26 250 l 582 810 l 651 810 l 651 740 l 92 185 l 26 250 m 35 767 l 139 897 l 217 897 l 217 506 l 131 506 l 131 767 l 35 767 z "},"¾":{"ha":694,"x_min":26,"x_max":651,"o":"m 304 176 l 582 463 l 651 463 l 651 28 l 564 28 l 564 115 l 304 115 l 304 176 m 564 203 l 564 332 l 529 332 l 425 203 l 564 203 m 26 119 l 582 679 l 651 679 l 651 610 l 92 54 l 26 119 m 43 840 l 104 901 l 369 875 l 369 528 l 74 528 l 35 636 l 304 583 l 304 679 l 174 679 l 174 763 l 282 797 l 43 771 l 43 840 z "},"¿":{"ha":694,"x_min":86,"x_max":608,"o":"m 304 519 l 304 636 l 390 636 l 390 519 l 169 315 l 196 138 l 499 138 l 525 332 l 608 332 l 608 133 l 503 28 l 192 28 l 86 133 l 86 319 l 304 519 m 304 722 l 304 897 l 390 897 l 390 722 l 304 722 z "},"À":{"ha":694,"x_min":86,"x_max":608,"o":"m 86 792 l 192 897 l 503 897 l 608 792 l 608 28 l 521 28 l 521 375 l 174 375 l 174 28 l 86 28 l 86 792 m 525 463 l 499 788 l 235 814 l 174 753 l 174 463 l 525 463 m 317 940 l 161 1114 l 290 1114 l 447 940 l 317 940 z "},"Á":{"ha":694,"x_min":86,"x_max":608,"o":"m 86 792 l 192 897 l 503 897 l 608 792 l 608 28 l 521 28 l 521 375 l 174 375 l 174 28 l 86 28 l 86 792 m 525 463 l 499 788 l 235 814 l 174 753 l 174 463 l 525 463 m 247 940 l 404 1114 l 533 1114 l 378 940 l 247 940 z "},"Â":{"ha":694,"x_min":86,"x_max":608,"o":"m 86 792 l 192 897 l 503 897 l 608 792 l 608 28 l 521 28 l 521 375 l 174 375 l 174 28 l 86 28 l 86 792 m 525 463 l 499 788 l 235 814 l 174 753 l 174 463 l 525 463 m 169 953 l 317 1114 l 378 1114 l 525 953 l 169 953 z "},"Ã":{"ha":694,"x_min":86,"x_max":608,"o":"m 86 792 l 192 897 l 503 897 l 608 792 l 608 28 l 521 28 l 521 375 l 174 375 l 174 28 l 86 28 l 86 792 m 525 463 l 499 788 l 235 814 l 174 753 l 174 463 l 525 463 m 131 1057 l 186 1114 l 317 1114 l 478 971 l 478 1114 l 568 1114 l 543 961 l 386 931 l 217 1083 l 217 940 l 131 940 l 131 1057 z "},"Ä":{"ha":694,"x_min":86,"x_max":608,"o":"m 86 792 l 192 897 l 503 897 l 608 792 l 608 28 l 521 28 l 521 375 l 174 375 l 174 28 l 86 28 l 86 792 m 525 463 l 499 788 l 235 814 l 174 753 l 174 463 l 525 463 m 433 940 l 433 1114 l 521 1114 l 521 940 l 433 940 m 174 940 l 174 1114 l 261 1114 l 261 940 l 174 940 z "},"Å":{"ha":694,"x_min":86,"x_max":608,"o":"m 208 979 l 261 1118 l 456 1092 l 456 918 l 608 806 l 608 28 l 521 28 l 521 375 l 174 375 l 174 28 l 86 28 l 86 806 l 261 926 l 208 979 m 390 940 l 390 1069 l 304 1069 l 304 940 l 390 940 m 525 463 l 499 788 l 235 814 l 174 753 l 174 463 l 525 463 z "},"Æ":{"ha":694,"x_min":43,"x_max":694,"o":"m 43 792 l 147 897 l 694 897 l 694 810 l 433 810 l 433 506 l 651 506 l 651 419 l 433 419 l 433 115 l 694 115 l 694 28 l 347 28 l 347 419 l 131 419 l 131 28 l 43 28 l 43 792 m 347 506 l 347 810 l 186 810 l 131 753 l 131 506 l 347 506 z "},"Ç":{"ha":694,"x_min":82,"x_max":625,"o":"m 82 775 l 186 901 l 533 875 l 625 728 l 564 663 l 451 818 l 196 788 l 196 138 l 451 107 l 564 263 l 617 207 l 564 64 l 408 24 l 325 -162 l 208 -197 l 313 -6 l 282 7 l 108 103 l 82 775 z "},"È":{"ha":694,"x_min":86,"x_max":608,"o":"m 86 28 l 86 897 l 608 897 l 608 810 l 174 810 l 174 506 l 478 506 l 478 419 l 174 419 l 174 115 l 608 115 l 608 28 l 86 28 m 317 940 l 161 1114 l 290 1114 l 447 940 l 317 940 z "},"É":{"ha":694,"x_min":86,"x_max":608,"o":"m 86 28 l 86 897 l 608 897 l 608 810 l 174 810 l 174 506 l 478 506 l 478 419 l 174 419 l 174 115 l 608 115 l 608 28 l 86 28 m 247 940 l 404 1114 l 533 1114 l 378 940 l 247 940 z "},"Ê":{"ha":694,"x_min":86,"x_max":608,"o":"m 86 28 l 86 897 l 608 897 l 608 810 l 174 810 l 174 506 l 478 506 l 478 419 l 174 419 l 174 115 l 608 115 l 608 28 l 86 28 m 169 953 l 317 1114 l 378 1114 l 525 953 l 169 953 z "},"Ë":{"ha":694,"x_min":86,"x_max":608,"o":"m 86 28 l 86 897 l 608 897 l 608 810 l 174 810 l 174 506 l 478 506 l 478 419 l 174 419 l 174 115 l 608 115 l 608 28 l 86 28 m 433 940 l 433 1114 l 521 1114 l 521 940 l 433 940 m 174 940 l 174 1114 l 261 1114 l 261 940 l 174 940 z "},"Ì":{"ha":694,"x_min":161,"x_max":478,"o":"m 217 810 l 217 897 l 478 897 l 478 810 l 390 810 l 390 115 l 478 115 l 478 28 l 217 28 l 217 115 l 304 115 l 304 810 l 217 810 m 317 940 l 161 1114 l 290 1114 l 447 940 l 317 940 z "},"Í":{"ha":694,"x_min":217,"x_max":533,"o":"m 217 810 l 217 897 l 478 897 l 478 810 l 390 810 l 390 115 l 478 115 l 478 28 l 217 28 l 217 115 l 304 115 l 304 810 l 217 810 m 247 940 l 404 1114 l 533 1114 l 378 940 l 247 940 z "},"Î":{"ha":694,"x_min":169,"x_max":525,"o":"m 217 810 l 217 897 l 478 897 l 478 810 l 390 810 l 390 115 l 478 115 l 478 28 l 217 28 l 217 115 l 304 115 l 304 810 l 217 810 m 169 953 l 317 1114 l 378 1114 l 525 953 l 169 953 z "},"Ï":{"ha":694,"x_min":174,"x_max":521,"o":"m 217 810 l 217 897 l 478 897 l 478 810 l 390 810 l 390 115 l 478 115 l 478 28 l 217 28 l 217 115 l 304 115 l 304 810 l 217 810 m 433 940 l 433 1114 l 521 1114 l 521 940 l 433 940 m 174 940 l 174 1114 l 261 1114 l 261 940 l 174 940 z "},"Ð":{"ha":694,"x_min":65,"x_max":608,"o":"m 65 463 l 96 897 l 433 897 l 608 722 l 608 203 l 433 28 l 96 28 l 65 463 m 521 706 l 417 810 l 174 810 l 174 506 l 390 506 l 390 419 l 174 419 l 174 115 l 417 115 l 521 219 l 521 706 z "},"Ñ":{"ha":694,"x_min":86,"x_max":608,"o":"m 86 28 l 86 897 l 174 897 l 174 697 l 521 358 l 521 897 l 608 897 l 608 28 l 521 28 l 521 228 l 174 567 l 174 28 l 86 28 m 131 1057 l 186 1114 l 317 1114 l 478 971 l 478 1114 l 568 1114 l 543 961 l 386 931 l 217 1083 l 217 940 l 131 940 l 131 1057 z "},"Ò":{"ha":694,"x_min":86,"x_max":608,"o":"m 86 792 l 192 897 l 503 897 l 608 792 l 608 133 l 503 28 l 192 28 l 86 133 l 86 792 m 499 138 l 499 788 l 217 814 l 169 693 l 196 138 l 499 138 m 317 940 l 161 1114 l 290 1114 l 447 940 l 317 940 z "},"Ó":{"ha":694,"x_min":86,"x_max":608,"o":"m 86 792 l 192 897 l 503 897 l 608 792 l 608 133 l 503 28 l 192 28 l 86 133 l 86 792 m 499 138 l 499 788 l 217 814 l 169 693 l 196 138 l 499 138 m 247 940 l 404 1114 l 533 1114 l 378 940 l 247 940 z "},"Ô":{"ha":694,"x_min":86,"x_max":608,"o":"m 86 792 l 192 897 l 503 897 l 608 792 l 608 133 l 503 28 l 192 28 l 86 133 l 86 792 m 499 138 l 499 788 l 217 814 l 169 693 l 196 138 l 499 138 m 169 953 l 317 1114 l 378 1114 l 525 953 l 169 953 z "},"Õ":{"ha":694,"x_min":86,"x_max":608,"o":"m 86 792 l 192 897 l 503 897 l 608 792 l 608 133 l 503 28 l 192 28 l 86 133 l 86 792 m 499 138 l 499 788 l 217 814 l 169 693 l 196 138 l 499 138 m 131 1057 l 186 1114 l 317 1114 l 478 971 l 478 1114 l 568 1114 l 543 961 l 386 931 l 217 1083 l 217 940 l 131 940 l 131 1057 z "},"Ö":{"ha":694,"x_min":86,"x_max":608,"o":"m 86 792 l 192 897 l 503 897 l 608 792 l 608 133 l 503 28 l 192 28 l 86 133 l 86 792 m 499 138 l 499 788 l 217 814 l 169 693 l 196 138 l 499 138 m 433 940 l 433 1114 l 521 1114 l 521 940 l 433 940 m 174 940 l 174 1114 l 261 1114 l 261 940 l 174 940 z "},"×":{"ha":694,"x_min":22,"x_max":629,"o":"m 261 436 l 26 679 l 147 679 l 335 506 l 490 679 l 629 679 l 390 444 l 625 203 l 490 203 l 335 375 l 147 203 l 22 203 l 261 436 z "},"Ø":{"ha":694,"x_min":65,"x_max":629,"o":"m 96 788 l 182 897 l 513 897 l 629 753 l 599 138 l 513 28 l 182 28 l 65 172 l 96 788 m 533 714 l 474 810 l 231 810 l 174 753 l 174 354 l 533 714 m 482 115 l 525 236 l 499 554 l 165 211 l 221 115 l 482 115 z "},"Ù":{"ha":694,"x_min":86,"x_max":608,"o":"m 86 133 l 86 897 l 169 897 l 196 138 l 499 138 l 525 897 l 608 897 l 608 133 l 503 28 l 192 28 l 86 133 m 317 940 l 161 1114 l 290 1114 l 447 940 l 317 940 z "},"Ú":{"ha":694,"x_min":86,"x_max":608,"o":"m 86 133 l 86 897 l 169 897 l 196 138 l 499 138 l 525 897 l 608 897 l 608 133 l 503 28 l 192 28 l 86 133 m 247 940 l 404 1114 l 533 1114 l 378 940 l 247 940 z "},"Û":{"ha":694,"x_min":86,"x_max":608,"o":"m 86 133 l 86 897 l 169 897 l 196 138 l 499 138 l 525 897 l 608 897 l 608 133 l 503 28 l 192 28 l 86 133 m 169 953 l 317 1114 l 378 1114 l 525 953 l 169 953 z "},"Ü":{"ha":694,"x_min":86,"x_max":608,"o":"m 86 133 l 86 897 l 169 897 l 196 138 l 499 138 l 525 897 l 608 897 l 608 133 l 503 28 l 192 28 l 86 133 m 433 940 l 433 1114 l 521 1114 l 521 940 l 433 940 m 174 940 l 174 1114 l 261 1114 l 261 940 l 174 940 z "},"Ý":{"ha":694,"x_min":86,"x_max":608,"o":"m 86 806 l 86 897 l 151 897 l 313 506 l 382 506 l 543 897 l 608 897 l 608 806 l 390 381 l 390 28 l 304 28 l 304 381 l 86 806 m 247 940 l 404 1114 l 533 1114 l 378 940 l 247 940 z "},"Þ":{"ha":694,"x_min":86,"x_max":608,"o":"m 86 28 l 86 897 l 174 897 l 174 722 l 503 722 l 608 619 l 608 306 l 503 203 l 174 203 l 174 28 l 86 28 m 499 311 l 499 614 l 174 640 l 174 285 l 499 311 z "},"ß":{"ha":694,"x_min":86,"x_max":608,"o":"m 86 840 l 143 897 l 469 897 l 572 767 l 517 471 l 608 415 l 608 133 l 503 28 l 278 28 l 174 133 l 174 28 l 86 28 l 86 840 m 456 571 l 456 788 l 174 814 l 174 544 l 456 571 m 529 336 l 425 463 l 174 463 l 174 211 l 300 107 l 499 138 l 529 336 z "},"à":{"ha":694,"x_min":86,"x_max":608,"o":"m 131 554 l 131 636 l 503 636 l 608 532 l 608 28 l 192 28 l 86 133 l 86 315 l 192 419 l 529 419 l 490 528 l 131 554 m 521 115 l 521 332 l 213 332 l 165 207 l 221 115 l 521 115 m 317 722 l 161 897 l 290 897 l 447 722 l 317 722 z "},"á":{"ha":694,"x_min":86,"x_max":608,"o":"m 131 554 l 131 636 l 503 636 l 608 532 l 608 28 l 192 28 l 86 133 l 86 315 l 192 419 l 529 419 l 490 528 l 131 554 m 521 115 l 521 332 l 213 332 l 165 207 l 221 115 l 521 115 m 247 722 l 404 897 l 533 897 l 378 722 l 247 722 z "},"â":{"ha":694,"x_min":86,"x_max":608,"o":"m 131 554 l 131 636 l 503 636 l 608 532 l 608 28 l 192 28 l 86 133 l 86 315 l 192 419 l 529 419 l 490 528 l 131 554 m 521 115 l 521 332 l 213 332 l 165 207 l 221 115 l 521 115 m 169 736 l 317 897 l 378 897 l 525 736 l 169 736 z "},"ã":{"ha":694,"x_min":86,"x_max":608,"o":"m 131 554 l 131 636 l 503 636 l 608 532 l 608 28 l 192 28 l 86 133 l 86 315 l 192 419 l 529 419 l 490 528 l 131 554 m 521 115 l 521 332 l 213 332 l 165 207 l 221 115 l 521 115 m 131 840 l 186 897 l 317 897 l 478 753 l 478 897 l 568 897 l 543 744 l 386 714 l 217 867 l 217 722 l 131 722 l 131 840 z "},"ä":{"ha":694,"x_min":86,"x_max":608,"o":"m 131 554 l 131 636 l 503 636 l 608 532 l 608 28 l 192 28 l 86 133 l 86 315 l 192 419 l 529 419 l 490 528 l 131 554 m 521 115 l 521 332 l 213 332 l 165 207 l 221 115 l 521 115 m 433 722 l 433 897 l 521 897 l 521 722 l 433 722 m 174 722 l 174 897 l 261 897 l 261 722 l 174 722 z "},"å":{"ha":694,"x_min":86,"x_max":608,"o":"m 131 554 l 131 636 l 503 636 l 608 532 l 608 28 l 192 28 l 86 133 l 86 315 l 192 419 l 529 419 l 490 528 l 131 554 m 521 115 l 521 332 l 213 332 l 165 207 l 221 115 l 521 115 m 204 763 l 261 901 l 456 875 l 456 701 l 294 671 l 204 763 m 390 722 l 390 853 l 304 853 l 304 722 l 390 722 z "},"æ":{"ha":694,"x_min":43,"x_max":656,"o":"m 86 550 l 86 632 l 543 628 l 651 540 l 651 289 l 386 289 l 417 138 l 656 154 l 621 50 l 156 33 l 43 124 l 43 315 l 147 419 l 304 419 l 304 550 l 86 550 m 568 375 l 543 528 l 390 554 l 390 375 l 568 375 m 304 115 l 304 332 l 169 332 l 122 207 l 178 115 l 304 115 z "},"ç":{"ha":694,"x_min":82,"x_max":621,"o":"m 82 514 l 182 636 l 513 636 l 621 506 l 564 450 l 439 554 l 196 528 l 196 138 l 439 111 l 564 215 l 621 158 l 513 28 l 413 28 l 325 -162 l 208 -197 l 313 -6 l 282 7 l 108 103 l 82 514 z "},"è":{"ha":694,"x_min":86,"x_max":608,"o":"m 86 532 l 192 636 l 503 636 l 608 532 l 608 289 l 169 289 l 200 138 l 608 142 l 578 50 l 213 24 l 86 124 l 86 532 m 525 375 l 499 528 l 235 554 l 174 493 l 174 375 l 525 375 m 317 722 l 161 897 l 290 897 l 447 722 l 317 722 z "},"é":{"ha":694,"x_min":86,"x_max":608,"o":"m 86 532 l 192 636 l 503 636 l 608 532 l 608 289 l 169 289 l 200 138 l 608 142 l 578 50 l 213 24 l 86 124 l 86 532 m 525 375 l 499 528 l 235 554 l 174 493 l 174 375 l 525 375 m 247 722 l 404 897 l 533 897 l 378 722 l 247 722 z "},"ê":{"ha":694,"x_min":86,"x_max":608,"o":"m 86 532 l 192 636 l 503 636 l 608 532 l 608 289 l 169 289 l 200 138 l 608 142 l 578 50 l 213 24 l 86 124 l 86 532 m 525 375 l 499 528 l 235 554 l 174 493 l 174 375 l 525 375 m 169 736 l 317 897 l 378 897 l 525 736 l 169 736 z "},"ë":{"ha":694,"x_min":86,"x_max":608,"o":"m 86 532 l 192 636 l 503 636 l 608 532 l 608 289 l 169 289 l 200 138 l 608 142 l 578 50 l 213 24 l 86 124 l 86 532 m 525 375 l 499 528 l 235 554 l 174 493 l 174 375 l 525 375 m 433 722 l 433 897 l 521 897 l 521 722 l 433 722 m 174 722 l 174 897 l 261 897 l 261 722 l 174 722 z "},"ì":{"ha":694,"x_min":117,"x_max":478,"o":"m 217 550 l 217 636 l 390 636 l 390 115 l 478 115 l 478 28 l 217 28 l 217 115 l 304 115 l 304 550 l 217 550 m 274 722 l 117 897 l 247 897 l 404 722 l 274 722 z "},"í":{"ha":694,"x_min":217,"x_max":533,"o":"m 217 550 l 217 636 l 390 636 l 390 115 l 478 115 l 478 28 l 217 28 l 217 115 l 304 115 l 304 550 l 217 550 m 247 722 l 404 897 l 533 897 l 378 722 l 247 722 z "},"î":{"ha":694,"x_min":169,"x_max":525,"o":"m 217 550 l 217 636 l 390 636 l 390 115 l 478 115 l 478 28 l 217 28 l 217 115 l 304 115 l 304 550 l 217 550 m 169 736 l 317 897 l 378 897 l 525 736 l 169 736 z "},"ï":{"ha":694,"x_min":174,"x_max":521,"o":"m 217 550 l 217 636 l 390 636 l 390 115 l 478 115 l 478 28 l 217 28 l 217 115 l 304 115 l 304 550 l 217 550 m 433 722 l 433 897 l 521 897 l 521 722 l 433 722 m 174 722 l 174 897 l 261 897 l 261 722 l 174 722 z "},"ð":{"ha":694,"x_min":65,"x_max":608,"o":"m 174 840 l 126 888 l 439 888 l 347 779 l 608 532 l 608 133 l 503 28 l 192 28 l 86 133 l 86 532 l 192 636 l 356 636 l 256 758 l 65 710 l 174 840 m 499 138 l 499 528 l 217 554 l 169 428 l 196 138 l 499 138 z "},"ñ":{"ha":694,"x_min":86,"x_max":608,"o":"m 86 28 l 86 636 l 503 636 l 608 532 l 608 28 l 525 28 l 499 528 l 174 554 l 174 28 l 86 28 m 131 840 l 186 897 l 317 897 l 478 753 l 478 897 l 568 897 l 543 744 l 386 714 l 217 867 l 217 722 l 131 722 l 131 840 z "},"ò":{"ha":694,"x_min":86,"x_max":608,"o":"m 86 532 l 192 636 l 503 636 l 608 532 l 608 133 l 503 28 l 192 28 l 86 133 l 86 532 m 499 138 l 499 528 l 217 554 l 169 428 l 196 138 l 499 138 m 317 722 l 161 897 l 290 897 l 447 722 l 317 722 z "},"ó":{"ha":694,"x_min":86,"x_max":608,"o":"m 86 532 l 192 636 l 503 636 l 608 532 l 608 133 l 503 28 l 192 28 l 86 133 l 86 532 m 499 138 l 499 528 l 217 554 l 169 428 l 196 138 l 499 138 m 247 722 l 404 897 l 533 897 l 378 722 l 247 722 z "},"ô":{"ha":694,"x_min":86,"x_max":608,"o":"m 86 532 l 192 636 l 503 636 l 608 532 l 608 133 l 503 28 l 192 28 l 86 133 l 86 532 m 499 138 l 499 528 l 217 554 l 169 428 l 196 138 l 499 138 m 169 736 l 317 897 l 378 897 l 525 736 l 169 736 z "},"õ":{"ha":694,"x_min":86,"x_max":608,"o":"m 86 532 l 192 636 l 503 636 l 608 532 l 608 133 l 503 28 l 192 28 l 86 133 l 86 532 m 499 138 l 499 528 l 217 554 l 169 428 l 196 138 l 499 138 m 131 840 l 186 897 l 317 897 l 478 753 l 478 897 l 568 897 l 543 744 l 386 714 l 217 867 l 217 722 l 131 722 l 131 840 z "},"ö":{"ha":694,"x_min":86,"x_max":608,"o":"m 86 532 l 192 636 l 503 636 l 608 532 l 608 133 l 503 28 l 192 28 l 86 133 l 86 532 m 499 138 l 499 528 l 217 554 l 169 428 l 196 138 l 499 138 m 433 722 l 433 897 l 521 897 l 521 722 l 433 722 m 174 722 l 174 897 l 261 897 l 261 722 l 174 722 z "},"÷":{"ha":694,"x_min":86,"x_max":608,"o":"m 304 158 l 304 332 l 390 332 l 390 158 l 304 158 m 86 419 l 86 506 l 608 506 l 608 419 l 86 419 m 304 593 l 304 767 l 390 767 l 390 593 l 304 593 z "},"ø":{"ha":694,"x_min":-4,"x_max":633,"o":"m 86 532 l 192 636 l 633 624 l 599 138 l 513 28 l -4 42 l 86 133 l 86 532 m 196 242 l 494 550 l 213 550 l 165 424 l 196 242 m 482 115 l 529 242 l 499 424 l 200 115 l 482 115 z "},"ù":{"ha":694,"x_min":86,"x_max":608,"o":"m 86 133 l 86 636 l 169 636 l 196 138 l 521 111 l 521 636 l 608 636 l 608 28 l 192 28 l 86 133 m 317 722 l 161 897 l 290 897 l 447 722 l 317 722 z "},"ú":{"ha":694,"x_min":86,"x_max":608,"o":"m 86 133 l 86 636 l 169 636 l 196 138 l 521 111 l 521 636 l 608 636 l 608 28 l 192 28 l 86 133 m 247 722 l 404 897 l 533 897 l 378 722 l 247 722 z "},"û":{"ha":694,"x_min":86,"x_max":608,"o":"m 86 133 l 86 636 l 169 636 l 196 138 l 521 111 l 521 636 l 608 636 l 608 28 l 192 28 l 86 133 m 169 736 l 317 897 l 378 897 l 525 736 l 169 736 z "},"ü":{"ha":694,"x_min":86,"x_max":608,"o":"m 86 133 l 86 636 l 169 636 l 196 138 l 521 111 l 521 636 l 608 636 l 608 28 l 192 28 l 86 133 m 433 722 l 433 897 l 521 897 l 521 722 l 433 722 m 174 722 l 174 897 l 261 897 l 261 722 l 174 722 z "},"ý":{"ha":694,"x_min":86,"x_max":608,"o":"m 86 133 l 86 636 l 169 636 l 196 138 l 521 111 l 521 636 l 608 636 l 608 -85 l 503 -189 l 131 -189 l 131 -106 l 490 -81 l 529 28 l 192 28 l 86 133 m 247 722 l 404 897 l 533 897 l 378 722 l 247 722 z "},"þ":{"ha":694,"x_min":86,"x_max":608,"o":"m 86 -189 l 86 897 l 174 897 l 174 636 l 503 636 l 608 532 l 608 133 l 503 28 l 174 28 l 174 -189 l 86 -189 m 499 138 l 499 528 l 174 554 l 174 111 l 499 138 z "},"ÿ":{"ha":694,"x_min":86,"x_max":608,"o":"m 86 133 l 86 636 l 169 636 l 196 138 l 521 111 l 521 636 l 608 636 l 608 -85 l 503 -189 l 131 -189 l 131 -106 l 490 -81 l 529 28 l 192 28 l 86 133 m 433 722 l 433 897 l 521 897 l 521 722 l 433 722 m 174 722 l 174 897 l 261 897 l 261 722 l 174 722 z "},"Ā":{"ha":694,"x_min":86,"x_max":608,"o":"m 86 792 l 192 897 l 503 897 l 608 792 l 608 28 l 521 28 l 521 375 l 174 375 l 174 28 l 86 28 l 86 792 m 525 463 l 499 788 l 235 814 l 174 753 l 174 463 l 525 463 m 174 983 l 174 1069 l 521 1069 l 521 983 l 174 983 z "},"ā":{"ha":694,"x_min":86,"x_max":608,"o":"m 131 554 l 131 636 l 503 636 l 608 532 l 608 28 l 192 28 l 86 133 l 86 315 l 192 419 l 529 419 l 490 528 l 131 554 m 521 115 l 521 332 l 213 332 l 165 207 l 221 115 l 521 115 m 174 722 l 174 810 l 521 810 l 521 722 l 174 722 z "},"Ă":{"ha":694,"x_min":86,"x_max":608,"o":"m 86 792 l 192 897 l 503 897 l 608 792 l 608 28 l 521 28 l 521 375 l 174 375 l 174 28 l 86 28 l 86 792 m 525 463 l 499 788 l 235 814 l 174 753 l 174 463 l 525 463 m 174 1044 l 174 1114 l 261 1114 l 261 1026 l 425 1026 l 464 1135 l 533 1069 l 425 940 l 278 940 l 174 1044 z "},"ă":{"ha":694,"x_min":86,"x_max":608,"o":"m 131 554 l 131 636 l 503 636 l 608 532 l 608 28 l 192 28 l 86 133 l 86 315 l 192 419 l 529 419 l 490 528 l 131 554 m 521 115 l 521 332 l 213 332 l 165 207 l 221 115 l 521 115 m 174 828 l 174 897 l 261 897 l 261 810 l 425 810 l 464 918 l 533 853 l 425 722 l 278 722 l 174 828 z "},"Ą":{"ha":694,"x_min":86,"x_max":608,"o":"m 86 792 l 192 897 l 503 897 l 608 792 l 608 15 l 456 -97 l 608 -101 l 608 -189 l 429 -189 l 378 -46 l 521 58 l 521 375 l 174 375 l 174 28 l 86 28 l 86 792 m 525 463 l 499 788 l 235 814 l 174 753 l 174 463 l 525 463 z "},"ą":{"ha":694,"x_min":86,"x_max":608,"o":"m 131 554 l 131 636 l 503 636 l 608 532 l 608 15 l 456 -97 l 608 -101 l 608 -193 l 413 -167 l 421 28 l 192 28 l 86 133 l 86 315 l 192 419 l 529 419 l 490 528 l 131 554 m 521 115 l 521 332 l 213 332 l 165 207 l 221 115 l 521 115 z "},"Ć":{"ha":694,"x_min":86,"x_max":625,"o":"m 86 792 l 196 901 l 533 875 l 625 728 l 564 663 l 451 818 l 196 788 l 196 138 l 451 107 l 564 263 l 625 197 l 533 50 l 213 24 l 86 124 l 86 792 m 247 940 l 404 1114 l 533 1114 l 378 940 l 247 940 z "},"ć":{"ha":694,"x_min":86,"x_max":621,"o":"m 86 532 l 192 636 l 513 636 l 621 506 l 564 450 l 439 554 l 196 528 l 196 138 l 439 111 l 564 215 l 621 158 l 513 28 l 192 28 l 86 133 l 86 532 m 247 722 l 404 897 l 533 897 l 378 722 l 247 722 z "},"Ĉ":{"ha":694,"x_min":86,"x_max":625,"o":"m 86 792 l 196 901 l 533 875 l 625 728 l 564 663 l 451 818 l 196 788 l 196 138 l 451 107 l 564 263 l 625 197 l 533 50 l 213 24 l 86 124 l 86 792 m 169 953 l 317 1114 l 378 1114 l 525 953 l 169 953 z "},"ĉ":{"ha":694,"x_min":86,"x_max":621,"o":"m 86 532 l 192 636 l 513 636 l 621 506 l 564 450 l 439 554 l 196 528 l 196 138 l 439 111 l 564 215 l 621 158 l 513 28 l 192 28 l 86 133 l 86 532 m 169 736 l 317 897 l 378 897 l 525 736 l 169 736 z "},"Ċ":{"ha":694,"x_min":86,"x_max":625,"o":"m 86 792 l 196 901 l 533 875 l 625 728 l 564 663 l 451 818 l 196 788 l 196 138 l 451 107 l 564 263 l 625 197 l 533 50 l 213 24 l 86 124 l 86 792 m 304 940 l 304 1114 l 390 1114 l 390 940 l 304 940 z "},"ċ":{"ha":694,"x_min":86,"x_max":621,"o":"m 86 532 l 192 636 l 513 636 l 621 506 l 564 450 l 439 554 l 196 528 l 196 138 l 439 111 l 564 215 l 621 158 l 513 28 l 192 28 l 86 133 l 86 532 m 304 722 l 304 897 l 390 897 l 390 722 l 304 722 z "},"Č":{"ha":694,"x_min":86,"x_max":625,"o":"m 86 792 l 196 901 l 533 875 l 625 728 l 564 663 l 451 818 l 196 788 l 196 138 l 451 107 l 564 263 l 625 197 l 533 50 l 213 24 l 86 124 l 86 792 m 347 922 l 165 1100 l 529 1100 l 347 922 z "},"č":{"ha":694,"x_min":86,"x_max":621,"o":"m 86 532 l 192 636 l 513 636 l 621 506 l 564 450 l 439 554 l 196 528 l 196 138 l 439 111 l 564 215 l 621 158 l 513 28 l 192 28 l 86 133 l 86 532 m 347 706 l 165 883 l 529 883 l 347 706 z "},"Ď":{"ha":694,"x_min":86,"x_max":608,"o":"m 86 28 l 86 897 l 433 897 l 608 722 l 608 203 l 433 28 l 86 28 m 521 706 l 417 810 l 174 810 l 174 115 l 417 115 l 521 219 l 521 706 m 347 922 l 165 1100 l 529 1100 l 347 922 z "},"ď":{"ha":694,"x_min":86,"x_max":608,"o":"m 521 636 l 521 897 l 608 897 l 608 28 l 192 28 l 86 133 l 86 532 l 192 636 l 521 636 m 521 111 l 521 550 l 213 550 l 169 428 l 196 138 l 521 111 m 347 922 l 165 1100 l 529 1100 l 347 922 z "},"Đ":{"ha":694,"x_min":65,"x_max":608,"o":"m 65 463 l 96 897 l 433 897 l 608 722 l 608 203 l 433 28 l 96 28 l 65 463 m 521 706 l 417 810 l 174 810 l 174 506 l 390 506 l 390 419 l 174 419 l 174 115 l 417 115 l 521 219 l 521 706 z "},"đ":{"ha":694,"x_min":86,"x_max":717,"o":"m 521 810 l 521 897 l 568 897 l 717 753 l 608 714 l 608 28 l 192 28 l 86 133 l 86 532 l 192 636 l 521 636 l 521 722 l 304 722 l 304 810 l 521 810 m 521 111 l 521 550 l 213 550 l 169 428 l 196 138 l 521 111 z "},"Ē":{"ha":694,"x_min":86,"x_max":608,"o":"m 86 28 l 86 897 l 608 897 l 608 810 l 174 810 l 174 506 l 478 506 l 478 419 l 174 419 l 174 115 l 608 115 l 608 28 l 86 28 m 174 983 l 174 1069 l 521 1069 l 521 983 l 174 983 z "},"ē":{"ha":694,"x_min":86,"x_max":608,"o":"m 86 532 l 192 636 l 503 636 l 608 532 l 608 289 l 169 289 l 200 138 l 608 142 l 578 50 l 213 24 l 86 124 l 86 532 m 525 375 l 499 528 l 235 554 l 174 493 l 174 375 l 525 375 m 174 722 l 174 810 l 521 810 l 521 722 l 174 722 z "},"Ĕ":{"ha":694,"x_min":86,"x_max":608,"o":"m 86 28 l 86 897 l 608 897 l 608 810 l 174 810 l 174 506 l 478 506 l 478 419 l 174 419 l 174 115 l 608 115 l 608 28 l 86 28 m 174 1044 l 174 1114 l 261 1114 l 261 1026 l 425 1026 l 464 1135 l 533 1069 l 425 940 l 278 940 l 174 1044 z "},"ĕ":{"ha":694,"x_min":86,"x_max":608,"o":"m 86 532 l 192 636 l 503 636 l 608 532 l 608 289 l 169 289 l 200 138 l 608 142 l 578 50 l 213 24 l 86 124 l 86 532 m 525 375 l 499 528 l 235 554 l 174 493 l 174 375 l 525 375 m 174 828 l 174 897 l 261 897 l 261 810 l 425 810 l 464 918 l 533 853 l 425 722 l 278 722 l 174 828 z "},"Ė":{"ha":694,"x_min":86,"x_max":608,"o":"m 86 28 l 86 897 l 608 897 l 608 810 l 174 810 l 174 506 l 478 506 l 478 419 l 174 419 l 174 115 l 608 115 l 608 28 l 86 28 m 304 940 l 304 1114 l 390 1114 l 390 940 l 304 940 z "},"ė":{"ha":694,"x_min":86,"x_max":608,"o":"m 86 532 l 192 636 l 503 636 l 608 532 l 608 289 l 169 289 l 200 138 l 608 142 l 578 50 l 213 24 l 86 124 l 86 532 m 525 375 l 499 528 l 235 554 l 174 493 l 174 375 l 525 375 m 304 722 l 304 897 l 390 897 l 390 722 l 304 722 z "},"Ę":{"ha":694,"x_min":86,"x_max":608,"o":"m 86 28 l 86 897 l 608 897 l 608 810 l 174 810 l 174 506 l 478 506 l 478 419 l 174 419 l 174 115 l 608 115 l 608 15 l 456 -97 l 608 -101 l 608 -193 l 413 -167 l 421 28 l 86 28 z "},"ę":{"ha":694,"x_min":82,"x_max":608,"o":"m 82 514 l 182 636 l 503 636 l 608 532 l 608 289 l 169 289 l 200 138 l 608 142 l 608 72 l 400 -11 l 343 -101 l 478 -101 l 478 -193 l 282 -167 l 282 7 l 108 93 l 82 514 m 525 375 l 499 528 l 235 554 l 174 493 l 174 375 l 525 375 z "},"Ě":{"ha":694,"x_min":86,"x_max":608,"o":"m 86 28 l 86 897 l 608 897 l 608 810 l 174 810 l 174 506 l 478 506 l 478 419 l 174 419 l 174 115 l 608 115 l 608 28 l 86 28 m 347 922 l 165 1100 l 529 1100 l 347 922 z "},"ě":{"ha":694,"x_min":86,"x_max":608,"o":"m 86 532 l 192 636 l 503 636 l 608 532 l 608 289 l 169 289 l 200 138 l 608 142 l 578 50 l 213 24 l 86 124 l 86 532 m 525 375 l 499 528 l 235 554 l 174 493 l 174 375 l 525 375 m 347 706 l 165 883 l 529 883 l 347 706 z "},"Ĝ":{"ha":694,"x_min":86,"x_max":625,"o":"m 86 792 l 196 901 l 533 875 l 625 728 l 564 663 l 451 818 l 196 788 l 196 138 l 499 138 l 525 419 l 347 419 l 347 506 l 608 506 l 608 133 l 503 28 l 192 28 l 86 133 l 86 792 m 169 953 l 317 1114 l 378 1114 l 525 953 l 169 953 z "},"ĝ":{"ha":694,"x_min":86,"x_max":608,"o":"m 86 532 l 192 636 l 608 636 l 608 -85 l 503 -189 l 131 -189 l 131 -106 l 490 -81 l 529 28 l 192 28 l 86 133 l 86 532 m 521 111 l 521 550 l 213 550 l 169 428 l 196 138 l 521 111 m 169 736 l 317 897 l 378 897 l 525 736 l 169 736 z "},"Ğ":{"ha":694,"x_min":86,"x_max":625,"o":"m 86 792 l 196 901 l 533 875 l 625 728 l 564 663 l 451 818 l 196 788 l 196 138 l 499 138 l 525 419 l 347 419 l 347 506 l 608 506 l 608 133 l 503 28 l 192 28 l 86 133 l 86 792 m 174 1044 l 174 1114 l 261 1114 l 261 1026 l 425 1026 l 464 1135 l 533 1069 l 425 940 l 278 940 l 174 1044 z "},"ğ":{"ha":694,"x_min":86,"x_max":608,"o":"m 86 532 l 192 636 l 608 636 l 608 -85 l 503 -189 l 131 -189 l 131 -106 l 490 -81 l 529 28 l 192 28 l 86 133 l 86 532 m 521 111 l 521 550 l 213 550 l 169 428 l 196 138 l 521 111 m 174 828 l 174 897 l 261 897 l 261 810 l 425 810 l 464 918 l 533 853 l 425 722 l 278 722 l 174 828 z "},"Ġ":{"ha":694,"x_min":86,"x_max":625,"o":"m 86 792 l 196 901 l 533 875 l 625 728 l 564 663 l 451 818 l 196 788 l 196 138 l 499 138 l 525 419 l 347 419 l 347 506 l 608 506 l 608 133 l 503 28 l 192 28 l 86 133 l 86 792 m 304 940 l 304 1114 l 390 1114 l 390 940 l 304 940 z "},"ġ":{"ha":694,"x_min":86,"x_max":608,"o":"m 86 532 l 192 636 l 608 636 l 608 -85 l 503 -189 l 131 -189 l 131 -106 l 490 -81 l 529 28 l 192 28 l 86 133 l 86 532 m 521 111 l 521 550 l 213 550 l 169 428 l 196 138 l 521 111 m 347 722 l 347 897 l 433 897 l 433 722 l 347 722 z "},"Ģ":{"ha":694,"x_min":86,"x_max":625,"o":"m 217 -232 l 317 -15 l 390 -15 l 390 -128 l 286 -232 l 217 -232 m 86 792 l 196 901 l 533 875 l 625 728 l 564 663 l 451 818 l 196 788 l 196 138 l 499 138 l 525 419 l 347 419 l 347 506 l 608 506 l 608 133 l 503 28 l 192 28 l 86 133 l 86 792 z "},"ģ":{"ha":694,"x_min":86,"x_max":608,"o":"m 86 532 l 192 636 l 608 636 l 608 -85 l 503 -189 l 131 -189 l 131 -106 l 490 -81 l 529 28 l 192 28 l 86 133 l 86 532 m 521 111 l 521 550 l 213 550 l 169 428 l 196 138 l 521 111 m 347 792 l 451 897 l 521 897 l 421 679 l 347 679 l 347 792 z "},"Ĥ":{"ha":694,"x_min":86,"x_max":608,"o":"m 86 28 l 86 897 l 174 897 l 174 506 l 521 506 l 521 897 l 608 897 l 608 28 l 521 28 l 521 419 l 174 419 l 174 28 l 86 28 m 169 953 l 317 1114 l 378 1114 l 525 953 l 169 953 z "},"ĥ":{"ha":694,"x_min":86,"x_max":608,"o":"m 86 28 l 86 897 l 174 897 l 174 636 l 503 636 l 608 532 l 608 28 l 525 28 l 499 528 l 174 554 l 174 28 l 86 28 m 169 953 l 317 1114 l 378 1114 l 525 953 l 169 953 z "},"Ħ":{"ha":694,"x_min":65,"x_max":629,"o":"m 65 744 l 96 897 l 174 897 l 174 767 l 521 767 l 521 897 l 599 897 l 629 744 l 599 28 l 521 28 l 521 419 l 174 419 l 174 28 l 96 28 l 65 744 m 521 506 l 521 679 l 174 679 l 174 506 l 521 506 z "},"ħ":{"ha":694,"x_min":65,"x_max":608,"o":"m 65 788 l 96 897 l 174 897 l 174 810 l 390 810 l 390 722 l 174 722 l 174 636 l 503 636 l 608 532 l 608 28 l 525 28 l 499 528 l 174 554 l 174 28 l 92 28 l 65 788 z "},"Ĩ":{"ha":694,"x_min":131,"x_max":568,"o":"m 217 810 l 217 897 l 478 897 l 478 810 l 390 810 l 390 115 l 478 115 l 478 28 l 217 28 l 217 115 l 304 115 l 304 810 l 217 810 m 131 1057 l 186 1114 l 317 1114 l 478 971 l 478 1114 l 568 1114 l 543 961 l 386 931 l 217 1083 l 217 940 l 131 940 l 131 1057 z "},"ĩ":{"ha":694,"x_min":131,"x_max":568,"o":"m 217 550 l 217 636 l 390 636 l 390 115 l 478 115 l 478 28 l 217 28 l 217 115 l 304 115 l 304 550 l 217 550 m 131 840 l 186 897 l 317 897 l 478 753 l 478 897 l 568 897 l 543 744 l 386 714 l 217 867 l 217 722 l 131 722 l 131 840 z "},"Ī":{"ha":694,"x_min":174,"x_max":521,"o":"m 217 810 l 217 897 l 478 897 l 478 810 l 390 810 l 390 115 l 478 115 l 478 28 l 217 28 l 217 115 l 304 115 l 304 810 l 217 810 m 174 983 l 174 1069 l 521 1069 l 521 983 l 174 983 z "},"ī":{"ha":694,"x_min":174,"x_max":521,"o":"m 217 550 l 217 636 l 390 636 l 390 115 l 478 115 l 478 28 l 217 28 l 217 115 l 304 115 l 304 550 l 217 550 m 174 722 l 174 810 l 521 810 l 521 722 l 174 722 z "},"Ĭ":{"ha":694,"x_min":174,"x_max":533,"o":"m 217 810 l 217 897 l 478 897 l 478 810 l 390 810 l 390 115 l 478 115 l 478 28 l 217 28 l 217 115 l 304 115 l 304 810 l 217 810 m 174 1044 l 174 1114 l 261 1114 l 261 1026 l 425 1026 l 464 1135 l 533 1069 l 425 940 l 278 940 l 174 1044 z "},"ĭ":{"ha":694,"x_min":174,"x_max":533,"o":"m 217 550 l 217 636 l 390 636 l 390 115 l 478 115 l 478 28 l 217 28 l 217 115 l 304 115 l 304 550 l 217 550 m 174 828 l 174 897 l 261 897 l 261 810 l 425 810 l 464 918 l 533 853 l 425 722 l 278 722 l 174 828 z "},"Į":{"ha":694,"x_min":196,"x_max":499,"o":"m 217 810 l 217 897 l 478 897 l 478 810 l 390 810 l 390 124 l 499 85 l 331 -81 l 478 -106 l 478 -193 l 282 -167 l 282 7 l 196 81 l 304 124 l 304 810 l 217 810 z "},"į":{"ha":694,"x_min":196,"x_max":499,"o":"m 217 550 l 217 636 l 390 636 l 390 124 l 499 85 l 331 -81 l 478 -106 l 478 -193 l 282 -167 l 282 7 l 196 81 l 304 124 l 304 550 l 217 550 m 304 722 l 304 897 l 390 897 l 390 722 l 304 722 z "},"İ":{"ha":694,"x_min":217,"x_max":478,"o":"m 217 810 l 217 897 l 478 897 l 478 810 l 390 810 l 390 115 l 478 115 l 478 28 l 217 28 l 217 115 l 304 115 l 304 810 l 217 810 m 304 940 l 304 1114 l 390 1114 l 390 940 l 304 940 z "},"ı":{"ha":694,"x_min":217,"x_max":478,"o":"m 217 550 l 217 636 l 390 636 l 390 115 l 478 115 l 478 28 l 217 28 l 217 115 l 304 115 l 304 550 l 217 550 z "},"Ĳ":{"ha":694,"x_min":22,"x_max":629,"o":"m 499 146 l 499 897 l 629 897 l 599 138 l 513 28 l 364 28 l 261 133 l 261 289 l 339 289 l 386 107 l 499 146 m 22 28 l 22 897 l 151 897 l 151 28 l 22 28 z "},"ĳ":{"ha":694,"x_min":65,"x_max":651,"o":"m 478 550 l 478 636 l 651 636 l 651 -93 l 525 -197 l 378 -167 l 286 -19 l 347 46 l 464 -115 l 564 -54 l 564 550 l 478 550 m 65 28 l 65 636 l 174 636 l 174 167 l 225 28 l 65 28 m 564 722 l 564 897 l 651 897 l 651 722 l 564 722 m 86 722 l 86 897 l 174 897 l 174 722 l 86 722 z "},"Ĵ":{"ha":694,"x_min":86,"x_max":699,"o":"m 390 810 l 390 897 l 651 897 l 651 810 l 564 810 l 564 133 l 460 28 l 192 28 l 86 133 l 86 289 l 165 289 l 213 111 l 456 138 l 482 810 l 390 810 m 343 953 l 490 1114 l 551 1114 l 699 953 l 343 953 z "},"ĵ":{"ha":694,"x_min":113,"x_max":699,"o":"m 390 550 l 390 636 l 564 636 l 564 -93 l 439 -193 l 204 -167 l 113 -19 l 174 46 l 286 -111 l 456 -81 l 482 550 l 390 550 m 343 736 l 490 897 l 551 897 l 699 736 l 343 736 z "},"Ķ":{"ha":694,"x_min":86,"x_max":625,"o":"m 217 -232 l 317 -15 l 390 -15 l 390 -128 l 286 -232 l 217 -232 m 86 28 l 86 897 l 174 897 l 174 532 l 564 914 l 625 853 l 243 463 l 625 72 l 564 11 l 174 393 l 174 28 l 86 28 z "},"ķ":{"ha":694,"x_min":131,"x_max":625,"o":"m 217 -232 l 317 -15 l 390 -15 l 390 -128 l 286 -232 l 217 -232 m 131 28 l 131 897 l 217 897 l 217 358 l 503 636 l 625 636 l 331 332 l 625 28 l 503 28 l 217 306 l 217 28 l 131 28 z "},"ĸ":{"ha":694,"x_min":131,"x_max":625,"o":"m 131 28 l 131 636 l 217 636 l 217 358 l 503 636 l 625 636 l 331 332 l 625 28 l 503 28 l 217 306 l 217 28 l 131 28 z "},"Ĺ":{"ha":694,"x_min":74,"x_max":608,"o":"m 86 28 l 86 897 l 174 897 l 174 115 l 608 115 l 608 28 l 86 28 m 74 940 l 231 1114 l 360 1114 l 204 940 l 74 940 z "},"ĺ":{"ha":694,"x_min":217,"x_max":533,"o":"m 217 810 l 217 897 l 390 897 l 390 115 l 478 115 l 478 28 l 217 28 l 217 115 l 304 115 l 304 810 l 217 810 m 247 940 l 404 1114 l 533 1114 l 378 940 l 247 940 z "},"Ļ":{"ha":694,"x_min":86,"x_max":608,"o":"m 217 -232 l 317 -15 l 390 -15 l 390 -128 l 286 -232 l 217 -232 m 86 28 l 86 897 l 174 897 l 174 115 l 608 115 l 608 28 l 86 28 z "},"ļ":{"ha":694,"x_min":217,"x_max":478,"o":"m 217 -232 l 317 -15 l 390 -15 l 390 -128 l 286 -232 l 217 -232 m 217 810 l 217 897 l 390 897 l 390 115 l 478 115 l 478 28 l 217 28 l 217 115 l 304 115 l 304 810 l 217 810 z "},"Ľ":{"ha":694,"x_min":86,"x_max":608,"o":"m 86 28 l 86 897 l 174 897 l 174 115 l 608 115 l 608 28 l 86 28 m 347 922 l 165 1100 l 529 1100 l 347 922 z "},"ľ":{"ha":694,"x_min":165,"x_max":529,"o":"m 217 810 l 217 897 l 390 897 l 390 115 l 478 115 l 478 28 l 217 28 l 217 115 l 304 115 l 304 810 l 217 810 m 347 922 l 165 1100 l 529 1100 l 347 922 z "},"Ŀ":{"ha":694,"x_min":86,"x_max":608,"o":"m 433 375 l 433 550 l 521 550 l 521 375 l 433 375 m 86 28 l 86 897 l 174 897 l 174 115 l 608 115 l 608 28 l 86 28 z "},"ŀ":{"ha":694,"x_min":217,"x_max":694,"o":"m 608 375 l 608 550 l 694 550 l 694 375 l 608 375 m 217 810 l 217 897 l 390 897 l 390 115 l 478 115 l 478 28 l 217 28 l 217 115 l 304 115 l 304 810 l 217 810 z "},"Ł":{"ha":694,"x_min":-17,"x_max":608,"o":"m 86 436 l 86 897 l 174 897 l 174 489 l 278 593 l 360 593 l 174 393 l 174 115 l 608 115 l 608 28 l 86 28 l 86 332 l -17 332 l 86 436 z "},"ł":{"ha":694,"x_min":151,"x_max":543,"o":"m 217 810 l 217 897 l 390 897 l 390 554 l 543 606 l 390 432 l 390 115 l 478 115 l 478 28 l 217 28 l 217 115 l 304 115 l 304 371 l 151 319 l 304 493 l 304 810 l 217 810 z "},"Ń":{"ha":694,"x_min":86,"x_max":608,"o":"m 86 28 l 86 897 l 174 897 l 174 697 l 521 358 l 521 897 l 608 897 l 608 28 l 521 28 l 521 228 l 174 567 l 174 28 l 86 28 m 247 940 l 404 1114 l 533 1114 l 378 940 l 247 940 z "},"ń":{"ha":694,"x_min":86,"x_max":608,"o":"m 86 28 l 86 636 l 503 636 l 608 532 l 608 28 l 525 28 l 499 528 l 174 554 l 174 28 l 86 28 m 247 722 l 404 897 l 533 897 l 378 722 l 247 722 z "},"Ņ":{"ha":694,"x_min":86,"x_max":608,"o":"m 217 -232 l 317 -15 l 390 -15 l 390 -128 l 286 -232 l 217 -232 m 86 28 l 86 897 l 174 897 l 174 697 l 521 358 l 521 897 l 608 897 l 608 28 l 521 28 l 521 228 l 174 567 l 174 28 l 86 28 z "},"ņ":{"ha":694,"x_min":86,"x_max":608,"o":"m 217 -232 l 317 -15 l 390 -15 l 390 -128 l 286 -232 l 217 -232 m 86 28 l 86 636 l 503 636 l 608 532 l 608 28 l 525 28 l 499 528 l 174 554 l 174 28 l 86 28 z "},"Ň":{"ha":694,"x_min":86,"x_max":608,"o":"m 86 28 l 86 897 l 174 897 l 174 697 l 521 358 l 521 897 l 608 897 l 608 28 l 521 28 l 521 228 l 174 567 l 174 28 l 86 28 m 347 922 l 165 1100 l 529 1100 l 347 922 z "},"ň":{"ha":694,"x_min":86,"x_max":608,"o":"m 86 28 l 86 636 l 503 636 l 608 532 l 608 28 l 525 28 l 499 528 l 174 554 l 174 28 l 86 28 m 347 706 l 165 883 l 529 883 l 347 706 z "},"ŉ":{"ha":694,"x_min":53,"x_max":608,"o":"m 86 28 l 86 636 l 503 636 l 608 532 l 608 28 l 525 28 l 499 528 l 174 554 l 174 28 l 86 28 m 53 744 l 96 983 l 174 983 l 174 832 l 92 706 l 53 744 z "},"Ŋ":{"ha":694,"x_min":86,"x_max":608,"o":"m 86 28 l 86 897 l 174 897 l 174 697 l 521 358 l 521 897 l 608 897 l 608 -85 l 503 -189 l 347 -189 l 347 -111 l 521 -67 l 521 228 l 174 567 l 174 28 l 86 28 z "},"ŋ":{"ha":694,"x_min":86,"x_max":608,"o":"m 86 28 l 86 636 l 503 636 l 608 532 l 608 -85 l 503 -189 l 347 -189 l 347 -111 l 525 -67 l 499 528 l 174 554 l 174 28 l 86 28 z "},"Ō":{"ha":694,"x_min":86,"x_max":608,"o":"m 86 792 l 192 897 l 503 897 l 608 792 l 608 133 l 503 28 l 192 28 l 86 133 l 86 792 m 499 138 l 499 788 l 217 814 l 169 693 l 196 138 l 499 138 m 174 983 l 174 1069 l 521 1069 l 521 983 l 174 983 z "},"ō":{"ha":694,"x_min":86,"x_max":608,"o":"m 86 532 l 192 636 l 503 636 l 608 532 l 608 133 l 503 28 l 192 28 l 86 133 l 86 532 m 499 138 l 499 528 l 217 554 l 169 428 l 196 138 l 499 138 m 174 722 l 174 810 l 521 810 l 521 722 l 174 722 z "},"Ŏ":{"ha":694,"x_min":86,"x_max":608,"o":"m 86 792 l 192 897 l 503 897 l 608 792 l 608 133 l 503 28 l 192 28 l 86 133 l 86 792 m 499 138 l 499 788 l 217 814 l 169 693 l 196 138 l 499 138 m 174 1044 l 174 1114 l 261 1114 l 261 1026 l 425 1026 l 464 1135 l 533 1069 l 425 940 l 278 940 l 174 1044 z "},"ŏ":{"ha":694,"x_min":86,"x_max":608,"o":"m 86 532 l 192 636 l 503 636 l 608 532 l 608 133 l 503 28 l 192 28 l 86 133 l 86 532 m 499 138 l 499 528 l 217 554 l 169 428 l 196 138 l 499 138 m 174 828 l 174 897 l 261 897 l 261 810 l 425 810 l 464 918 l 533 853 l 425 722 l 278 722 l 174 828 z "},"Ő":{"ha":694,"x_min":86,"x_max":664,"o":"m 86 792 l 192 897 l 503 897 l 608 792 l 608 133 l 503 28 l 192 28 l 86 133 l 86 792 m 499 138 l 499 788 l 217 814 l 169 693 l 196 138 l 499 138 m 378 940 l 533 1114 l 664 1114 l 508 940 l 378 940 m 161 940 l 317 1114 l 447 1114 l 290 940 l 161 940 z "},"ő":{"ha":694,"x_min":86,"x_max":664,"o":"m 86 532 l 192 636 l 503 636 l 608 532 l 608 133 l 503 28 l 192 28 l 86 133 l 86 532 m 499 138 l 499 528 l 217 554 l 169 428 l 196 138 l 499 138 m 378 722 l 533 897 l 664 897 l 508 722 l 378 722 m 161 722 l 317 897 l 447 897 l 290 722 l 161 722 z "},"Œ":{"ha":694,"x_min":43,"x_max":694,"o":"m 43 792 l 147 897 l 694 897 l 694 810 l 433 810 l 433 506 l 651 506 l 651 419 l 433 419 l 433 115 l 694 115 l 694 28 l 147 28 l 43 133 l 43 792 m 347 111 l 347 810 l 169 810 l 126 693 l 151 138 l 347 111 z "},"œ":{"ha":694,"x_min":43,"x_max":660,"o":"m 43 532 l 147 636 l 547 636 l 651 532 l 651 289 l 390 289 l 390 107 l 660 158 l 621 50 l 165 24 l 43 124 l 43 532 m 304 111 l 304 550 l 169 550 l 126 428 l 151 138 l 304 111 m 568 375 l 543 528 l 390 554 l 390 375 l 568 375 z "},"Ŕ":{"ha":694,"x_min":86,"x_max":625,"o":"m 86 28 l 86 897 l 503 897 l 608 792 l 608 481 l 503 375 l 331 375 l 625 72 l 564 11 l 174 393 l 174 28 l 86 28 m 499 485 l 499 788 l 174 814 l 174 458 l 499 485 m 247 940 l 404 1114 l 533 1114 l 378 940 l 247 940 z "},"ŕ":{"ha":694,"x_min":86,"x_max":608,"o":"m 86 28 l 86 636 l 174 636 l 174 532 l 278 636 l 608 636 l 608 550 l 335 550 l 174 406 l 174 28 l 86 28 m 247 722 l 404 897 l 533 897 l 378 722 l 247 722 z "},"Ŗ":{"ha":694,"x_min":86,"x_max":625,"o":"m 217 -232 l 317 -15 l 390 -15 l 390 -128 l 286 -232 l 217 -232 m 86 28 l 86 897 l 503 897 l 608 792 l 608 481 l 503 375 l 331 375 l 625 72 l 564 11 l 174 393 l 174 28 l 86 28 m 499 485 l 499 788 l 174 814 l 174 458 l 499 485 z "},"ŗ":{"ha":694,"x_min":0,"x_max":608,"o":"m 0 -232 l 100 -15 l 174 -15 l 174 -128 l 69 -232 l 0 -232 m 86 28 l 86 636 l 174 636 l 174 493 l 335 636 l 608 636 l 608 550 l 335 550 l 174 406 l 174 28 l 86 28 z "},"Ř":{"ha":694,"x_min":86,"x_max":625,"o":"m 86 28 l 86 897 l 503 897 l 608 792 l 608 481 l 503 375 l 331 375 l 625 72 l 564 11 l 174 393 l 174 28 l 86 28 m 499 485 l 499 788 l 174 814 l 174 458 l 499 485 m 347 922 l 165 1100 l 529 1100 l 347 922 z "},"ř":{"ha":694,"x_min":86,"x_max":608,"o":"m 86 28 l 86 636 l 174 636 l 174 532 l 278 636 l 608 636 l 608 550 l 335 550 l 174 406 l 174 28 l 86 28 m 347 706 l 165 883 l 529 883 l 347 706 z "},"Ś":{"ha":694,"x_min":69,"x_max":625,"o":"m 86 792 l 196 901 l 533 875 l 625 728 l 564 663 l 451 818 l 196 788 l 196 528 l 499 497 l 608 411 l 608 124 l 482 24 l 161 50 l 69 197 l 131 263 l 243 107 l 499 138 l 499 397 l 196 428 l 86 514 l 86 792 m 247 940 l 404 1114 l 533 1114 l 378 940 l 247 940 z "},"ś":{"ha":694,"x_min":82,"x_max":629,"o":"m 86 532 l 192 636 l 513 636 l 613 514 l 196 528 l 196 397 l 533 354 l 629 203 l 533 50 l 186 24 l 82 150 l 499 138 l 499 267 l 196 297 l 86 385 l 86 532 m 247 722 l 404 897 l 533 897 l 378 722 l 247 722 z "},"Ŝ":{"ha":694,"x_min":69,"x_max":625,"o":"m 86 792 l 196 901 l 533 875 l 625 728 l 564 663 l 451 818 l 196 788 l 196 528 l 499 497 l 608 411 l 608 124 l 482 24 l 161 50 l 69 197 l 131 263 l 243 107 l 499 138 l 499 397 l 196 428 l 86 514 l 86 792 m 169 953 l 317 1114 l 378 1114 l 525 953 l 169 953 z "},"ŝ":{"ha":694,"x_min":82,"x_max":629,"o":"m 86 532 l 192 636 l 513 636 l 613 514 l 196 528 l 196 397 l 533 354 l 629 203 l 533 50 l 186 24 l 82 150 l 499 138 l 499 267 l 196 297 l 86 385 l 86 532 m 169 736 l 317 897 l 378 897 l 525 736 l 169 736 z "},"Ş":{"ha":694,"x_min":78,"x_max":625,"o":"m 86 792 l 196 901 l 533 875 l 625 728 l 564 663 l 451 818 l 196 788 l 196 528 l 499 497 l 613 406 l 586 93 l 404 15 l 325 -162 l 208 -197 l 304 -19 l 304 19 l 131 64 l 78 207 l 131 263 l 243 107 l 499 138 l 499 397 l 196 428 l 86 514 l 86 792 z "},"ş":{"ha":694,"x_min":82,"x_max":621,"o":"m 86 532 l 192 636 l 513 636 l 613 514 l 196 528 l 196 397 l 533 354 l 621 215 l 564 64 l 408 24 l 325 -162 l 208 -197 l 304 -19 l 304 28 l 182 28 l 82 150 l 499 138 l 499 267 l 196 297 l 86 385 l 86 532 z "},"Š":{"ha":694,"x_min":69,"x_max":625,"o":"m 86 792 l 196 901 l 533 875 l 625 728 l 564 663 l 451 818 l 196 788 l 196 528 l 499 497 l 608 411 l 608 124 l 482 24 l 161 50 l 69 197 l 131 263 l 243 107 l 499 138 l 499 397 l 196 428 l 86 514 l 86 792 m 347 922 l 165 1100 l 529 1100 l 347 922 z "},"š":{"ha":694,"x_min":82,"x_max":629,"o":"m 86 532 l 192 636 l 513 636 l 613 514 l 196 528 l 196 397 l 533 354 l 629 203 l 533 50 l 186 24 l 82 150 l 499 138 l 499 267 l 196 297 l 86 385 l 86 532 m 347 706 l 165 883 l 529 883 l 347 706 z "},"Ţ":{"ha":694,"x_min":86,"x_max":608,"o":"m 86 810 l 86 897 l 608 897 l 608 810 l 382 810 l 408 -81 l 343 -189 l 256 -189 l 325 -36 l 300 810 l 86 810 z "},"ţ":{"ha":694,"x_min":86,"x_max":608,"o":"m 261 636 l 261 897 l 347 897 l 347 636 l 521 636 l 521 550 l 343 550 l 369 138 l 608 111 l 608 28 l 543 28 l 456 -162 l 339 -197 l 443 -6 l 261 119 l 261 550 l 86 550 l 86 636 l 261 636 z "},"Ť":{"ha":694,"x_min":86,"x_max":608,"o":"m 86 810 l 86 897 l 608 897 l 608 810 l 390 810 l 390 28 l 304 28 l 304 810 l 86 810 m 347 922 l 165 1100 l 529 1100 l 347 922 z "},"ť":{"ha":694,"x_min":86,"x_max":608,"o":"m 261 636 l 261 897 l 347 897 l 347 636 l 521 636 l 521 550 l 343 550 l 369 138 l 608 111 l 608 28 l 364 28 l 261 133 l 261 550 l 86 550 l 86 636 l 261 636 m 304 922 l 122 1100 l 486 1100 l 304 922 z "},"Ŧ":{"ha":694,"x_min":86,"x_max":608,"o":"m 86 810 l 86 897 l 608 897 l 608 810 l 390 810 l 390 506 l 521 506 l 521 419 l 390 419 l 390 28 l 304 28 l 304 419 l 174 419 l 174 506 l 304 506 l 304 810 l 86 810 z "},"ŧ":{"ha":694,"x_min":86,"x_max":608,"o":"m 261 636 l 261 897 l 347 897 l 347 636 l 521 636 l 521 550 l 347 550 l 347 471 l 456 428 l 339 346 l 369 138 l 608 111 l 608 28 l 364 28 l 261 133 l 261 367 l 151 419 l 261 471 l 261 550 l 86 550 l 86 636 l 261 636 z "},"Ũ":{"ha":694,"x_min":86,"x_max":608,"o":"m 86 133 l 86 897 l 169 897 l 196 138 l 499 138 l 525 897 l 608 897 l 608 133 l 503 28 l 192 28 l 86 133 m 131 1057 l 186 1114 l 317 1114 l 478 971 l 478 1114 l 568 1114 l 543 961 l 386 931 l 217 1083 l 217 940 l 131 940 l 131 1057 z "},"ũ":{"ha":694,"x_min":86,"x_max":608,"o":"m 86 133 l 86 636 l 169 636 l 196 138 l 521 111 l 521 636 l 608 636 l 608 28 l 192 28 l 86 133 m 131 840 l 186 897 l 317 897 l 478 753 l 478 897 l 568 897 l 543 744 l 386 714 l 217 867 l 217 722 l 131 722 l 131 840 z "},"Ū":{"ha":694,"x_min":86,"x_max":608,"o":"m 86 133 l 86 897 l 169 897 l 196 138 l 499 138 l 525 897 l 608 897 l 608 133 l 503 28 l 192 28 l 86 133 m 174 983 l 174 1069 l 521 1069 l 521 983 l 174 983 z "},"ū":{"ha":694,"x_min":86,"x_max":608,"o":"m 86 133 l 86 636 l 169 636 l 196 138 l 521 111 l 521 636 l 608 636 l 608 28 l 192 28 l 86 133 m 174 722 l 174 810 l 521 810 l 521 722 l 174 722 z "},"Ŭ":{"ha":694,"x_min":86,"x_max":608,"o":"m 86 133 l 86 897 l 169 897 l 196 138 l 499 138 l 525 897 l 608 897 l 608 133 l 503 28 l 192 28 l 86 133 m 174 1044 l 174 1114 l 261 1114 l 261 1026 l 425 1026 l 464 1135 l 533 1069 l 425 940 l 278 940 l 174 1044 z "},"ŭ":{"ha":694,"x_min":86,"x_max":608,"o":"m 86 133 l 86 636 l 169 636 l 196 138 l 521 111 l 521 636 l 608 636 l 608 28 l 192 28 l 86 133 m 174 828 l 174 897 l 261 897 l 261 810 l 425 810 l 464 918 l 533 853 l 425 722 l 278 722 l 174 828 z "},"Ů":{"ha":694,"x_min":86,"x_max":608,"o":"m 86 133 l 86 897 l 169 897 l 196 138 l 499 138 l 525 897 l 608 897 l 608 133 l 503 28 l 192 28 l 86 133 m 204 979 l 261 1118 l 456 1092 l 456 918 l 294 888 l 204 979 m 390 940 l 390 1069 l 304 1069 l 304 940 l 390 940 z "},"ů":{"ha":694,"x_min":86,"x_max":608,"o":"m 86 133 l 86 636 l 169 636 l 196 138 l 521 111 l 521 636 l 608 636 l 608 28 l 192 28 l 86 133 m 204 763 l 261 901 l 456 875 l 456 701 l 294 671 l 204 763 m 390 722 l 390 853 l 304 853 l 304 722 l 390 722 z "},"Ű":{"ha":694,"x_min":86,"x_max":664,"o":"m 86 133 l 86 897 l 169 897 l 196 138 l 499 138 l 525 897 l 608 897 l 608 133 l 503 28 l 192 28 l 86 133 m 378 940 l 533 1114 l 664 1114 l 508 940 l 378 940 m 161 940 l 317 1114 l 447 1114 l 290 940 l 161 940 z "},"ű":{"ha":694,"x_min":86,"x_max":664,"o":"m 86 133 l 86 636 l 169 636 l 196 138 l 521 111 l 521 636 l 608 636 l 608 28 l 192 28 l 86 133 m 378 722 l 533 897 l 664 897 l 508 722 l 378 722 m 161 722 l 317 897 l 447 897 l 290 722 l 161 722 z "},"Ų":{"ha":694,"x_min":82,"x_max":608,"o":"m 108 97 l 82 897 l 169 897 l 196 138 l 499 138 l 525 897 l 608 897 l 608 138 l 325 -97 l 478 -101 l 478 -193 l 282 -167 l 282 7 l 108 97 z "},"ų":{"ha":694,"x_min":86,"x_max":608,"o":"m 86 133 l 86 636 l 169 636 l 196 138 l 521 111 l 521 636 l 608 636 l 608 15 l 456 -97 l 608 -101 l 608 -193 l 413 -167 l 421 28 l 192 28 l 86 133 z "},"Ŵ":{"ha":694,"x_min":43,"x_max":608,"o":"m 43 28 l 43 897 l 131 897 l 131 181 l 290 428 l 360 428 l 521 181 l 521 897 l 608 897 l 608 28 l 543 28 l 369 289 l 282 289 l 108 28 l 43 28 m 169 953 l 317 1114 l 378 1114 l 525 953 l 169 953 z "},"ŵ":{"ha":694,"x_min":86,"x_max":608,"o":"m 86 133 l 86 636 l 169 636 l 196 146 l 304 107 l 304 463 l 390 463 l 390 107 l 499 146 l 525 636 l 608 636 l 608 133 l 503 28 l 192 28 l 86 133 m 169 736 l 317 897 l 378 897 l 525 736 l 169 736 z "},"Ÿ":{"ha":694,"x_min":86,"x_max":608,"o":"m 86 806 l 86 897 l 151 897 l 313 506 l 382 506 l 543 897 l 608 897 l 608 806 l 390 381 l 390 28 l 304 28 l 304 381 l 86 806 m 433 940 l 433 1114 l 521 1114 l 521 940 l 433 940 m 174 940 l 174 1114 l 261 1114 l 261 940 l 174 940 z "},"Ź":{"ha":694,"x_min":86,"x_max":608,"o":"m 86 810 l 86 897 l 608 897 l 608 653 l 174 228 l 174 115 l 608 115 l 608 28 l 86 28 l 86 272 l 521 697 l 521 810 l 86 810 m 247 940 l 404 1114 l 533 1114 l 378 940 l 247 940 z "},"ź":{"ha":694,"x_min":86,"x_max":608,"o":"m 86 550 l 86 636 l 608 636 l 608 532 l 200 115 l 608 115 l 608 28 l 86 28 l 86 133 l 494 550 l 86 550 m 247 722 l 404 897 l 533 897 l 378 722 l 247 722 z "},"Ż":{"ha":694,"x_min":86,"x_max":608,"o":"m 86 810 l 86 897 l 608 897 l 608 653 l 174 228 l 174 115 l 608 115 l 608 28 l 86 28 l 86 272 l 521 697 l 521 810 l 86 810 m 304 940 l 304 1114 l 390 1114 l 390 940 l 304 940 z "},"ż":{"ha":694,"x_min":86,"x_max":608,"o":"m 86 550 l 86 636 l 608 636 l 608 532 l 200 115 l 608 115 l 608 28 l 86 28 l 86 133 l 494 550 l 86 550 m 304 722 l 304 897 l 390 897 l 390 722 l 304 722 z "},"Ž":{"ha":694,"x_min":86,"x_max":608,"o":"m 86 810 l 86 897 l 608 897 l 608 653 l 174 228 l 174 115 l 608 115 l 608 28 l 86 28 l 86 272 l 521 697 l 521 810 l 86 810 m 347 922 l 165 1100 l 529 1100 l 347 922 z "},"ž":{"ha":694,"x_min":86,"x_max":608,"o":"m 86 550 l 86 636 l 608 636 l 608 532 l 200 115 l 608 115 l 608 28 l 86 28 l 86 133 l 494 550 l 86 550 m 347 706 l 165 883 l 529 883 l 347 706 z "},"ſ":{"ha":694,"x_min":261,"x_max":608,"o":"m 261 792 l 364 897 l 608 897 l 608 814 l 369 788 l 343 28 l 261 28 l 261 792 z "},"Ɔ":{"ha":694,"x_min":69,"x_max":608,"o":"m 86 792 l 192 897 l 503 897 l 608 792 l 608 124 l 482 24 l 161 50 l 69 197 l 131 263 l 243 107 l 499 138 l 499 788 l 217 814 l 165 679 l 86 679 l 86 792 z "},"Ǝ":{"ha":694,"x_min":86,"x_max":608,"o":"m 86 810 l 86 897 l 608 897 l 608 28 l 86 28 l 86 115 l 521 115 l 521 419 l 217 419 l 217 506 l 521 506 l 521 810 l 86 810 z "},"Ə":{"ha":694,"x_min":86,"x_max":608,"o":"m 86 792 l 192 897 l 503 897 l 608 792 l 608 133 l 503 28 l 192 28 l 86 133 l 86 506 l 525 506 l 499 788 l 217 814 l 165 679 l 86 679 l 86 792 m 499 138 l 525 419 l 169 419 l 196 138 l 499 138 z "},"Ɛ":{"ha":694,"x_min":92,"x_max":625,"o":"m 96 788 l 186 901 l 533 875 l 625 728 l 564 663 l 451 818 l 196 788 l 196 528 l 478 501 l 478 424 l 196 397 l 196 138 l 451 107 l 564 263 l 625 197 l 533 50 l 213 24 l 92 119 l 96 788 z "},"ƒ":{"ha":694,"x_min":78,"x_max":617,"o":"m 304 840 l 360 897 l 568 897 l 617 763 l 551 701 l 513 810 l 390 810 l 390 550 l 521 550 l 521 463 l 394 463 l 369 -124 l 131 -150 l 78 -11 l 143 50 l 182 -58 l 304 -58 l 304 463 l 174 463 l 174 550 l 304 550 l 304 840 z "},"Ɲ":{"ha":694,"x_min":-22,"x_max":608,"o":"m 86 -85 l 86 897 l 174 897 l 174 697 l 521 358 l 521 897 l 608 897 l 608 28 l 521 28 l 521 228 l 178 563 l 151 -167 l -22 -197 l 86 -85 z "},"ƞ":{"ha":694,"x_min":86,"x_max":608,"o":"m 86 28 l 86 636 l 503 636 l 608 532 l 608 -189 l 525 -189 l 499 528 l 174 554 l 174 28 l 86 28 z "},"Ʒ":{"ha":694,"x_min":69,"x_max":613,"o":"m 86 810 l 86 897 l 608 897 l 608 779 l 390 579 l 586 485 l 613 154 l 508 24 l 161 50 l 69 197 l 131 263 l 243 107 l 499 138 l 499 440 l 217 467 l 217 524 l 494 810 l 86 810 z "},"Ș":{"ha":694,"x_min":69,"x_max":625,"o":"m 217 -232 l 317 -15 l 390 -15 l 390 -128 l 286 -232 l 217 -232 m 86 792 l 196 901 l 533 875 l 625 728 l 564 663 l 451 818 l 196 788 l 196 528 l 499 497 l 608 411 l 608 124 l 482 24 l 161 50 l 69 197 l 131 263 l 243 107 l 499 138 l 499 397 l 196 428 l 86 514 l 86 792 z "},"ș":{"ha":694,"x_min":82,"x_max":629,"o":"m 217 -232 l 317 -15 l 390 -15 l 390 -128 l 286 -232 l 217 -232 m 86 532 l 192 636 l 513 636 l 613 514 l 196 528 l 196 397 l 533 354 l 629 203 l 533 50 l 186 24 l 82 150 l 499 138 l 499 267 l 196 297 l 86 385 l 86 532 z "},"Ț":{"ha":694,"x_min":86,"x_max":608,"o":"m 217 -232 l 317 -15 l 390 -15 l 390 -128 l 286 -232 l 217 -232 m 86 810 l 86 897 l 608 897 l 608 810 l 390 810 l 390 28 l 304 28 l 304 810 l 86 810 z "},"ț":{"ha":694,"x_min":86,"x_max":608,"o":"m 347 -232 l 447 -15 l 521 -15 l 521 -128 l 417 -232 l 347 -232 m 261 636 l 261 897 l 347 897 l 347 636 l 521 636 l 521 550 l 343 550 l 369 138 l 608 111 l 608 28 l 364 28 l 261 133 l 261 550 l 86 550 l 86 636 l 261 636 z "},"Ȳ":{"ha":694,"x_min":86,"x_max":608,"o":"m 86 806 l 86 897 l 151 897 l 313 506 l 382 506 l 543 897 l 608 897 l 608 806 l 390 381 l 390 28 l 304 28 l 304 381 l 86 806 m 174 983 l 174 1069 l 521 1069 l 521 983 l 174 983 z "},"ȳ":{"ha":694,"x_min":86,"x_max":608,"o":"m 86 133 l 86 636 l 169 636 l 196 138 l 521 111 l 521 636 l 608 636 l 608 -85 l 503 -189 l 131 -189 l 131 -106 l 490 -81 l 529 28 l 192 28 l 86 133 m 174 722 l 174 810 l 521 810 l 521 722 l 174 722 z "},"ȷ":{"ha":694,"x_min":113,"x_max":564,"o":"m 390 550 l 390 636 l 564 636 l 564 -93 l 439 -193 l 204 -167 l 113 -19 l 174 46 l 286 -111 l 456 -81 l 482 550 l 390 550 z "},"ɔ":{"ha":694,"x_min":74,"x_max":608,"o":"m 74 506 l 182 636 l 503 636 l 608 532 l 608 133 l 503 28 l 182 28 l 74 158 l 131 215 l 256 111 l 499 138 l 499 528 l 256 554 l 131 450 l 74 506 z "},"ɘ":{"ha":694,"x_min":86,"x_max":608,"o":"m 86 532 l 192 636 l 503 636 l 608 532 l 608 124 l 482 24 l 117 50 l 86 142 l 494 138 l 525 289 l 86 289 l 86 532 m 525 375 l 499 528 l 235 554 l 174 493 l 174 375 l 525 375 z "},"ə":{"ha":694,"x_min":86,"x_max":608,"o":"m 86 579 l 143 636 l 503 636 l 608 532 l 608 133 l 503 28 l 192 28 l 86 133 l 86 375 l 525 375 l 494 528 l 86 524 l 86 579 m 499 138 l 525 289 l 169 289 l 196 138 l 499 138 z "},"ɛ":{"ha":694,"x_min":96,"x_max":621,"o":"m 96 528 l 182 636 l 513 636 l 621 506 l 564 450 l 439 554 l 196 528 l 196 397 l 433 371 l 433 293 l 196 267 l 196 138 l 439 111 l 564 215 l 621 158 l 513 28 l 182 28 l 96 138 l 96 528 z "},"ɲ":{"ha":694,"x_min":-22,"x_max":608,"o":"m 86 -85 l 86 636 l 503 636 l 608 532 l 608 28 l 525 28 l 499 528 l 178 554 l 151 -167 l -22 -197 l 86 -85 z "},"ʒ":{"ha":694,"x_min":74,"x_max":613,"o":"m 86 550 l 86 636 l 608 636 l 608 519 l 390 319 l 586 224 l 613 -62 l 513 -189 l 182 -189 l 74 -58 l 131 -1 l 256 -106 l 499 -81 l 499 181 l 217 207 l 217 263 l 494 550 l 86 550 z "},"ʻ":{"ha":694,"x_min":304,"x_max":478,"o":"m 304 1010 l 408 1114 l 478 1114 l 378 897 l 304 897 l 304 1010 z "},"ʼ":{"ha":694,"x_min":217,"x_max":390,"o":"m 217 897 l 317 1114 l 390 1114 l 390 1000 l 286 897 l 217 897 z "},"ʽ":{"ha":694,"x_min":304,"x_max":478,"o":"m 304 1000 l 304 1114 l 378 1114 l 478 897 l 408 897 l 304 1000 z "},"ˆ":{"ha":694,"x_min":169,"x_max":525,"o":"m 169 953 l 317 1114 l 378 1114 l 525 953 l 169 953 z "},"ˇ":{"ha":694,"x_min":165,"x_max":529,"o":"m 347 922 l 165 1100 l 529 1100 l 347 922 z "},"˘":{"ha":694,"x_min":174,"x_max":533,"o":"m 174 1044 l 174 1114 l 261 1114 l 261 1026 l 425 1026 l 464 1135 l 533 1069 l 425 940 l 278 940 l 174 1044 z "},"˙":{"ha":694,"x_min":304,"x_max":390,"o":"m 304 940 l 304 1114 l 390 1114 l 390 940 l 304 940 z "},"˛":{"ha":694,"x_min":382,"x_max":625,"o":"m 382 -97 l 429 28 l 625 28 l 456 -97 l 608 -101 l 608 -189 l 439 -189 l 382 -97 z "},"˜":{"ha":694,"x_min":131,"x_max":568,"o":"m 131 1057 l 186 1114 l 317 1114 l 478 971 l 478 1114 l 568 1114 l 543 961 l 386 931 l 217 1083 l 217 940 l 131 940 l 131 1057 z "},"˝":{"ha":694,"x_min":161,"x_max":664,"o":"m 378 940 l 533 1114 l 664 1114 l 508 940 l 378 940 m 161 940 l 317 1114 l 447 1114 l 290 940 l 161 940 z "},"̀":{"ha":694,"x_min":161,"x_max":447,"o":"m 317 940 l 161 1114 l 290 1114 l 447 940 l 317 940 z "},"́":{"ha":694,"x_min":247,"x_max":533,"o":"m 247 940 l 404 1114 l 533 1114 l 378 940 l 247 940 z "},"̂":{"ha":694,"x_min":169,"x_max":525,"o":"m 169 953 l 317 1114 l 378 1114 l 525 953 l 169 953 z "},"̃":{"ha":694,"x_min":131,"x_max":568,"o":"m 131 1057 l 186 1114 l 317 1114 l 478 971 l 478 1114 l 568 1114 l 543 961 l 386 931 l 217 1083 l 217 940 l 131 940 l 131 1057 z "},"̄":{"ha":694,"x_min":174,"x_max":521,"o":"m 174 983 l 174 1069 l 521 1069 l 521 983 l 174 983 z "},"̅":{"ha":694,"x_min":86,"x_max":608,"o":"m 86 983 l 86 1069 l 608 1069 l 608 983 l 86 983 z "},"̆":{"ha":694,"x_min":174,"x_max":533,"o":"m 174 1044 l 174 1114 l 261 1114 l 261 1026 l 425 1026 l 464 1135 l 533 1069 l 425 940 l 278 940 l 174 1044 z "},"̇":{"ha":694,"x_min":304,"x_max":390,"o":"m 304 940 l 304 1114 l 390 1114 l 390 940 l 304 940 z "},"̈":{"ha":694,"x_min":174,"x_max":521,"o":"m 433 940 l 433 1114 l 521 1114 l 521 940 l 433 940 m 174 940 l 174 1114 l 261 1114 l 261 940 l 174 940 z "},"̊":{"ha":694,"x_min":204,"x_max":456,"o":"m 204 979 l 261 1118 l 456 1092 l 456 918 l 294 888 l 204 979 m 390 940 l 390 1069 l 304 1069 l 304 940 l 390 940 z "},"̋":{"ha":694,"x_min":161,"x_max":664,"o":"m 378 940 l 533 1114 l 664 1114 l 508 940 l 378 940 m 161 940 l 317 1114 l 447 1114 l 290 940 l 161 940 z "},"̌":{"ha":694,"x_min":165,"x_max":529,"o":"m 347 922 l 165 1100 l 529 1100 l 347 922 z "},"̩":{"ha":694,"x_min":304,"x_max":390,"o":"m 304 -189 l 304 -15 l 390 -15 l 390 -189 l 304 -189 z "},"΄":{"ha":694,"x_min":-12,"x_max":274,"o":"m -12 897 l 143 1069 l 274 1069 l 117 897 l -12 897 z "},"΅":{"ha":694,"x_min":174,"x_max":533,"o":"m 433 722 l 433 897 l 521 897 l 521 722 l 433 722 m 174 722 l 174 897 l 261 897 l 261 722 l 174 722 m 247 940 l 404 1114 l 533 1114 l 378 940 l 247 940 z "},"Ά":{"ha":694,"x_min":-12,"x_max":608,"o":"m 86 792 l 192 897 l 503 897 l 608 792 l 608 28 l 521 28 l 521 375 l 174 375 l 174 28 l 86 28 l 86 792 m 525 463 l 499 788 l 235 814 l 174 753 l 174 463 l 525 463 m -12 897 l 143 1069 l 274 1069 l 117 897 l -12 897 z "},"·":{"ha":694,"x_min":304,"x_max":390,"o":"m 304 463 l 304 636 l 390 636 l 390 463 l 304 463 z "},"Έ":{"ha":694,"x_min":-12,"x_max":608,"o":"m -12 897 l 143 1069 l 274 1069 l 117 897 l 608 897 l 608 810 l 174 810 l 174 506 l 478 506 l 478 419 l 174 419 l 174 115 l 608 115 l 608 28 l 86 28 l 86 897 l -12 897 z "},"Ή":{"ha":694,"x_min":-12,"x_max":608,"o":"m -12 897 l 143 1069 l 278 1069 l 151 944 l 182 506 l 521 506 l 521 897 l 608 897 l 608 28 l 521 28 l 521 419 l 174 419 l 174 28 l 86 28 l 86 897 l -12 897 z "},"Ί":{"ha":694,"x_min":-12,"x_max":478,"o":"m 217 810 l 217 897 l 478 897 l 478 810 l 390 810 l 390 115 l 478 115 l 478 28 l 217 28 l 217 115 l 304 115 l 304 810 l 217 810 m -12 897 l 143 1069 l 274 1069 l 117 897 l -12 897 z "},"Ό":{"ha":694,"x_min":-12,"x_max":608,"o":"m 86 792 l 192 897 l 503 897 l 608 792 l 608 133 l 503 28 l 192 28 l 86 133 l 86 792 m 499 138 l 499 788 l 217 814 l 169 693 l 196 138 l 499 138 m -12 897 l 143 1069 l 274 1069 l 117 897 l -12 897 z "},"Ύ":{"ha":694,"x_min":-12,"x_max":651,"o":"m 131 806 l 131 897 l 196 897 l 356 506 l 425 506 l 586 897 l 651 897 l 651 806 l 433 381 l 433 28 l 347 28 l 347 381 l 131 806 m -12 897 l 143 1069 l 274 1069 l 117 897 l -12 897 z "},"Ώ":{"ha":694,"x_min":-12,"x_max":608,"o":"m 86 792 l 192 897 l 503 897 l 608 792 l 608 297 l 478 193 l 478 115 l 608 115 l 608 28 l 390 28 l 390 236 l 525 346 l 499 788 l 196 788 l 169 346 l 304 236 l 304 28 l 86 28 l 86 115 l 217 115 l 217 193 l 86 297 l 86 792 m -12 897 l 143 1069 l 274 1069 l 117 897 l -12 897 z "},"ΐ":{"ha":694,"x_min":131,"x_max":521,"o":"m 174 550 l 174 636 l 347 636 l 347 150 l 521 107 l 521 28 l 364 28 l 261 133 l 261 550 l 174 550 m 390 722 l 390 897 l 478 897 l 478 722 l 390 722 m 131 722 l 131 897 l 217 897 l 217 722 l 131 722 m 204 940 l 360 1114 l 490 1114 l 335 940 l 204 940 z "},"Α":{"ha":694,"x_min":86,"x_max":608,"o":"m 86 792 l 192 897 l 503 897 l 608 792 l 608 28 l 521 28 l 521 375 l 174 375 l 174 28 l 86 28 l 86 792 m 525 463 l 499 788 l 235 814 l 174 753 l 174 463 l 525 463 z "},"Β":{"ha":694,"x_min":86,"x_max":608,"o":"m 86 28 l 86 897 l 503 897 l 608 792 l 608 610 l 503 506 l 608 401 l 608 133 l 503 28 l 86 28 m 499 571 l 499 788 l 174 814 l 174 544 l 499 571 m 529 336 l 425 463 l 174 463 l 174 111 l 499 138 l 529 336 z "},"Γ":{"ha":694,"x_min":86,"x_max":608,"o":"m 86 28 l 86 897 l 608 897 l 608 810 l 174 810 l 174 28 l 86 28 z "},"Δ":{"ha":694,"x_min":86,"x_max":608,"o":"m 86 176 l 321 897 l 374 897 l 608 176 l 608 28 l 86 28 l 86 176 m 521 172 l 374 636 l 321 636 l 174 172 l 174 115 l 521 115 l 521 172 z "},"Ε":{"ha":694,"x_min":86,"x_max":608,"o":"m 86 28 l 86 897 l 608 897 l 608 810 l 174 810 l 174 506 l 478 506 l 478 419 l 174 419 l 174 115 l 608 115 l 608 28 l 86 28 z "},"Ζ":{"ha":694,"x_min":86,"x_max":608,"o":"m 86 810 l 86 897 l 608 897 l 608 653 l 174 228 l 174 115 l 608 115 l 608 28 l 86 28 l 86 272 l 521 697 l 521 810 l 86 810 z "},"Η":{"ha":694,"x_min":86,"x_max":608,"o":"m 86 28 l 86 897 l 174 897 l 174 506 l 521 506 l 521 897 l 608 897 l 608 28 l 521 28 l 521 419 l 174 419 l 174 28 l 86 28 z "},"Θ":{"ha":694,"x_min":86,"x_max":608,"o":"m 217 419 l 217 506 l 478 506 l 478 419 l 217 419 m 86 792 l 192 897 l 503 897 l 608 792 l 608 133 l 503 28 l 192 28 l 86 133 l 86 792 m 499 138 l 499 788 l 217 814 l 169 693 l 196 138 l 499 138 z "},"Ι":{"ha":694,"x_min":217,"x_max":478,"o":"m 217 810 l 217 897 l 478 897 l 478 810 l 390 810 l 390 115 l 478 115 l 478 28 l 217 28 l 217 115 l 304 115 l 304 810 l 217 810 z "},"Κ":{"ha":694,"x_min":86,"x_max":625,"o":"m 86 28 l 86 897 l 174 897 l 174 532 l 564 914 l 625 853 l 243 463 l 625 72 l 564 11 l 174 393 l 174 28 l 86 28 z "},"Λ":{"ha":694,"x_min":86,"x_max":608,"o":"m 86 138 l 317 897 l 378 897 l 608 138 l 608 28 l 539 28 l 382 636 l 313 636 l 156 28 l 86 28 l 86 138 z "},"Μ":{"ha":694,"x_min":43,"x_max":608,"o":"m 43 28 l 43 897 l 108 897 l 282 636 l 369 636 l 543 897 l 608 897 l 608 28 l 521 28 l 521 744 l 360 497 l 290 497 l 131 744 l 131 28 l 43 28 z "},"Ν":{"ha":694,"x_min":86,"x_max":608,"o":"m 86 28 l 86 897 l 174 897 l 174 697 l 521 358 l 521 897 l 608 897 l 608 28 l 521 28 l 521 228 l 174 567 l 174 28 l 86 28 z "},"Ξ":{"ha":694,"x_min":86,"x_max":608,"o":"m 86 28 l 86 115 l 608 115 l 608 28 l 86 28 m 174 419 l 174 506 l 521 506 l 521 419 l 174 419 m 86 810 l 86 897 l 608 897 l 608 810 l 86 810 z "},"Ο":{"ha":694,"x_min":86,"x_max":608,"o":"m 86 792 l 192 897 l 503 897 l 608 792 l 608 133 l 503 28 l 192 28 l 86 133 l 86 792 m 499 138 l 499 788 l 217 814 l 169 693 l 196 138 l 499 138 z "},"Π":{"ha":694,"x_min":86,"x_max":608,"o":"m 86 28 l 86 897 l 608 897 l 608 28 l 521 28 l 521 810 l 174 810 l 174 28 l 86 28 z "},"Ρ":{"ha":694,"x_min":86,"x_max":608,"o":"m 86 28 l 86 897 l 503 897 l 608 792 l 608 481 l 503 375 l 174 375 l 174 28 l 86 28 m 499 485 l 499 788 l 174 814 l 174 458 l 499 485 z "},"Σ":{"ha":694,"x_min":86,"x_max":608,"o":"m 86 792 l 86 897 l 608 897 l 608 810 l 200 810 l 539 463 l 200 115 l 608 115 l 608 28 l 86 28 l 86 133 l 408 463 l 86 792 z "},"Τ":{"ha":694,"x_min":86,"x_max":608,"o":"m 86 810 l 86 897 l 608 897 l 608 810 l 390 810 l 390 28 l 304 28 l 304 810 l 86 810 z "},"Υ":{"ha":694,"x_min":86,"x_max":608,"o":"m 86 806 l 86 897 l 151 897 l 313 506 l 382 506 l 543 897 l 608 897 l 608 806 l 390 381 l 390 28 l 304 28 l 304 381 l 86 806 z "},"Φ":{"ha":694,"x_min":108,"x_max":586,"o":"m 304 832 l 304 897 l 390 897 l 390 832 l 586 744 l 586 189 l 413 93 l 347 7 l 282 93 l 108 189 l 108 744 l 304 832 m 304 193 l 304 722 l 213 722 l 169 601 l 196 232 l 304 193 m 499 232 l 499 693 l 390 732 l 390 193 l 499 232 z "},"Χ":{"ha":694,"x_min":86,"x_max":608,"o":"m 86 857 l 86 897 l 161 897 l 317 550 l 378 550 l 533 897 l 608 897 l 608 857 l 417 463 l 608 68 l 608 28 l 533 28 l 378 375 l 317 375 l 161 28 l 86 28 l 86 68 l 278 463 l 86 857 z "},"Ψ":{"ha":694,"x_min":82,"x_max":613,"o":"m 108 267 l 82 897 l 169 897 l 196 319 l 304 281 l 304 897 l 390 897 l 390 281 l 499 319 l 525 897 l 613 897 l 586 267 l 390 181 l 390 28 l 304 28 l 304 181 l 108 267 z "},"Ω":{"ha":694,"x_min":86,"x_max":608,"o":"m 86 792 l 192 897 l 503 897 l 608 792 l 608 297 l 478 193 l 478 115 l 608 115 l 608 28 l 390 28 l 390 236 l 525 346 l 499 788 l 196 788 l 169 346 l 304 236 l 304 28 l 86 28 l 86 115 l 217 115 l 217 193 l 86 297 l 86 792 z "},"Ϊ":{"ha":694,"x_min":174,"x_max":521,"o":"m 217 810 l 217 897 l 478 897 l 478 810 l 390 810 l 390 115 l 478 115 l 478 28 l 217 28 l 217 115 l 304 115 l 304 810 l 217 810 m 433 940 l 433 1114 l 521 1114 l 521 940 l 433 940 m 174 940 l 174 1114 l 261 1114 l 261 940 l 174 940 z "},"Ϋ":{"ha":694,"x_min":86,"x_max":608,"o":"m 86 806 l 86 897 l 151 897 l 313 506 l 382 506 l 543 897 l 608 897 l 608 806 l 390 381 l 390 28 l 304 28 l 304 381 l 86 806 m 433 940 l 433 1114 l 521 1114 l 521 940 l 433 940 m 174 940 l 174 1114 l 261 1114 l 261 940 l 174 940 z "},"ά":{"ha":694,"x_min":43,"x_max":608,"o":"m 43 532 l 147 636 l 608 619 l 608 554 l 521 501 l 521 163 l 608 111 l 608 46 l 161 28 l 43 124 l 43 532 m 433 111 l 433 550 l 169 550 l 126 428 l 151 138 l 433 111 m 247 722 l 404 897 l 533 897 l 378 722 l 247 722 z "},"έ":{"ha":694,"x_min":96,"x_max":621,"o":"m 96 528 l 182 636 l 513 636 l 621 506 l 564 450 l 439 554 l 196 528 l 196 397 l 433 371 l 433 293 l 196 267 l 196 138 l 439 111 l 564 215 l 621 158 l 513 28 l 182 28 l 96 138 l 96 528 m 247 722 l 404 897 l 533 897 l 378 722 l 247 722 z "},"ή":{"ha":694,"x_min":86,"x_max":608,"o":"m 86 28 l 86 636 l 503 636 l 608 532 l 608 -189 l 525 -189 l 499 528 l 174 554 l 174 28 l 86 28 m 247 722 l 404 897 l 533 897 l 378 722 l 247 722 z "},"ί":{"ha":694,"x_min":174,"x_max":521,"o":"m 174 550 l 174 636 l 347 636 l 347 150 l 521 107 l 521 28 l 364 28 l 261 133 l 261 550 l 174 550 m 204 722 l 360 897 l 490 897 l 335 722 l 204 722 z "},"ΰ":{"ha":694,"x_min":86,"x_max":608,"o":"m 86 133 l 86 636 l 169 636 l 196 138 l 499 138 l 525 636 l 608 636 l 608 133 l 503 28 l 192 28 l 86 133 m 433 722 l 433 897 l 521 897 l 521 722 l 433 722 m 174 722 l 174 897 l 261 897 l 261 722 l 174 722 m 247 940 l 404 1114 l 533 1114 l 378 940 l 247 940 z "},"α":{"ha":694,"x_min":43,"x_max":608,"o":"m 43 532 l 147 636 l 608 619 l 608 554 l 521 501 l 521 163 l 608 111 l 608 46 l 161 28 l 43 124 l 43 532 m 433 111 l 433 550 l 169 550 l 126 428 l 151 138 l 433 111 z "},"β":{"ha":694,"x_min":86,"x_max":608,"o":"m 86 840 l 143 897 l 469 897 l 572 767 l 517 471 l 608 415 l 608 133 l 503 28 l 174 28 l 174 -189 l 86 -189 l 86 840 m 456 571 l 456 788 l 174 814 l 174 544 l 456 571 m 529 336 l 425 463 l 174 463 l 174 111 l 499 138 l 529 336 z "},"γ":{"ha":694,"x_min":86,"x_max":608,"o":"m 86 528 l 86 636 l 151 636 l 308 203 l 386 203 l 543 636 l 608 636 l 608 528 l 390 64 l 390 -189 l 304 -189 l 304 64 l 86 528 z "},"δ":{"ha":694,"x_min":86,"x_max":608,"o":"m 131 822 l 131 897 l 521 897 l 521 810 l 286 810 l 608 481 l 608 133 l 503 28 l 192 28 l 86 133 l 86 501 l 300 667 l 131 822 m 499 138 l 499 528 l 217 554 l 169 428 l 196 138 l 499 138 z "},"ε":{"ha":694,"x_min":96,"x_max":621,"o":"m 96 528 l 182 636 l 513 636 l 621 506 l 564 450 l 439 554 l 196 528 l 196 397 l 433 371 l 433 293 l 196 267 l 196 138 l 439 111 l 564 215 l 621 158 l 513 28 l 182 28 l 96 138 l 96 528 z "},"ζ":{"ha":694,"x_min":86,"x_max":625,"o":"m 86 810 l 86 897 l 608 897 l 608 840 l 169 375 l 196 138 l 533 93 l 625 -50 l 513 -189 l 390 -189 l 390 -111 l 525 -58 l 474 28 l 192 28 l 86 133 l 86 419 l 447 810 l 86 810 z "},"η":{"ha":694,"x_min":86,"x_max":608,"o":"m 86 28 l 86 636 l 503 636 l 608 532 l 608 -189 l 525 -189 l 499 528 l 174 554 l 174 28 l 86 28 z "},"θ":{"ha":694,"x_min":131,"x_max":564,"o":"m 131 792 l 235 897 l 460 897 l 564 792 l 564 133 l 460 28 l 235 28 l 131 133 l 131 792 m 482 506 l 456 788 l 278 814 l 217 753 l 217 506 l 482 506 m 456 138 l 482 419 l 213 419 l 239 138 l 456 138 z "},"ι":{"ha":694,"x_min":174,"x_max":521,"o":"m 174 550 l 174 636 l 347 636 l 347 150 l 521 107 l 521 28 l 364 28 l 261 133 l 261 550 l 174 550 z "},"κ":{"ha":694,"x_min":131,"x_max":625,"o":"m 131 28 l 131 636 l 217 636 l 217 358 l 503 636 l 625 636 l 331 332 l 625 28 l 503 28 l 217 306 l 217 28 l 131 28 z "},"λ":{"ha":694,"x_min":86,"x_max":608,"o":"m 217 849 l 217 897 l 286 897 l 443 571 l 608 103 l 608 28 l 533 28 l 378 550 l 317 550 l 161 28 l 86 28 l 86 111 l 300 697 l 217 849 z "},"μ":{"ha":694,"x_min":86,"x_max":608,"o":"m 86 -189 l 86 636 l 174 636 l 174 115 l 360 115 l 521 258 l 521 636 l 608 636 l 608 28 l 521 28 l 521 133 l 417 28 l 174 28 l 174 -189 l 86 -189 z "},"ν":{"ha":694,"x_min":86,"x_max":608,"o":"m 86 571 l 86 636 l 156 636 l 308 158 l 386 158 l 539 636 l 608 636 l 608 571 l 417 28 l 278 28 l 86 571 z "},"ξ":{"ha":694,"x_min":86,"x_max":625,"o":"m 86 792 l 192 897 l 608 897 l 608 814 l 196 788 l 196 571 l 521 544 l 521 463 l 269 463 l 165 336 l 196 138 l 533 93 l 625 -50 l 513 -189 l 390 -189 l 390 -111 l 525 -58 l 474 28 l 192 28 l 86 133 l 86 401 l 192 506 l 86 610 l 86 792 z "},"ο":{"ha":694,"x_min":86,"x_max":608,"o":"m 86 532 l 192 636 l 503 636 l 608 532 l 608 133 l 503 28 l 192 28 l 86 133 l 86 532 m 499 138 l 499 528 l 217 554 l 169 428 l 196 138 l 499 138 z "},"π":{"ha":694,"x_min":86,"x_max":608,"o":"m 86 28 l 86 636 l 608 636 l 608 28 l 521 28 l 521 550 l 174 550 l 174 28 l 86 28 z "},"ρ":{"ha":694,"x_min":86,"x_max":608,"o":"m 86 532 l 192 636 l 503 636 l 608 532 l 608 133 l 503 28 l 174 28 l 174 -189 l 86 -189 l 86 532 m 499 138 l 499 528 l 235 554 l 174 493 l 174 111 l 499 138 z "},"ς":{"ha":694,"x_min":86,"x_max":625,"o":"m 86 532 l 192 636 l 513 636 l 621 506 l 564 450 l 439 554 l 196 528 l 196 138 l 533 93 l 625 -50 l 513 -189 l 390 -189 l 390 -111 l 525 -58 l 474 28 l 192 28 l 86 133 l 86 532 z "},"σ":{"ha":694,"x_min":86,"x_max":651,"o":"m 86 532 l 192 636 l 651 636 l 651 550 l 503 550 l 608 444 l 608 133 l 503 28 l 192 28 l 86 133 l 86 532 m 525 385 l 378 550 l 213 550 l 169 428 l 196 138 l 499 138 l 525 385 z "},"τ":{"ha":694,"x_min":86,"x_max":608,"o":"m 86 550 l 86 636 l 608 636 l 608 550 l 390 550 l 390 150 l 564 107 l 564 28 l 408 28 l 304 133 l 304 550 l 86 550 z "},"υ":{"ha":694,"x_min":86,"x_max":608,"o":"m 86 133 l 86 636 l 169 636 l 196 138 l 499 138 l 525 636 l 608 636 l 608 133 l 503 28 l 192 28 l 86 133 z "},"φ":{"ha":694,"x_min":82,"x_max":586,"o":"m 82 514 l 182 636 l 261 636 l 261 567 l 169 475 l 196 146 l 304 107 l 304 597 l 447 649 l 586 563 l 586 93 l 390 7 l 390 -189 l 304 -189 l 304 7 l 108 93 l 82 514 m 499 146 l 499 519 l 390 558 l 390 107 l 499 146 z "},"χ":{"ha":694,"x_min":86,"x_max":608,"o":"m 86 589 l 86 636 l 161 636 l 317 289 l 378 289 l 533 636 l 608 636 l 608 589 l 425 228 l 608 -150 l 608 -189 l 533 -189 l 378 158 l 317 158 l 161 -189 l 86 -189 l 86 -150 l 269 228 l 86 589 z "},"ψ":{"ha":694,"x_min":82,"x_max":613,"o":"m 108 93 l 82 636 l 169 636 l 196 146 l 304 107 l 304 636 l 390 636 l 390 107 l 499 146 l 525 636 l 613 636 l 586 93 l 390 7 l 390 -189 l 304 -189 l 304 7 l 108 93 z "},"ω":{"ha":694,"x_min":86,"x_max":608,"o":"m 86 532 l 192 636 l 261 636 l 261 567 l 169 475 l 196 138 l 282 138 l 308 463 l 386 463 l 413 158 l 499 138 l 525 467 l 421 593 l 478 649 l 608 540 l 608 124 l 499 42 l 196 42 l 86 124 l 86 532 z "},"ϊ":{"ha":694,"x_min":131,"x_max":521,"o":"m 174 550 l 174 636 l 347 636 l 347 150 l 521 107 l 521 28 l 364 28 l 261 133 l 261 550 l 174 550 m 390 722 l 390 897 l 478 897 l 478 722 l 390 722 m 131 722 l 131 897 l 217 897 l 217 722 l 131 722 z "},"ϋ":{"ha":694,"x_min":86,"x_max":608,"o":"m 86 133 l 86 636 l 169 636 l 196 138 l 499 138 l 525 636 l 608 636 l 608 133 l 503 28 l 192 28 l 86 133 m 433 722 l 433 897 l 521 897 l 521 722 l 433 722 m 174 722 l 174 897 l 261 897 l 261 722 l 174 722 z "},"ό":{"ha":694,"x_min":86,"x_max":608,"o":"m 86 532 l 192 636 l 503 636 l 608 532 l 608 133 l 503 28 l 192 28 l 86 133 l 86 532 m 499 138 l 499 528 l 217 554 l 169 428 l 196 138 l 499 138 m 247 722 l 404 897 l 533 897 l 378 722 l 247 722 z "},"ύ":{"ha":694,"x_min":86,"x_max":608,"o":"m 86 133 l 86 636 l 169 636 l 196 138 l 499 138 l 525 636 l 608 636 l 608 133 l 503 28 l 192 28 l 86 133 m 247 722 l 404 897 l 533 897 l 378 722 l 247 722 z "},"ώ":{"ha":694,"x_min":86,"x_max":608,"o":"m 86 532 l 192 636 l 261 636 l 261 567 l 169 475 l 196 138 l 282 138 l 308 463 l 386 463 l 413 158 l 499 138 l 525 467 l 421 593 l 478 649 l 608 540 l 608 124 l 499 42 l 196 42 l 86 124 l 86 532 m 247 722 l 404 897 l 533 897 l 378 722 l 247 722 z "},"ϳ":{"ha":694,"x_min":113,"x_max":564,"o":"m 390 550 l 390 636 l 564 636 l 564 -93 l 439 -193 l 204 -167 l 113 -19 l 174 46 l 286 -111 l 456 -81 l 482 550 l 390 550 m 478 722 l 478 897 l 564 897 l 564 722 l 478 722 z "},"ϴ":{"ha":694,"x_min":86,"x_max":608,"o":"m 86 792 l 192 897 l 503 897 l 608 792 l 608 133 l 503 28 l 192 28 l 86 133 l 86 792 m 525 506 l 499 788 l 235 814 l 174 753 l 174 506 l 525 506 m 499 138 l 525 419 l 169 419 l 196 138 l 499 138 z "},"Ѐ":{"ha":694,"x_min":86,"x_max":608,"o":"m 86 28 l 86 897 l 608 897 l 608 810 l 174 810 l 174 506 l 478 506 l 478 419 l 174 419 l 174 115 l 608 115 l 608 28 l 86 28 m 317 940 l 161 1114 l 290 1114 l 447 940 l 317 940 z "},"Ё":{"ha":694,"x_min":86,"x_max":608,"o":"m 86 28 l 86 897 l 608 897 l 608 810 l 174 810 l 174 506 l 478 506 l 478 419 l 174 419 l 174 115 l 608 115 l 608 28 l 86 28 m 433 940 l 433 1114 l 521 1114 l 521 940 l 433 940 m 174 940 l 174 1114 l 261 1114 l 261 940 l 174 940 z "},"Ђ":{"ha":694,"x_min":0,"x_max":608,"o":"m 0 810 l 0 897 l 347 897 l 347 810 l 217 810 l 217 593 l 503 593 l 608 489 l 608 133 l 503 28 l 347 28 l 347 107 l 525 150 l 499 485 l 217 510 l 217 28 l 131 28 l 131 810 l 0 810 z "},"Ѓ":{"ha":694,"x_min":86,"x_max":608,"o":"m 86 28 l 86 897 l 608 897 l 608 810 l 174 810 l 174 28 l 86 28 m 247 940 l 404 1114 l 533 1114 l 378 940 l 247 940 z "},"Є":{"ha":694,"x_min":86,"x_max":625,"o":"m 86 792 l 196 901 l 533 875 l 625 728 l 564 663 l 451 818 l 196 788 l 169 506 l 478 506 l 478 419 l 169 419 l 196 138 l 451 107 l 564 263 l 625 197 l 533 50 l 213 24 l 86 124 l 86 792 z "},"Ѕ":{"ha":694,"x_min":69,"x_max":625,"o":"m 86 792 l 196 901 l 533 875 l 625 728 l 564 663 l 451 818 l 196 788 l 196 528 l 499 497 l 608 411 l 608 124 l 482 24 l 161 50 l 69 197 l 131 263 l 243 107 l 499 138 l 499 397 l 196 428 l 86 514 l 86 792 z "},"І":{"ha":694,"x_min":217,"x_max":478,"o":"m 217 810 l 217 897 l 478 897 l 478 810 l 390 810 l 390 115 l 478 115 l 478 28 l 217 28 l 217 115 l 304 115 l 304 810 l 217 810 z "},"Ї":{"ha":694,"x_min":174,"x_max":521,"o":"m 217 810 l 217 897 l 478 897 l 478 810 l 390 810 l 390 115 l 478 115 l 478 28 l 217 28 l 217 115 l 304 115 l 304 810 l 217 810 m 433 940 l 433 1114 l 521 1114 l 521 940 l 433 940 m 174 940 l 174 1114 l 261 1114 l 261 940 l 174 940 z "},"Ј":{"ha":694,"x_min":86,"x_max":651,"o":"m 390 810 l 390 897 l 651 897 l 651 810 l 564 810 l 564 133 l 460 28 l 192 28 l 86 133 l 86 289 l 165 289 l 213 111 l 456 138 l 482 810 l 390 810 z "},"Љ":{"ha":694,"x_min":22,"x_max":651,"o":"m 53 788 l 139 897 l 390 897 l 390 593 l 547 593 l 651 489 l 651 133 l 547 28 l 304 28 l 304 814 l 151 788 l 108 58 l 22 28 l 53 788 m 543 138 l 543 485 l 390 510 l 390 111 l 543 138 z "},"Њ":{"ha":694,"x_min":43,"x_max":651,"o":"m 43 28 l 43 897 l 131 897 l 131 506 l 304 506 l 304 897 l 390 897 l 390 593 l 547 593 l 651 489 l 651 133 l 547 28 l 304 28 l 304 419 l 131 419 l 131 28 l 43 28 m 543 138 l 543 485 l 390 510 l 390 111 l 543 138 z "},"Ћ":{"ha":694,"x_min":0,"x_max":608,"o":"m 0 810 l 0 897 l 347 897 l 347 810 l 217 810 l 217 593 l 503 593 l 608 489 l 608 28 l 525 28 l 499 485 l 217 510 l 217 28 l 131 28 l 131 810 l 0 810 z "},"Ќ":{"ha":694,"x_min":86,"x_max":625,"o":"m 86 28 l 86 897 l 174 897 l 174 532 l 564 914 l 625 853 l 243 463 l 625 72 l 564 11 l 174 393 l 174 28 l 86 28 m 247 940 l 404 1114 l 533 1114 l 378 940 l 247 940 z "},"Ѝ":{"ha":694,"x_min":86,"x_max":608,"o":"m 86 28 l 86 897 l 174 897 l 174 358 l 521 697 l 521 897 l 608 897 l 608 28 l 521 28 l 521 567 l 174 228 l 174 28 l 86 28 m 317 940 l 161 1114 l 290 1114 l 447 940 l 317 940 z "},"Ў":{"ha":694,"x_min":86,"x_max":608,"o":"m 86 481 l 86 897 l 169 897 l 196 485 l 521 458 l 521 897 l 608 897 l 608 133 l 503 28 l 131 28 l 131 111 l 499 138 l 525 375 l 192 375 l 86 481 m 174 1044 l 174 1114 l 261 1114 l 261 1026 l 425 1026 l 464 1135 l 533 1069 l 425 940 l 278 940 l 174 1044 z "},"Џ":{"ha":694,"x_min":86,"x_max":608,"o":"m 86 28 l 86 897 l 174 897 l 174 115 l 521 115 l 521 897 l 608 897 l 608 28 l 390 28 l 390 -189 l 304 -189 l 304 28 l 86 28 z "},"А":{"ha":694,"x_min":86,"x_max":608,"o":"m 86 792 l 192 897 l 503 897 l 608 792 l 608 28 l 521 28 l 521 375 l 174 375 l 174 28 l 86 28 l 86 792 m 525 463 l 499 788 l 235 814 l 174 753 l 174 463 l 525 463 z "},"Б":{"ha":694,"x_min":86,"x_max":608,"o":"m 86 28 l 86 897 l 564 897 l 564 810 l 174 810 l 174 593 l 503 593 l 608 489 l 608 133 l 503 28 l 86 28 m 499 138 l 499 485 l 174 510 l 174 111 l 499 138 z "},"В":{"ha":694,"x_min":86,"x_max":608,"o":"m 86 28 l 86 897 l 503 897 l 608 792 l 608 610 l 503 506 l 608 401 l 608 133 l 503 28 l 86 28 m 499 571 l 499 788 l 174 814 l 174 544 l 499 571 m 529 336 l 425 463 l 174 463 l 174 111 l 499 138 l 529 336 z "},"Г":{"ha":694,"x_min":86,"x_max":608,"o":"m 86 28 l 86 897 l 608 897 l 608 810 l 174 810 l 174 28 l 86 28 z "},"Д":{"ha":694,"x_min":43,"x_max":651,"o":"m 131 792 l 235 897 l 564 897 l 564 119 l 651 68 l 651 -144 l 564 -144 l 564 28 l 131 28 l 131 -144 l 43 -144 l 43 68 l 131 119 l 131 792 m 478 115 l 478 810 l 274 810 l 217 753 l 217 115 l 478 115 z "},"Е":{"ha":694,"x_min":86,"x_max":608,"o":"m 86 28 l 86 897 l 608 897 l 608 810 l 174 810 l 174 506 l 478 506 l 478 419 l 174 419 l 174 115 l 608 115 l 608 28 l 86 28 z "},"Ж":{"ha":694,"x_min":86,"x_max":608,"o":"m 86 601 l 86 897 l 174 897 l 174 644 l 304 540 l 304 897 l 390 897 l 390 540 l 521 644 l 521 897 l 608 897 l 608 601 l 474 493 l 608 346 l 608 28 l 521 28 l 521 324 l 390 428 l 390 28 l 304 28 l 304 428 l 174 324 l 174 28 l 86 28 l 86 346 l 221 493 l 86 601 z "},"З":{"ha":694,"x_min":69,"x_max":603,"o":"m 86 792 l 192 897 l 513 897 l 599 788 l 603 119 l 482 24 l 161 50 l 69 197 l 131 263 l 243 107 l 499 138 l 499 397 l 217 424 l 217 501 l 499 528 l 499 788 l 217 814 l 165 679 l 86 679 l 86 792 z "},"И":{"ha":694,"x_min":86,"x_max":608,"o":"m 86 28 l 86 897 l 174 897 l 174 358 l 521 697 l 521 897 l 608 897 l 608 28 l 521 28 l 521 567 l 174 228 l 174 28 l 86 28 z "},"Й":{"ha":694,"x_min":86,"x_max":608,"o":"m 86 28 l 86 897 l 174 897 l 174 358 l 521 697 l 521 897 l 608 897 l 608 28 l 521 28 l 521 567 l 174 228 l 174 28 l 86 28 m 174 1044 l 174 1114 l 261 1114 l 261 1026 l 425 1026 l 464 1135 l 533 1069 l 425 940 l 278 940 l 174 1044 z "},"К":{"ha":694,"x_min":86,"x_max":625,"o":"m 86 28 l 86 897 l 174 897 l 174 532 l 564 914 l 625 853 l 243 463 l 625 72 l 564 11 l 174 393 l 174 28 l 86 28 z "},"Л":{"ha":694,"x_min":65,"x_max":608,"o":"m 174 792 l 278 897 l 608 897 l 608 28 l 521 28 l 521 814 l 282 788 l 239 50 l 65 19 l 174 133 l 174 792 z "},"М":{"ha":694,"x_min":43,"x_max":608,"o":"m 43 28 l 43 897 l 108 897 l 282 636 l 369 636 l 543 897 l 608 897 l 608 28 l 521 28 l 521 744 l 360 497 l 290 497 l 131 744 l 131 28 l 43 28 z "},"Н":{"ha":694,"x_min":86,"x_max":608,"o":"m 86 28 l 86 897 l 174 897 l 174 506 l 521 506 l 521 897 l 608 897 l 608 28 l 521 28 l 521 419 l 174 419 l 174 28 l 86 28 z "},"О":{"ha":694,"x_min":86,"x_max":608,"o":"m 86 792 l 192 897 l 503 897 l 608 792 l 608 133 l 503 28 l 192 28 l 86 133 l 86 792 m 499 138 l 499 788 l 217 814 l 169 693 l 196 138 l 499 138 z "},"П":{"ha":694,"x_min":86,"x_max":608,"o":"m 86 28 l 86 897 l 608 897 l 608 28 l 521 28 l 521 810 l 174 810 l 174 28 l 86 28 z "},"Р":{"ha":694,"x_min":86,"x_max":608,"o":"m 86 28 l 86 897 l 503 897 l 608 792 l 608 481 l 503 375 l 174 375 l 174 28 l 86 28 m 499 485 l 499 788 l 174 814 l 174 458 l 499 485 z "},"С":{"ha":694,"x_min":86,"x_max":625,"o":"m 86 792 l 196 901 l 533 875 l 625 728 l 564 663 l 451 818 l 196 788 l 196 138 l 451 107 l 564 263 l 625 197 l 533 50 l 213 24 l 86 124 l 86 792 z "},"Т":{"ha":694,"x_min":86,"x_max":608,"o":"m 86 810 l 86 897 l 608 897 l 608 810 l 390 810 l 390 28 l 304 28 l 304 810 l 86 810 z "},"У":{"ha":694,"x_min":86,"x_max":608,"o":"m 86 481 l 86 897 l 169 897 l 196 485 l 521 458 l 521 897 l 608 897 l 608 133 l 503 28 l 131 28 l 131 111 l 499 138 l 525 375 l 192 375 l 86 481 z "},"Ф":{"ha":694,"x_min":108,"x_max":586,"o":"m 304 918 l 304 983 l 390 983 l 390 918 l 586 832 l 586 103 l 413 7 l 347 -81 l 282 7 l 108 103 l 108 832 l 304 918 m 304 107 l 304 810 l 213 810 l 169 693 l 196 146 l 304 107 m 499 146 l 499 779 l 390 818 l 390 107 l 499 146 z "},"Х":{"ha":694,"x_min":86,"x_max":608,"o":"m 86 857 l 86 897 l 161 897 l 317 550 l 378 550 l 533 897 l 608 897 l 608 857 l 417 463 l 608 68 l 608 28 l 533 28 l 378 375 l 317 375 l 161 28 l 86 28 l 86 68 l 278 463 l 86 857 z "},"Ц":{"ha":694,"x_min":86,"x_max":694,"o":"m 86 133 l 86 897 l 169 897 l 196 138 l 521 111 l 521 897 l 608 897 l 608 163 l 694 111 l 694 -189 l 608 -189 l 608 28 l 192 28 l 86 133 z "},"Ч":{"ha":694,"x_min":86,"x_max":608,"o":"m 86 481 l 86 897 l 169 897 l 196 485 l 521 458 l 521 897 l 608 897 l 608 28 l 521 28 l 521 375 l 192 375 l 86 481 z "},"Ш":{"ha":694,"x_min":86,"x_max":608,"o":"m 86 133 l 86 897 l 169 897 l 196 146 l 304 107 l 304 897 l 390 897 l 390 115 l 521 115 l 521 897 l 608 897 l 608 28 l 192 28 l 86 133 z "},"Щ":{"ha":694,"x_min":86,"x_max":694,"o":"m 86 133 l 86 897 l 169 897 l 196 146 l 304 107 l 304 897 l 390 897 l 390 115 l 521 115 l 521 897 l 608 897 l 608 119 l 694 68 l 694 -189 l 608 -189 l 608 28 l 192 28 l 86 133 z "},"Ъ":{"ha":694,"x_min":0,"x_max":564,"o":"m 0 810 l 0 897 l 174 897 l 174 636 l 460 636 l 564 532 l 564 133 l 460 28 l 86 28 l 86 810 l 0 810 m 456 138 l 456 528 l 174 554 l 174 111 l 456 138 z "},"Ы":{"ha":694,"x_min":43,"x_max":608,"o":"m 521 28 l 521 897 l 608 897 l 608 28 l 521 28 m 43 28 l 43 897 l 131 897 l 131 636 l 331 636 l 433 532 l 433 133 l 331 28 l 43 28 m 325 138 l 325 528 l 131 554 l 131 111 l 325 138 z "},"Ь":{"ha":694,"x_min":86,"x_max":564,"o":"m 86 28 l 86 897 l 174 897 l 174 636 l 460 636 l 564 532 l 564 133 l 460 28 l 86 28 m 456 138 l 456 528 l 174 554 l 174 111 l 456 138 z "},"Э":{"ha":694,"x_min":69,"x_max":608,"o":"m 86 792 l 192 897 l 503 897 l 608 792 l 608 124 l 482 24 l 161 50 l 69 197 l 131 263 l 243 107 l 499 138 l 525 419 l 217 419 l 217 506 l 525 506 l 499 788 l 217 814 l 165 679 l 86 679 l 86 792 z "},"Ю":{"ha":694,"x_min":43,"x_max":586,"o":"m 43 28 l 43 897 l 131 897 l 131 506 l 256 506 l 282 822 l 433 918 l 586 822 l 586 103 l 433 7 l 282 103 l 256 419 l 131 419 l 131 28 l 43 28 m 499 138 l 499 779 l 390 818 l 343 693 l 369 138 l 499 138 z "},"Я":{"ha":694,"x_min":69,"x_max":608,"o":"m 86 792 l 192 897 l 608 897 l 608 28 l 521 28 l 521 393 l 131 11 l 69 72 l 364 375 l 192 375 l 86 481 l 86 792 m 521 458 l 521 810 l 213 810 l 165 683 l 196 485 l 521 458 z "},"а":{"ha":694,"x_min":86,"x_max":608,"o":"m 131 554 l 131 636 l 503 636 l 608 532 l 608 28 l 192 28 l 86 133 l 86 315 l 192 419 l 529 419 l 490 528 l 131 554 m 521 115 l 521 332 l 213 332 l 165 207 l 221 115 l 521 115 z "},"б":{"ha":694,"x_min":86,"x_max":608,"o":"m 86 792 l 192 897 l 521 897 l 521 814 l 196 788 l 169 593 l 503 593 l 608 489 l 608 133 l 503 28 l 86 28 l 86 792 m 499 138 l 499 485 l 174 510 l 174 111 l 499 138 z "},"в":{"ha":694,"x_min":86,"x_max":608,"o":"m 86 840 l 143 897 l 425 897 l 529 767 l 490 506 l 608 411 l 608 133 l 503 28 l 86 28 l 86 840 m 413 571 l 413 788 l 174 814 l 174 544 l 413 571 m 529 336 l 425 463 l 174 463 l 174 111 l 499 138 l 529 336 z "},"г":{"ha":694,"x_min":86,"x_max":608,"o":"m 86 28 l 86 636 l 608 636 l 608 550 l 174 550 l 174 28 l 86 28 z "},"д":{"ha":694,"x_min":86,"x_max":608,"o":"m 86 532 l 192 636 l 608 636 l 608 -85 l 503 -189 l 131 -189 l 131 -106 l 490 -81 l 529 28 l 192 28 l 86 133 l 86 532 m 521 111 l 521 550 l 213 550 l 169 428 l 196 138 l 521 111 z "},"е":{"ha":694,"x_min":86,"x_max":608,"o":"m 86 532 l 192 636 l 503 636 l 608 532 l 608 289 l 169 289 l 200 138 l 608 142 l 578 50 l 213 24 l 86 124 l 86 532 m 525 375 l 499 528 l 235 554 l 174 493 l 174 375 l 525 375 z "},"ж":{"ha":694,"x_min":86,"x_max":608,"o":"m 86 493 l 86 636 l 174 636 l 174 514 l 304 411 l 304 636 l 390 636 l 390 411 l 521 514 l 521 636 l 608 636 l 608 493 l 474 346 l 608 236 l 608 28 l 521 28 l 521 193 l 390 297 l 390 28 l 304 28 l 304 297 l 174 193 l 174 28 l 86 28 l 86 236 l 221 346 l 86 493 z "},"з":{"ha":694,"x_min":74,"x_max":599,"o":"m 74 506 l 182 636 l 513 636 l 599 528 l 599 138 l 513 28 l 182 28 l 74 158 l 131 215 l 256 111 l 499 138 l 499 267 l 261 293 l 261 371 l 499 397 l 499 528 l 256 554 l 131 450 l 74 506 z "},"и":{"ha":694,"x_min":86,"x_max":608,"o":"m 86 133 l 86 636 l 169 636 l 196 138 l 521 111 l 521 636 l 608 636 l 608 28 l 192 28 l 86 133 z "},"й":{"ha":694,"x_min":86,"x_max":608,"o":"m 86 133 l 86 636 l 169 636 l 196 138 l 521 111 l 521 636 l 608 636 l 608 28 l 192 28 l 86 133 m 174 828 l 174 897 l 261 897 l 261 810 l 425 810 l 464 918 l 533 853 l 425 722 l 278 722 l 174 828 z "},"к":{"ha":694,"x_min":131,"x_max":625,"o":"m 131 28 l 131 636 l 217 636 l 217 358 l 503 636 l 625 636 l 331 332 l 625 28 l 503 28 l 217 306 l 217 28 l 131 28 z "},"л":{"ha":694,"x_min":65,"x_max":608,"o":"m 174 532 l 278 636 l 608 636 l 608 28 l 521 28 l 521 554 l 282 528 l 239 50 l 65 19 l 174 133 l 174 532 z "},"м":{"ha":694,"x_min":43,"x_max":608,"o":"m 43 28 l 43 636 l 104 636 l 331 419 l 533 636 l 608 636 l 608 28 l 521 28 l 521 481 l 331 289 l 131 475 l 131 28 l 43 28 z "},"н":{"ha":694,"x_min":86,"x_max":608,"o":"m 86 28 l 86 636 l 174 636 l 174 375 l 521 375 l 521 636 l 608 636 l 608 28 l 521 28 l 521 289 l 174 289 l 174 28 l 86 28 z "},"о":{"ha":694,"x_min":86,"x_max":608,"o":"m 86 532 l 192 636 l 503 636 l 608 532 l 608 133 l 503 28 l 192 28 l 86 133 l 86 532 m 499 138 l 499 528 l 217 554 l 169 428 l 196 138 l 499 138 z "},"п":{"ha":694,"x_min":86,"x_max":608,"o":"m 86 28 l 86 636 l 608 636 l 608 28 l 521 28 l 521 550 l 174 550 l 174 28 l 86 28 z "},"р":{"ha":694,"x_min":86,"x_max":608,"o":"m 86 -189 l 86 636 l 503 636 l 608 532 l 608 133 l 503 28 l 174 28 l 174 -189 l 86 -189 m 499 138 l 499 528 l 174 554 l 174 111 l 499 138 z "},"с":{"ha":694,"x_min":86,"x_max":621,"o":"m 86 532 l 192 636 l 513 636 l 621 506 l 564 450 l 439 554 l 196 528 l 196 138 l 439 111 l 564 215 l 621 158 l 513 28 l 192 28 l 86 133 l 86 532 z "},"т":{"ha":694,"x_min":86,"x_max":608,"o":"m 86 550 l 86 636 l 608 636 l 608 550 l 390 550 l 390 28 l 304 28 l 304 550 l 86 550 z "},"у":{"ha":694,"x_min":86,"x_max":608,"o":"m 86 133 l 86 636 l 169 636 l 196 138 l 521 111 l 521 636 l 608 636 l 608 -85 l 503 -189 l 131 -189 l 131 -106 l 490 -81 l 529 28 l 192 28 l 86 133 z "},"ф":{"ha":694,"x_min":108,"x_max":586,"o":"m 304 658 l 304 767 l 390 767 l 390 658 l 586 571 l 586 93 l 390 7 l 390 -101 l 304 -101 l 304 7 l 108 93 l 108 571 l 304 658 m 304 107 l 304 550 l 213 550 l 169 428 l 196 146 l 304 107 m 499 146 l 499 519 l 390 558 l 390 107 l 499 146 z "},"х":{"ha":694,"x_min":86,"x_max":608,"o":"m 86 532 l 86 636 l 135 636 l 347 397 l 560 636 l 608 636 l 608 532 l 421 332 l 608 133 l 608 28 l 560 28 l 347 267 l 135 28 l 86 28 l 86 133 l 274 332 l 86 532 z "},"ц":{"ha":694,"x_min":86,"x_max":694,"o":"m 86 133 l 86 636 l 169 636 l 196 138 l 521 111 l 521 636 l 608 636 l 608 119 l 694 68 l 694 -189 l 608 -189 l 608 28 l 192 28 l 86 133 z "},"ч":{"ha":694,"x_min":86,"x_max":608,"o":"m 86 393 l 86 636 l 169 636 l 196 397 l 521 371 l 521 636 l 608 636 l 608 28 l 521 28 l 521 289 l 192 289 l 86 393 z "},"ш":{"ha":694,"x_min":86,"x_max":608,"o":"m 86 133 l 86 636 l 169 636 l 196 146 l 304 107 l 304 636 l 390 636 l 390 115 l 521 115 l 521 636 l 608 636 l 608 28 l 192 28 l 86 133 z "},"щ":{"ha":694,"x_min":86,"x_max":694,"o":"m 86 133 l 86 636 l 169 636 l 196 146 l 304 107 l 304 636 l 390 636 l 390 115 l 521 115 l 521 636 l 608 636 l 608 119 l 694 68 l 694 -189 l 608 -189 l 608 28 l 192 28 l 86 133 z "},"ъ":{"ha":694,"x_min":86,"x_max":608,"o":"m 86 550 l 86 636 l 261 636 l 261 463 l 503 463 l 608 358 l 608 133 l 503 28 l 174 28 l 174 550 l 86 550 m 499 138 l 499 354 l 261 381 l 261 111 l 499 138 z "},"ы":{"ha":694,"x_min":43,"x_max":608,"o":"m 521 28 l 521 636 l 608 636 l 608 28 l 521 28 m 43 28 l 43 636 l 131 636 l 131 463 l 331 463 l 433 358 l 433 133 l 331 28 l 43 28 m 325 138 l 325 354 l 131 381 l 131 111 l 325 138 z "},"ь":{"ha":694,"x_min":131,"x_max":564,"o":"m 131 28 l 131 636 l 217 636 l 217 463 l 460 463 l 564 358 l 564 133 l 460 28 l 131 28 m 456 138 l 456 354 l 217 381 l 217 111 l 456 138 z "},"э":{"ha":694,"x_min":74,"x_max":608,"o":"m 74 506 l 182 636 l 503 636 l 608 532 l 608 133 l 503 28 l 182 28 l 74 158 l 131 215 l 256 111 l 499 138 l 525 289 l 261 289 l 261 375 l 525 375 l 499 528 l 256 554 l 131 450 l 74 506 z "},"ю":{"ha":694,"x_min":43,"x_max":586,"o":"m 43 28 l 43 636 l 131 636 l 131 375 l 256 375 l 282 563 l 433 658 l 586 563 l 586 103 l 433 7 l 282 103 l 256 289 l 131 289 l 131 28 l 43 28 m 521 115 l 521 550 l 347 550 l 347 115 l 521 115 z "},"я":{"ha":694,"x_min":86,"x_max":608,"o":"m 86 532 l 192 636 l 608 636 l 608 28 l 521 28 l 521 306 l 235 28 l 113 28 l 364 289 l 192 289 l 86 393 l 86 532 m 521 375 l 521 550 l 221 550 l 169 463 l 221 375 l 521 375 z "},"ѐ":{"ha":694,"x_min":86,"x_max":608,"o":"m 86 532 l 192 636 l 503 636 l 608 532 l 608 289 l 169 289 l 200 138 l 608 142 l 578 50 l 213 24 l 86 124 l 86 532 m 525 375 l 499 528 l 235 554 l 174 493 l 174 375 l 525 375 m 317 722 l 161 897 l 290 897 l 447 722 l 317 722 z "},"ё":{"ha":694,"x_min":86,"x_max":608,"o":"m 86 532 l 192 636 l 503 636 l 608 532 l 608 289 l 169 289 l 200 138 l 608 142 l 578 50 l 213 24 l 86 124 l 86 532 m 525 375 l 499 528 l 235 554 l 174 493 l 174 375 l 525 375 m 433 722 l 433 897 l 521 897 l 521 722 l 433 722 m 174 722 l 174 897 l 261 897 l 261 722 l 174 722 z "},"ђ":{"ha":694,"x_min":65,"x_max":608,"o":"m 65 788 l 96 897 l 174 897 l 174 810 l 390 810 l 390 722 l 174 722 l 174 636 l 503 636 l 608 532 l 608 -85 l 503 -189 l 347 -189 l 347 -111 l 525 -67 l 499 528 l 174 554 l 174 28 l 92 28 l 65 788 z "},"ѓ":{"ha":694,"x_min":86,"x_max":608,"o":"m 86 28 l 86 636 l 608 636 l 608 550 l 174 550 l 174 28 l 86 28 m 247 722 l 404 897 l 533 897 l 378 722 l 247 722 z "},"є":{"ha":694,"x_min":86,"x_max":621,"o":"m 86 532 l 192 636 l 513 636 l 621 506 l 564 450 l 439 554 l 196 528 l 169 375 l 433 375 l 433 289 l 169 289 l 196 138 l 439 111 l 564 215 l 621 158 l 513 28 l 192 28 l 86 133 l 86 532 z "},"ѕ":{"ha":694,"x_min":82,"x_max":629,"o":"m 86 532 l 192 636 l 513 636 l 613 514 l 196 528 l 196 397 l 533 354 l 629 203 l 533 50 l 186 24 l 82 150 l 499 138 l 499 267 l 196 297 l 86 385 l 86 532 z "},"і":{"ha":694,"x_min":217,"x_max":478,"o":"m 217 550 l 217 636 l 390 636 l 390 115 l 478 115 l 478 28 l 217 28 l 217 115 l 304 115 l 304 550 l 217 550 m 304 722 l 304 897 l 390 897 l 390 722 l 304 722 z "},"ї":{"ha":694,"x_min":174,"x_max":521,"o":"m 217 550 l 217 636 l 390 636 l 390 115 l 478 115 l 478 28 l 217 28 l 217 115 l 304 115 l 304 550 l 217 550 m 433 722 l 433 897 l 521 897 l 521 722 l 433 722 m 174 722 l 174 897 l 261 897 l 261 722 l 174 722 z "},"ј":{"ha":694,"x_min":113,"x_max":564,"o":"m 390 550 l 390 636 l 564 636 l 564 -93 l 439 -193 l 204 -167 l 113 -19 l 174 46 l 286 -111 l 456 -81 l 482 550 l 390 550 m 478 722 l 478 897 l 564 897 l 564 722 l 478 722 z "},"љ":{"ha":694,"x_min":57,"x_max":651,"o":"m 96 528 l 182 636 l 390 636 l 390 463 l 547 463 l 651 358 l 651 133 l 547 28 l 304 28 l 304 558 l 196 519 l 151 58 l 57 24 l 96 528 m 543 138 l 543 354 l 390 381 l 390 111 l 543 138 z "},"њ":{"ha":694,"x_min":43,"x_max":651,"o":"m 43 28 l 43 636 l 131 636 l 131 375 l 304 375 l 304 636 l 390 636 l 390 463 l 547 463 l 651 358 l 651 133 l 547 28 l 304 28 l 304 289 l 131 289 l 131 28 l 43 28 m 543 138 l 543 354 l 390 381 l 390 111 l 543 138 z "},"ћ":{"ha":694,"x_min":65,"x_max":608,"o":"m 65 788 l 96 897 l 174 897 l 174 810 l 390 810 l 390 722 l 174 722 l 174 636 l 503 636 l 608 532 l 608 28 l 525 28 l 499 528 l 174 554 l 174 28 l 92 28 l 65 788 z "},"ќ":{"ha":694,"x_min":131,"x_max":625,"o":"m 131 28 l 131 636 l 217 636 l 217 358 l 503 636 l 625 636 l 331 332 l 625 28 l 503 28 l 217 306 l 217 28 l 131 28 m 247 722 l 404 897 l 533 897 l 378 722 l 247 722 z "},"ѝ":{"ha":694,"x_min":86,"x_max":608,"o":"m 86 133 l 86 636 l 169 636 l 196 138 l 521 111 l 521 636 l 608 636 l 608 28 l 192 28 l 86 133 m 317 722 l 161 897 l 290 897 l 447 722 l 317 722 z "},"ў":{"ha":694,"x_min":86,"x_max":608,"o":"m 86 133 l 86 636 l 169 636 l 196 138 l 521 111 l 521 636 l 608 636 l 608 -85 l 503 -189 l 131 -189 l 131 -106 l 490 -81 l 529 28 l 192 28 l 86 133 m 174 828 l 174 897 l 261 897 l 261 810 l 425 810 l 464 918 l 533 853 l 425 722 l 278 722 l 174 828 z "},"џ":{"ha":694,"x_min":86,"x_max":608,"o":"m 86 28 l 86 636 l 174 636 l 174 115 l 521 115 l 521 636 l 608 636 l 608 28 l 390 28 l 390 -189 l 304 -189 l 304 28 l 86 28 z "},"Ґ":{"ha":694,"x_min":86,"x_max":608,"o":"m 521 897 l 521 1069 l 608 1069 l 608 810 l 174 810 l 174 28 l 86 28 l 86 897 l 521 897 z "},"ґ":{"ha":694,"x_min":86,"x_max":608,"o":"m 521 636 l 521 810 l 608 810 l 608 550 l 174 550 l 174 28 l 86 28 l 86 636 l 521 636 z "},"Ғ":{"ha":694,"x_min":65,"x_max":608,"o":"m 65 463 l 96 897 l 608 897 l 608 810 l 174 810 l 174 506 l 390 506 l 390 419 l 174 419 l 174 28 l 96 28 l 65 463 z "},"ғ":{"ha":694,"x_min":61,"x_max":608,"o":"m 61 332 l 96 636 l 608 636 l 608 550 l 174 550 l 174 375 l 390 375 l 390 289 l 174 289 l 174 28 l 96 28 l 61 332 z "},"Ҕ":{"ha":694,"x_min":86,"x_max":608,"o":"m 86 28 l 86 897 l 608 897 l 608 810 l 174 810 l 174 463 l 503 463 l 608 358 l 608 -42 l 503 -144 l 425 -144 l 525 -19 l 499 354 l 174 381 l 174 28 l 86 28 z "},"ҕ":{"ha":694,"x_min":86,"x_max":608,"o":"m 86 28 l 86 636 l 608 636 l 608 550 l 174 550 l 174 332 l 417 332 l 521 228 l 521 -42 l 417 -144 l 339 -144 l 439 -19 l 413 224 l 174 250 l 174 28 l 86 28 z "},"Җ":{"ha":694,"x_min":86,"x_max":694,"o":"m 86 601 l 86 897 l 174 897 l 174 644 l 304 540 l 304 897 l 390 897 l 390 540 l 521 644 l 521 897 l 608 897 l 608 601 l 474 493 l 608 346 l 608 119 l 694 68 l 694 -189 l 608 -189 l 608 28 l 521 28 l 521 324 l 390 428 l 390 28 l 304 28 l 304 428 l 174 324 l 174 28 l 86 28 l 86 346 l 221 493 l 86 601 z "},"җ":{"ha":694,"x_min":86,"x_max":694,"o":"m 86 493 l 86 636 l 174 636 l 174 514 l 304 411 l 304 636 l 390 636 l 390 411 l 521 514 l 521 636 l 608 636 l 608 471 l 474 363 l 586 224 l 694 28 l 694 -189 l 608 -189 l 608 28 l 521 28 l 521 193 l 390 297 l 390 28 l 304 28 l 304 297 l 174 193 l 174 28 l 86 28 l 86 236 l 221 346 l 86 493 z "},"Ҙ":{"ha":694,"x_min":78,"x_max":603,"o":"m 86 792 l 192 897 l 513 897 l 603 783 l 586 93 l 390 7 l 390 -189 l 304 -189 l 304 19 l 131 64 l 78 207 l 131 263 l 243 107 l 499 138 l 499 397 l 217 424 l 217 501 l 499 528 l 499 788 l 217 814 l 165 679 l 86 679 l 86 792 z "},"ҙ":{"ha":694,"x_min":74,"x_max":599,"o":"m 74 506 l 182 636 l 513 636 l 599 528 l 586 93 l 390 7 l 390 -189 l 304 -189 l 304 28 l 182 28 l 74 158 l 131 215 l 256 111 l 499 138 l 499 267 l 261 293 l 261 371 l 499 397 l 499 528 l 256 554 l 131 450 l 74 506 z "},"Қ":{"ha":694,"x_min":86,"x_max":651,"o":"m 86 28 l 86 897 l 174 897 l 174 532 l 564 914 l 625 853 l 243 463 l 651 46 l 651 -189 l 564 -189 l 564 11 l 174 393 l 174 28 l 86 28 z "},"қ":{"ha":694,"x_min":131,"x_max":625,"o":"m 131 28 l 131 636 l 217 636 l 217 358 l 503 636 l 625 636 l 331 332 l 608 46 l 608 -189 l 521 -189 l 521 11 l 217 306 l 217 28 l 131 28 z "},"Ҝ":{"ha":694,"x_min":43,"x_max":608,"o":"m 43 28 l 43 897 l 131 897 l 143 485 l 178 722 l 261 722 l 265 571 l 564 897 l 608 897 l 608 792 l 286 463 l 608 133 l 608 28 l 564 28 l 265 354 l 261 203 l 178 203 l 143 440 l 131 28 l 43 28 z "},"ҝ":{"ha":694,"x_min":86,"x_max":625,"o":"m 86 28 l 86 636 l 174 636 l 186 354 l 221 550 l 304 550 l 304 401 l 564 653 l 625 593 l 374 332 l 625 72 l 564 11 l 304 263 l 304 115 l 221 115 l 186 311 l 174 28 l 86 28 z "},"Ҡ":{"ha":694,"x_min":0,"x_max":625,"o":"m 0 810 l 0 897 l 174 897 l 174 532 l 564 914 l 625 853 l 243 463 l 625 72 l 564 11 l 174 393 l 174 28 l 86 28 l 86 810 l 0 810 z "},"ҡ":{"ha":694,"x_min":43,"x_max":625,"o":"m 43 550 l 43 636 l 217 636 l 217 358 l 503 636 l 625 636 l 331 332 l 625 28 l 503 28 l 217 306 l 217 28 l 131 28 l 131 550 l 43 550 z "},"Ң":{"ha":694,"x_min":86,"x_max":694,"o":"m 86 28 l 86 897 l 174 897 l 174 506 l 521 506 l 521 897 l 608 897 l 608 119 l 694 68 l 694 -189 l 608 -189 l 608 28 l 521 28 l 521 419 l 174 419 l 174 28 l 86 28 z "},"ң":{"ha":694,"x_min":86,"x_max":694,"o":"m 86 28 l 86 636 l 174 636 l 174 375 l 521 375 l 521 636 l 608 636 l 608 119 l 694 68 l 694 -189 l 608 -189 l 608 28 l 521 28 l 521 289 l 174 289 l 174 28 l 86 28 z "},"Ҥ":{"ha":694,"x_min":43,"x_max":694,"o":"m 43 28 l 43 897 l 131 897 l 131 506 l 390 506 l 390 897 l 694 897 l 694 810 l 478 810 l 478 28 l 390 28 l 390 419 l 131 419 l 131 28 l 43 28 z "},"ҥ":{"ha":694,"x_min":43,"x_max":694,"o":"m 43 28 l 43 636 l 131 636 l 131 375 l 390 375 l 390 636 l 694 636 l 694 550 l 478 550 l 478 28 l 390 28 l 390 289 l 131 289 l 131 28 l 43 28 z "},"Ҫ":{"ha":694,"x_min":82,"x_max":625,"o":"m 82 775 l 186 901 l 533 875 l 625 728 l 564 663 l 451 818 l 196 788 l 196 138 l 451 107 l 564 263 l 617 207 l 564 64 l 390 19 l 390 -189 l 304 -189 l 304 7 l 108 93 l 82 775 z "},"ҫ":{"ha":694,"x_min":82,"x_max":621,"o":"m 82 514 l 182 636 l 513 636 l 621 506 l 564 450 l 439 554 l 196 528 l 196 138 l 439 111 l 564 215 l 621 158 l 513 28 l 390 28 l 390 -189 l 304 -189 l 304 7 l 108 93 l 82 514 z "},"Ү":{"ha":694,"x_min":86,"x_max":608,"o":"m 86 806 l 86 897 l 151 897 l 313 506 l 382 506 l 543 897 l 608 897 l 608 806 l 390 381 l 390 28 l 304 28 l 304 381 l 86 806 z "},"ү":{"ha":694,"x_min":86,"x_max":608,"o":"m 86 528 l 86 636 l 151 636 l 308 203 l 386 203 l 543 636 l 608 636 l 608 528 l 390 64 l 390 -189 l 304 -189 l 304 64 l 86 528 z "},"Ұ":{"ha":694,"x_min":86,"x_max":608,"o":"m 86 806 l 86 897 l 151 897 l 313 506 l 382 506 l 543 897 l 608 897 l 608 806 l 390 375 l 564 375 l 564 289 l 390 289 l 390 28 l 304 28 l 304 289 l 131 289 l 131 375 l 304 375 l 86 806 z "},"ұ":{"ha":694,"x_min":86,"x_max":608,"o":"m 86 528 l 86 636 l 151 636 l 308 203 l 386 203 l 543 636 l 608 636 l 608 528 l 394 72 l 564 72 l 564 -15 l 390 -15 l 390 -189 l 304 -189 l 304 -15 l 131 -15 l 131 72 l 300 72 l 86 528 z "},"Ҳ":{"ha":694,"x_min":86,"x_max":694,"o":"m 86 857 l 86 897 l 161 897 l 317 550 l 378 550 l 533 897 l 608 897 l 608 857 l 421 467 l 578 119 l 694 76 l 694 -189 l 608 -189 l 608 28 l 533 28 l 378 375 l 317 375 l 161 28 l 86 28 l 86 68 l 278 463 l 86 857 z "},"ҳ":{"ha":694,"x_min":86,"x_max":694,"o":"m 86 532 l 86 636 l 135 636 l 347 397 l 560 636 l 608 636 l 608 532 l 417 332 l 694 46 l 694 -189 l 608 -189 l 608 -11 l 343 267 l 135 28 l 86 28 l 86 133 l 274 332 l 86 532 z "},"Ҷ":{"ha":694,"x_min":86,"x_max":694,"o":"m 86 481 l 86 897 l 169 897 l 196 485 l 521 458 l 521 897 l 608 897 l 608 119 l 694 68 l 694 -189 l 608 -189 l 608 28 l 521 28 l 521 375 l 192 375 l 86 481 z "},"ҷ":{"ha":694,"x_min":86,"x_max":694,"o":"m 86 393 l 86 636 l 169 636 l 196 397 l 521 371 l 521 636 l 608 636 l 608 119 l 694 68 l 694 -189 l 608 -189 l 608 28 l 521 28 l 521 289 l 192 289 l 86 393 z "},"Ҹ":{"ha":694,"x_min":82,"x_max":608,"o":"m 108 440 l 82 897 l 169 897 l 196 493 l 304 454 l 304 636 l 390 636 l 390 463 l 521 463 l 521 897 l 608 897 l 608 28 l 521 28 l 521 375 l 390 375 l 390 203 l 304 203 l 304 354 l 108 440 z "},"ҹ":{"ha":694,"x_min":82,"x_max":608,"o":"m 108 354 l 82 636 l 169 636 l 196 406 l 304 367 l 304 506 l 390 506 l 390 375 l 521 375 l 521 636 l 608 636 l 608 28 l 521 28 l 521 289 l 390 289 l 390 158 l 304 158 l 304 267 l 108 354 z "},"Һ":{"ha":694,"x_min":86,"x_max":608,"o":"m 86 28 l 86 897 l 174 897 l 174 550 l 503 550 l 608 444 l 608 28 l 525 28 l 499 440 l 174 467 l 174 28 l 86 28 z "},"һ":{"ha":694,"x_min":86,"x_max":608,"o":"m 86 28 l 86 636 l 174 636 l 174 419 l 503 419 l 608 315 l 608 28 l 525 28 l 499 311 l 174 336 l 174 28 l 86 28 z "},"Ӑ":{"ha":694,"x_min":86,"x_max":608,"o":"m 86 792 l 192 897 l 503 897 l 608 792 l 608 28 l 521 28 l 521 375 l 174 375 l 174 28 l 86 28 l 86 792 m 525 463 l 499 788 l 235 814 l 174 753 l 174 463 l 525 463 m 174 1044 l 174 1114 l 261 1114 l 261 1026 l 425 1026 l 464 1135 l 533 1069 l 425 940 l 278 940 l 174 1044 z "},"ӑ":{"ha":694,"x_min":86,"x_max":608,"o":"m 131 554 l 131 636 l 503 636 l 608 532 l 608 28 l 192 28 l 86 133 l 86 315 l 192 419 l 529 419 l 490 528 l 131 554 m 521 115 l 521 332 l 213 332 l 165 207 l 221 115 l 521 115 m 174 828 l 174 897 l 261 897 l 261 810 l 425 810 l 464 918 l 533 853 l 425 722 l 278 722 l 174 828 z "},"Ӓ":{"ha":694,"x_min":86,"x_max":608,"o":"m 86 792 l 192 897 l 503 897 l 608 792 l 608 28 l 521 28 l 521 375 l 174 375 l 174 28 l 86 28 l 86 792 m 525 463 l 499 788 l 235 814 l 174 753 l 174 463 l 525 463 m 433 940 l 433 1114 l 521 1114 l 521 940 l 433 940 m 174 940 l 174 1114 l 261 1114 l 261 940 l 174 940 z "},"ӓ":{"ha":694,"x_min":86,"x_max":608,"o":"m 131 554 l 131 636 l 503 636 l 608 532 l 608 28 l 192 28 l 86 133 l 86 315 l 192 419 l 529 419 l 490 528 l 131 554 m 521 115 l 521 332 l 213 332 l 165 207 l 221 115 l 521 115 m 433 722 l 433 897 l 521 897 l 521 722 l 433 722 m 174 722 l 174 897 l 261 897 l 261 722 l 174 722 z "},"Ӕ":{"ha":694,"x_min":43,"x_max":694,"o":"m 43 792 l 147 897 l 694 897 l 694 810 l 433 810 l 433 506 l 651 506 l 651 419 l 433 419 l 433 115 l 694 115 l 694 28 l 347 28 l 347 419 l 131 419 l 131 28 l 43 28 l 43 792 m 347 506 l 347 810 l 186 810 l 131 753 l 131 506 l 347 506 z "},"ӕ":{"ha":694,"x_min":43,"x_max":656,"o":"m 86 550 l 86 632 l 543 628 l 651 540 l 651 289 l 386 289 l 417 138 l 656 154 l 621 50 l 156 33 l 43 124 l 43 315 l 147 419 l 304 419 l 304 550 l 86 550 m 568 375 l 543 528 l 390 554 l 390 375 l 568 375 m 304 115 l 304 332 l 169 332 l 122 207 l 178 115 l 304 115 z "},"Ӗ":{"ha":694,"x_min":86,"x_max":608,"o":"m 86 28 l 86 897 l 608 897 l 608 810 l 174 810 l 174 506 l 478 506 l 478 419 l 174 419 l 174 115 l 608 115 l 608 28 l 86 28 m 174 1044 l 174 1114 l 261 1114 l 261 1026 l 425 1026 l 464 1135 l 533 1069 l 425 940 l 278 940 l 174 1044 z "},"ӗ":{"ha":694,"x_min":86,"x_max":608,"o":"m 86 532 l 192 636 l 503 636 l 608 532 l 608 289 l 169 289 l 200 138 l 608 142 l 578 50 l 213 24 l 86 124 l 86 532 m 525 375 l 499 528 l 235 554 l 174 493 l 174 375 l 525 375 m 174 828 l 174 897 l 261 897 l 261 810 l 425 810 l 464 918 l 533 853 l 425 722 l 278 722 l 174 828 z "},"Ә":{"ha":694,"x_min":86,"x_max":608,"o":"m 86 792 l 192 897 l 503 897 l 608 792 l 608 133 l 503 28 l 192 28 l 86 133 l 86 506 l 525 506 l 499 788 l 217 814 l 165 679 l 86 679 l 86 792 m 499 138 l 525 419 l 169 419 l 196 138 l 499 138 z "},"ә":{"ha":694,"x_min":86,"x_max":608,"o":"m 86 579 l 143 636 l 503 636 l 608 532 l 608 133 l 503 28 l 192 28 l 86 133 l 86 375 l 525 375 l 494 528 l 86 524 l 86 579 m 499 138 l 525 289 l 169 289 l 196 138 l 499 138 z "},"Ӛ":{"ha":694,"x_min":86,"x_max":608,"o":"m 86 792 l 192 897 l 503 897 l 608 792 l 608 133 l 503 28 l 192 28 l 86 133 l 86 506 l 525 506 l 499 788 l 217 814 l 165 679 l 86 679 l 86 792 m 499 138 l 525 419 l 169 419 l 196 138 l 499 138 m 433 940 l 433 1114 l 521 1114 l 521 940 l 433 940 m 174 940 l 174 1114 l 261 1114 l 261 940 l 174 940 z "},"ӛ":{"ha":694,"x_min":86,"x_max":608,"o":"m 86 579 l 143 636 l 503 636 l 608 532 l 608 133 l 503 28 l 192 28 l 86 133 l 86 375 l 525 375 l 494 528 l 86 524 l 86 579 m 499 138 l 525 289 l 169 289 l 196 138 l 499 138 m 433 722 l 433 897 l 521 897 l 521 722 l 433 722 m 174 722 l 174 897 l 261 897 l 261 722 l 174 722 z "},"Ӝ":{"ha":694,"x_min":86,"x_max":608,"o":"m 86 601 l 86 897 l 174 897 l 174 644 l 304 540 l 304 897 l 390 897 l 390 540 l 521 644 l 521 897 l 608 897 l 608 601 l 474 493 l 608 346 l 608 28 l 521 28 l 521 324 l 390 428 l 390 28 l 304 28 l 304 428 l 174 324 l 174 28 l 86 28 l 86 346 l 221 493 l 86 601 m 433 940 l 433 1114 l 521 1114 l 521 940 l 433 940 m 174 940 l 174 1114 l 261 1114 l 261 940 l 174 940 z "},"ӝ":{"ha":694,"x_min":86,"x_max":608,"o":"m 86 493 l 86 636 l 174 636 l 174 514 l 304 411 l 304 636 l 390 636 l 390 411 l 521 514 l 521 636 l 608 636 l 608 493 l 474 346 l 608 236 l 608 28 l 521 28 l 521 193 l 390 297 l 390 28 l 304 28 l 304 297 l 174 193 l 174 28 l 86 28 l 86 236 l 221 346 l 86 493 m 433 722 l 433 897 l 521 897 l 521 722 l 433 722 m 174 722 l 174 897 l 261 897 l 261 722 l 174 722 z "},"Ӟ":{"ha":694,"x_min":69,"x_max":603,"o":"m 86 792 l 192 897 l 513 897 l 599 788 l 603 119 l 482 24 l 161 50 l 69 197 l 131 263 l 243 107 l 499 138 l 499 397 l 217 424 l 217 501 l 499 528 l 499 788 l 217 814 l 165 679 l 86 679 l 86 792 m 433 940 l 433 1114 l 521 1114 l 521 940 l 433 940 m 174 940 l 174 1114 l 261 1114 l 261 940 l 174 940 z "},"ӟ":{"ha":694,"x_min":74,"x_max":599,"o":"m 74 506 l 182 636 l 513 636 l 599 528 l 599 138 l 513 28 l 182 28 l 74 158 l 131 215 l 256 111 l 499 138 l 499 267 l 261 293 l 261 371 l 499 397 l 499 528 l 256 554 l 131 450 l 74 506 m 433 722 l 433 897 l 521 897 l 521 722 l 433 722 m 174 722 l 174 897 l 261 897 l 261 722 l 174 722 z "},"Ӣ":{"ha":694,"x_min":86,"x_max":608,"o":"m 86 28 l 86 897 l 174 897 l 174 358 l 521 697 l 521 897 l 608 897 l 608 28 l 521 28 l 521 567 l 174 228 l 174 28 l 86 28 m 174 983 l 174 1069 l 521 1069 l 521 983 l 174 983 z "},"ӣ":{"ha":694,"x_min":86,"x_max":608,"o":"m 86 133 l 86 636 l 169 636 l 196 138 l 521 111 l 521 636 l 608 636 l 608 28 l 192 28 l 86 133 m 174 722 l 174 810 l 521 810 l 521 722 l 174 722 z "},"Ӥ":{"ha":694,"x_min":86,"x_max":608,"o":"m 86 28 l 86 897 l 174 897 l 174 358 l 521 697 l 521 897 l 608 897 l 608 28 l 521 28 l 521 567 l 174 228 l 174 28 l 86 28 m 433 940 l 433 1114 l 521 1114 l 521 940 l 433 940 m 174 940 l 174 1114 l 261 1114 l 261 940 l 174 940 z "},"ӥ":{"ha":694,"x_min":86,"x_max":608,"o":"m 86 133 l 86 636 l 169 636 l 196 138 l 521 111 l 521 636 l 608 636 l 608 28 l 192 28 l 86 133 m 433 722 l 433 897 l 521 897 l 521 722 l 433 722 m 174 722 l 174 897 l 261 897 l 261 722 l 174 722 z "},"Ӧ":{"ha":694,"x_min":86,"x_max":608,"o":"m 86 792 l 192 897 l 503 897 l 608 792 l 608 133 l 503 28 l 192 28 l 86 133 l 86 792 m 499 138 l 499 788 l 217 814 l 169 693 l 196 138 l 499 138 m 433 940 l 433 1114 l 521 1114 l 521 940 l 433 940 m 174 940 l 174 1114 l 261 1114 l 261 940 l 174 940 z "},"ӧ":{"ha":694,"x_min":86,"x_max":608,"o":"m 86 532 l 192 636 l 503 636 l 608 532 l 608 133 l 503 28 l 192 28 l 86 133 l 86 532 m 499 138 l 499 528 l 217 554 l 169 428 l 196 138 l 499 138 m 433 722 l 433 897 l 521 897 l 521 722 l 433 722 m 174 722 l 174 897 l 261 897 l 261 722 l 174 722 z "},"Ө":{"ha":694,"x_min":86,"x_max":608,"o":"m 86 792 l 192 897 l 503 897 l 608 792 l 608 133 l 503 28 l 192 28 l 86 133 l 86 792 m 525 506 l 499 788 l 235 814 l 174 753 l 174 506 l 525 506 m 499 138 l 525 419 l 169 419 l 196 138 l 499 138 z "},"ө":{"ha":694,"x_min":86,"x_max":608,"o":"m 86 532 l 192 636 l 503 636 l 608 532 l 608 133 l 503 28 l 192 28 l 86 133 l 86 532 m 525 375 l 499 528 l 235 554 l 174 493 l 174 375 l 525 375 m 499 138 l 525 289 l 169 289 l 196 138 l 499 138 z "},"Ӫ":{"ha":694,"x_min":86,"x_max":608,"o":"m 86 792 l 192 897 l 503 897 l 608 792 l 608 133 l 503 28 l 192 28 l 86 133 l 86 792 m 525 506 l 499 788 l 235 814 l 174 753 l 174 506 l 525 506 m 499 138 l 525 419 l 169 419 l 196 138 l 499 138 m 433 940 l 433 1114 l 521 1114 l 521 940 l 433 940 m 174 940 l 174 1114 l 261 1114 l 261 940 l 174 940 z "},"ӫ":{"ha":694,"x_min":86,"x_max":608,"o":"m 86 532 l 192 636 l 503 636 l 608 532 l 608 133 l 503 28 l 192 28 l 86 133 l 86 532 m 525 375 l 499 528 l 235 554 l 174 493 l 174 375 l 525 375 m 499 138 l 525 289 l 169 289 l 196 138 l 499 138 m 433 722 l 433 897 l 521 897 l 521 722 l 433 722 m 174 722 l 174 897 l 261 897 l 261 722 l 174 722 z "},"Ӭ":{"ha":694,"x_min":69,"x_max":608,"o":"m 86 792 l 192 897 l 503 897 l 608 792 l 608 124 l 482 24 l 161 50 l 69 197 l 131 263 l 243 107 l 499 138 l 525 419 l 217 419 l 217 506 l 525 506 l 499 788 l 217 814 l 165 679 l 86 679 l 86 792 m 433 940 l 433 1114 l 521 1114 l 521 940 l 433 940 m 174 940 l 174 1114 l 261 1114 l 261 940 l 174 940 z "},"ӭ":{"ha":694,"x_min":74,"x_max":608,"o":"m 74 506 l 182 636 l 503 636 l 608 532 l 608 133 l 503 28 l 182 28 l 74 158 l 131 215 l 256 111 l 499 138 l 525 289 l 261 289 l 261 375 l 525 375 l 499 528 l 256 554 l 131 450 l 74 506 m 433 722 l 433 897 l 521 897 l 521 722 l 433 722 m 174 722 l 174 897 l 261 897 l 261 722 l 174 722 z "},"Ӯ":{"ha":694,"x_min":86,"x_max":608,"o":"m 86 481 l 86 897 l 169 897 l 196 485 l 521 458 l 521 897 l 608 897 l 608 133 l 503 28 l 131 28 l 131 111 l 499 138 l 525 375 l 192 375 l 86 481 m 174 983 l 174 1069 l 521 1069 l 521 983 l 174 983 z "},"ӯ":{"ha":694,"x_min":86,"x_max":608,"o":"m 86 133 l 86 636 l 169 636 l 196 138 l 521 111 l 521 636 l 608 636 l 608 -85 l 503 -189 l 131 -189 l 131 -106 l 490 -81 l 529 28 l 192 28 l 86 133 m 174 722 l 174 810 l 521 810 l 521 722 l 174 722 z "},"Ӱ":{"ha":694,"x_min":86,"x_max":608,"o":"m 86 481 l 86 897 l 169 897 l 196 485 l 521 458 l 521 897 l 608 897 l 608 133 l 503 28 l 131 28 l 131 111 l 499 138 l 525 375 l 192 375 l 86 481 m 433 940 l 433 1114 l 521 1114 l 521 940 l 433 940 m 174 940 l 174 1114 l 261 1114 l 261 940 l 174 940 z "},"ӱ":{"ha":694,"x_min":86,"x_max":608,"o":"m 86 133 l 86 636 l 169 636 l 196 138 l 521 111 l 521 636 l 608 636 l 608 -85 l 503 -189 l 131 -189 l 131 -106 l 490 -81 l 529 28 l 192 28 l 86 133 m 433 722 l 433 897 l 521 897 l 521 722 l 433 722 m 174 722 l 174 897 l 261 897 l 261 722 l 174 722 z "},"Ӳ":{"ha":694,"x_min":86,"x_max":664,"o":"m 86 481 l 86 897 l 169 897 l 196 485 l 521 458 l 521 897 l 608 897 l 608 133 l 503 28 l 131 28 l 131 111 l 499 138 l 525 375 l 192 375 l 86 481 m 378 940 l 533 1114 l 664 1114 l 508 940 l 378 940 m 161 940 l 317 1114 l 447 1114 l 290 940 l 161 940 z "},"ӳ":{"ha":694,"x_min":86,"x_max":664,"o":"m 86 133 l 86 636 l 169 636 l 196 138 l 521 111 l 521 636 l 608 636 l 608 -85 l 503 -189 l 131 -189 l 131 -106 l 490 -81 l 529 28 l 192 28 l 86 133 m 378 722 l 533 897 l 664 897 l 508 722 l 378 722 m 161 722 l 317 897 l 447 897 l 290 722 l 161 722 z "},"Ӵ":{"ha":694,"x_min":86,"x_max":608,"o":"m 86 481 l 86 897 l 169 897 l 196 485 l 521 458 l 521 897 l 608 897 l 608 28 l 521 28 l 521 375 l 192 375 l 86 481 m 433 940 l 433 1114 l 521 1114 l 521 940 l 433 940 m 174 940 l 174 1114 l 261 1114 l 261 940 l 174 940 z "},"ӵ":{"ha":694,"x_min":86,"x_max":608,"o":"m 86 393 l 86 636 l 169 636 l 196 397 l 521 371 l 521 636 l 608 636 l 608 28 l 521 28 l 521 289 l 192 289 l 86 393 m 433 722 l 433 897 l 521 897 l 521 722 l 433 722 m 174 722 l 174 897 l 261 897 l 261 722 l 174 722 z "},"Ӹ":{"ha":694,"x_min":43,"x_max":608,"o":"m 521 28 l 521 897 l 608 897 l 608 28 l 521 28 m 43 28 l 43 897 l 131 897 l 131 636 l 331 636 l 433 532 l 433 133 l 331 28 l 43 28 m 325 138 l 325 528 l 131 554 l 131 111 l 325 138 m 433 940 l 433 1114 l 521 1114 l 521 940 l 433 940 m 174 940 l 174 1114 l 261 1114 l 261 940 l 174 940 z "},"ӹ":{"ha":694,"x_min":43,"x_max":608,"o":"m 521 28 l 521 636 l 608 636 l 608 28 l 521 28 m 43 28 l 43 636 l 131 636 l 131 463 l 331 463 l 433 358 l 433 133 l 331 28 l 43 28 m 325 138 l 325 354 l 131 381 l 131 111 l 325 138 m 433 722 l 433 897 l 521 897 l 521 722 l 433 722 m 174 722 l 174 897 l 261 897 l 261 722 l 174 722 z "},"Ḍ":{"ha":694,"x_min":86,"x_max":608,"o":"m 261 -189 l 261 -15 l 347 -15 l 347 -189 l 261 -189 m 86 28 l 86 897 l 433 897 l 608 722 l 608 203 l 433 28 l 86 28 m 521 706 l 417 810 l 174 810 l 174 115 l 417 115 l 521 219 l 521 706 z "},"ḍ":{"ha":694,"x_min":86,"x_max":608,"o":"m 347 -189 l 347 -15 l 433 -15 l 433 -189 l 347 -189 m 521 636 l 521 897 l 608 897 l 608 28 l 192 28 l 86 133 l 86 532 l 192 636 l 521 636 m 521 111 l 521 550 l 213 550 l 169 428 l 196 138 l 521 111 z "},"Ḵ":{"ha":694,"x_min":86,"x_max":625,"o":"m 174 -144 l 174 -58 l 521 -58 l 521 -144 l 174 -144 m 86 28 l 86 897 l 174 897 l 174 532 l 564 914 l 625 853 l 243 463 l 625 72 l 564 11 l 174 393 l 174 28 l 86 28 z "},"ḵ":{"ha":694,"x_min":131,"x_max":625,"o":"m 217 -144 l 217 -58 l 521 -58 l 521 -144 l 217 -144 m 131 28 l 131 897 l 217 897 l 217 358 l 503 636 l 625 636 l 331 332 l 625 28 l 503 28 l 217 306 l 217 28 l 131 28 z "},"Ḷ":{"ha":694,"x_min":86,"x_max":608,"o":"m 304 -189 l 304 -15 l 390 -15 l 390 -189 l 304 -189 m 86 28 l 86 897 l 174 897 l 174 115 l 608 115 l 608 28 l 86 28 z "},"ḷ":{"ha":694,"x_min":217,"x_max":478,"o":"m 304 -189 l 304 -15 l 390 -15 l 390 -189 l 304 -189 m 217 810 l 217 897 l 390 897 l 390 115 l 478 115 l 478 28 l 217 28 l 217 115 l 304 115 l 304 810 l 217 810 z "},"Ṁ":{"ha":694,"x_min":43,"x_max":608,"o":"m 43 28 l 43 897 l 108 897 l 282 636 l 369 636 l 543 897 l 608 897 l 608 28 l 521 28 l 521 744 l 360 497 l 290 497 l 131 744 l 131 28 l 43 28 m 304 940 l 304 1114 l 390 1114 l 390 940 l 304 940 z "},"ṁ":{"ha":694,"x_min":86,"x_max":608,"o":"m 86 28 l 86 636 l 503 636 l 608 532 l 608 28 l 525 28 l 499 519 l 390 558 l 390 28 l 304 28 l 304 550 l 174 550 l 174 28 l 86 28 m 304 722 l 304 897 l 390 897 l 390 722 l 304 722 z "},"Ṃ":{"ha":694,"x_min":43,"x_max":608,"o":"m 304 -189 l 304 -15 l 390 -15 l 390 -189 l 304 -189 m 43 28 l 43 897 l 108 897 l 282 636 l 369 636 l 543 897 l 608 897 l 608 28 l 521 28 l 521 744 l 360 497 l 290 497 l 131 744 l 131 28 l 43 28 z "},"ṃ":{"ha":694,"x_min":86,"x_max":608,"o":"m 304 -189 l 304 -15 l 390 -15 l 390 -189 l 304 -189 m 86 28 l 86 636 l 503 636 l 608 532 l 608 28 l 525 28 l 499 519 l 390 558 l 390 28 l 304 28 l 304 550 l 174 550 l 174 28 l 86 28 z "},"Ṅ":{"ha":694,"x_min":86,"x_max":608,"o":"m 86 28 l 86 897 l 174 897 l 174 697 l 521 358 l 521 897 l 608 897 l 608 28 l 521 28 l 521 228 l 174 567 l 174 28 l 86 28 m 304 940 l 304 1114 l 390 1114 l 390 940 l 304 940 z "},"ṅ":{"ha":694,"x_min":86,"x_max":608,"o":"m 86 28 l 86 636 l 503 636 l 608 532 l 608 28 l 525 28 l 499 528 l 174 554 l 174 28 l 86 28 m 304 722 l 304 897 l 390 897 l 390 722 l 304 722 z "},"Ṇ":{"ha":694,"x_min":86,"x_max":608,"o":"m 304 -189 l 304 -15 l 390 -15 l 390 -189 l 304 -189 m 86 28 l 86 897 l 174 897 l 174 697 l 521 358 l 521 897 l 608 897 l 608 28 l 521 28 l 521 228 l 174 567 l 174 28 l 86 28 z "},"ṇ":{"ha":694,"x_min":86,"x_max":608,"o":"m 304 -189 l 304 -15 l 390 -15 l 390 -189 l 304 -189 m 86 28 l 86 636 l 503 636 l 608 532 l 608 28 l 525 28 l 499 528 l 174 554 l 174 28 l 86 28 z "},"Ṭ":{"ha":694,"x_min":86,"x_max":608,"o":"m 304 -189 l 304 -15 l 390 -15 l 390 -189 l 304 -189 m 86 810 l 86 897 l 608 897 l 608 810 l 390 810 l 390 28 l 304 28 l 304 810 l 86 810 z "},"ṭ":{"ha":694,"x_min":86,"x_max":608,"o":"m 433 -189 l 433 -15 l 521 -15 l 521 -189 l 433 -189 m 261 636 l 261 897 l 347 897 l 347 636 l 521 636 l 521 550 l 343 550 l 369 138 l 608 111 l 608 28 l 364 28 l 261 133 l 261 550 l 86 550 l 86 636 l 261 636 z "},"Ẹ":{"ha":694,"x_min":86,"x_max":608,"o":"m 304 -189 l 304 -15 l 390 -15 l 390 -189 l 304 -189 m 86 28 l 86 897 l 608 897 l 608 810 l 174 810 l 174 506 l 478 506 l 478 419 l 174 419 l 174 115 l 608 115 l 608 28 l 86 28 z "},"ẹ":{"ha":694,"x_min":86,"x_max":608,"o":"m 304 -189 l 304 -15 l 390 -15 l 390 -189 l 304 -189 m 86 532 l 192 636 l 503 636 l 608 532 l 608 289 l 169 289 l 200 138 l 608 142 l 578 50 l 213 24 l 86 124 l 86 532 m 525 375 l 499 528 l 235 554 l 174 493 l 174 375 l 525 375 z "},"Ẽ":{"ha":694,"x_min":86,"x_max":608,"o":"m 86 28 l 86 897 l 608 897 l 608 810 l 174 810 l 174 506 l 478 506 l 478 419 l 174 419 l 174 115 l 608 115 l 608 28 l 86 28 m 131 1057 l 186 1114 l 317 1114 l 478 971 l 478 1114 l 568 1114 l 543 961 l 386 931 l 217 1083 l 217 940 l 131 940 l 131 1057 z "},"ẽ":{"ha":694,"x_min":86,"x_max":608,"o":"m 86 532 l 192 636 l 503 636 l 608 532 l 608 289 l 169 289 l 200 138 l 608 142 l 578 50 l 213 24 l 86 124 l 86 532 m 525 375 l 499 528 l 235 554 l 174 493 l 174 375 l 525 375 m 131 840 l 186 897 l 317 897 l 478 753 l 478 897 l 568 897 l 543 744 l 386 714 l 217 867 l 217 722 l 131 722 l 131 840 z "},"Ị":{"ha":694,"x_min":217,"x_max":478,"o":"m 304 -189 l 304 -15 l 390 -15 l 390 -189 l 304 -189 m 217 810 l 217 897 l 478 897 l 478 810 l 390 810 l 390 115 l 478 115 l 478 28 l 217 28 l 217 115 l 304 115 l 304 810 l 217 810 z "},"ị":{"ha":694,"x_min":217,"x_max":478,"o":"m 304 -189 l 304 -15 l 390 -15 l 390 -189 l 304 -189 m 217 550 l 217 636 l 390 636 l 390 115 l 478 115 l 478 28 l 217 28 l 217 115 l 304 115 l 304 550 l 217 550 m 304 722 l 304 897 l 390 897 l 390 722 l 304 722 z "},"Ọ":{"ha":694,"x_min":86,"x_max":608,"o":"m 304 -189 l 304 -15 l 390 -15 l 390 -189 l 304 -189 m 86 792 l 192 897 l 503 897 l 608 792 l 608 133 l 503 28 l 192 28 l 86 133 l 86 792 m 499 138 l 499 788 l 217 814 l 169 693 l 196 138 l 499 138 z "},"ọ":{"ha":694,"x_min":86,"x_max":608,"o":"m 304 -189 l 304 -15 l 390 -15 l 390 -189 l 304 -189 m 86 532 l 192 636 l 503 636 l 608 532 l 608 133 l 503 28 l 192 28 l 86 133 l 86 532 m 499 138 l 499 528 l 217 554 l 169 428 l 196 138 l 499 138 z "},"Ụ":{"ha":694,"x_min":86,"x_max":608,"o":"m 304 -189 l 304 -15 l 390 -15 l 390 -189 l 304 -189 m 86 133 l 86 897 l 169 897 l 196 138 l 499 138 l 525 897 l 608 897 l 608 133 l 503 28 l 192 28 l 86 133 z "},"ụ":{"ha":694,"x_min":86,"x_max":608,"o":"m 347 -189 l 347 -15 l 433 -15 l 433 -189 l 347 -189 m 86 133 l 86 636 l 169 636 l 196 138 l 521 111 l 521 636 l 608 636 l 608 28 l 192 28 l 86 133 z "},"Ỹ":{"ha":694,"x_min":86,"x_max":608,"o":"m 86 806 l 86 897 l 151 897 l 313 506 l 382 506 l 543 897 l 608 897 l 608 806 l 390 381 l 390 28 l 304 28 l 304 381 l 86 806 m 131 1057 l 186 1114 l 317 1114 l 478 971 l 478 1114 l 568 1114 l 543 961 l 386 931 l 217 1083 l 217 940 l 131 940 l 131 1057 z "},"ỹ":{"ha":694,"x_min":86,"x_max":608,"o":"m 86 133 l 86 636 l 169 636 l 196 138 l 521 111 l 521 636 l 608 636 l 608 -85 l 503 -189 l 131 -189 l 131 -106 l 490 -81 l 529 28 l 192 28 l 86 133 m 131 840 l 186 897 l 317 897 l 478 753 l 478 897 l 568 897 l 543 744 l 386 714 l 217 867 l 217 722 l 131 722 l 131 840 z "}," ":{"ha":694,"x_min":0,"x_max":0,"o":""}," ":{"ha":694,"x_min":0,"x_max":0,"o":""}," ":{"ha":694,"x_min":0,"x_max":0,"o":""}," ":{"ha":694,"x_min":0,"x_max":0,"o":""}," ":{"ha":694,"x_min":0,"x_max":0,"o":""}," ":{"ha":694,"x_min":0,"x_max":0,"o":""}," ":{"ha":694,"x_min":0,"x_max":0,"o":""}," ":{"ha":694,"x_min":0,"x_max":0,"o":""}," ":{"ha":694,"x_min":0,"x_max":0,"o":""}," ":{"ha":694,"x_min":0,"x_max":0,"o":""}," ":{"ha":694,"x_min":0,"x_max":0,"o":""},"​":{"ha":694,"x_min":0,"x_max":0,"o":""},"‌":{"ha":694,"x_min":0,"x_max":0,"o":""},"‍":{"ha":694,"x_min":0,"x_max":0,"o":""},"‎":{"ha":694,"x_min":0,"x_max":0,"o":""},"‏":{"ha":694,"x_min":0,"x_max":0,"o":""},"‐":{"ha":694,"x_min":131,"x_max":564,"o":"m 131 419 l 131 506 l 564 506 l 564 419 l 131 419 z "},"‑":{"ha":694,"x_min":131,"x_max":564,"o":"m 131 419 l 131 506 l 564 506 l 564 419 l 131 419 z "},"‒":{"ha":694,"x_min":86,"x_max":608,"o":"m 86 419 l 86 506 l 608 506 l 608 419 l 86 419 z "},"–":{"ha":694,"x_min":86,"x_max":608,"o":"m 86 419 l 86 506 l 608 506 l 608 419 l 86 419 z "},"—":{"ha":694,"x_min":43,"x_max":608,"o":"m 43 419 l 43 506 l 608 506 l 608 419 l 43 419 z "},"―":{"ha":694,"x_min":43,"x_max":608,"o":"m 43 419 l 43 506 l 608 506 l 608 419 l 43 419 z "},"‖":{"ha":694,"x_min":217,"x_max":478,"o":"m 390 28 l 390 897 l 478 897 l 478 28 l 390 28 m 217 28 l 217 897 l 304 897 l 304 28 l 217 28 z "},"‗":{"ha":694,"x_min":86,"x_max":608,"o":"m 86 -232 l 86 -144 l 608 -144 l 608 -232 l 86 -232 m 86 -58 l 86 28 l 608 28 l 608 -58 l 86 -58 z "},"‘":{"ha":694,"x_min":294,"x_max":433,"o":"m 294 763 l 347 983 l 433 983 l 378 744 l 347 710 l 294 763 z "},"’":{"ha":694,"x_min":269,"x_max":390,"o":"m 269 744 l 313 983 l 390 983 l 390 832 l 308 706 l 269 744 z "},"‚":{"ha":694,"x_min":269,"x_max":390,"o":"m 269 -36 l 313 203 l 390 203 l 390 50 l 308 -75 l 269 -36 z "},"‛":{"ha":694,"x_min":304,"x_max":425,"o":"m 304 832 l 304 983 l 382 983 l 425 744 l 386 706 l 304 832 z "},"“":{"ha":694,"x_min":165,"x_max":564,"o":"m 425 763 l 478 983 l 564 983 l 508 744 l 478 710 l 425 763 m 165 763 l 217 983 l 304 983 l 247 744 l 217 710 l 165 763 z "},"”":{"ha":694,"x_min":182,"x_max":564,"o":"m 443 744 l 486 983 l 564 983 l 564 832 l 482 706 l 443 744 m 182 744 l 225 983 l 304 983 l 304 832 l 221 706 l 182 744 z "},"„":{"ha":694,"x_min":139,"x_max":521,"o":"m 400 -36 l 443 203 l 521 203 l 521 50 l 439 -75 l 400 -36 m 139 -36 l 182 203 l 261 203 l 261 50 l 178 -75 l 139 -36 z "},"‟":{"ha":694,"x_min":131,"x_max":513,"o":"m 390 832 l 390 983 l 469 983 l 513 744 l 474 706 l 390 832 m 131 832 l 131 983 l 208 983 l 251 744 l 213 706 l 131 832 z "},"†":{"ha":694,"x_min":131,"x_max":564,"o":"m 304 722 l 304 897 l 390 897 l 390 722 l 564 722 l 564 636 l 390 636 l 390 28 l 304 28 l 304 636 l 131 636 l 131 722 l 304 722 z "},"‡":{"ha":694,"x_min":131,"x_max":564,"o":"m 304 722 l 304 897 l 390 897 l 390 722 l 564 722 l 564 636 l 390 636 l 390 289 l 564 289 l 564 203 l 390 203 l 390 28 l 304 28 l 304 203 l 131 203 l 131 289 l 304 289 l 304 636 l 131 636 l 131 722 l 304 722 z "},"•":{"ha":694,"x_min":208,"x_max":456,"o":"m 208 463 l 261 597 l 456 571 l 456 354 l 261 328 l 208 463 z "},"…":{"ha":694,"x_min":86,"x_max":608,"o":"m 521 28 l 521 203 l 608 203 l 608 28 l 521 28 m 304 28 l 304 203 l 390 203 l 390 28 l 304 28 m 86 28 l 86 203 l 174 203 l 174 28 l 86 28 z "},"‰":{"ha":694,"x_min":39,"x_max":629,"o":"m 251 158 l 300 285 l 629 267 l 629 50 l 300 33 l 251 158 m 39 64 l 456 897 l 521 897 l 521 853 l 122 50 l 86 15 l 39 64 m 78 767 l 131 901 l 282 875 l 282 658 l 131 632 l 78 767 z "},"′":{"ha":694,"x_min":304,"x_max":443,"o":"m 304 636 l 304 983 l 443 983 l 390 788 l 390 636 l 304 636 z "},"″":{"ha":694,"x_min":131,"x_max":529,"o":"m 390 636 l 390 983 l 529 983 l 478 788 l 478 636 l 390 636 m 131 636 l 131 983 l 269 983 l 217 788 l 217 636 l 131 636 z "},"‹":{"ha":694,"x_min":113,"x_max":539,"o":"m 113 332 l 408 636 l 539 636 l 243 332 l 539 28 l 408 28 l 113 332 z "},"›":{"ha":694,"x_min":113,"x_max":539,"o":"m 408 332 l 113 636 l 243 636 l 539 332 l 243 28 l 113 28 l 408 332 z "},"‼":{"ha":694,"x_min":174,"x_max":521,"o":"m 433 28 l 433 203 l 521 203 l 521 28 l 433 28 m 174 28 l 174 203 l 261 203 l 261 28 l 174 28 m 433 332 l 433 897 l 521 897 l 521 332 l 433 332 m 174 332 l 174 897 l 261 897 l 261 332 l 174 332 z "},"‾":{"ha":694,"x_min":86,"x_max":608,"o":"m 86 983 l 86 1069 l 608 1069 l 608 983 l 86 983 z "},"⁰":{"ha":694,"x_min":169,"x_max":525,"o":"m 169 901 l 269 1026 l 425 1026 l 525 901 l 499 624 l 347 528 l 196 624 l 169 901 m 433 636 l 433 940 l 261 940 l 261 636 l 433 636 z "},"ⁱ":{"ha":694,"x_min":217,"x_max":478,"o":"m 217 897 l 217 983 l 390 983 l 390 636 l 478 636 l 478 550 l 217 550 l 217 636 l 304 636 l 304 897 l 217 897 m 304 1026 l 304 1157 l 390 1157 l 390 1026 l 304 1026 z "},"⁴":{"ha":694,"x_min":174,"x_max":521,"o":"m 174 740 l 451 1026 l 521 1026 l 521 550 l 433 550 l 433 636 l 174 636 l 174 740 m 433 722 l 433 853 l 400 853 l 294 722 l 433 722 z "},"⁵":{"ha":694,"x_min":165,"x_max":499,"o":"m 174 767 l 174 1026 l 478 1026 l 478 940 l 261 940 l 261 857 l 499 832 l 499 571 l 204 571 l 165 679 l 433 628 l 433 767 l 174 767 z "},"⁶":{"ha":694,"x_min":169,"x_max":499,"o":"m 169 901 l 269 1026 l 478 1026 l 478 940 l 261 940 l 261 857 l 499 832 l 499 571 l 196 571 l 169 901 m 433 636 l 433 767 l 261 767 l 261 636 l 433 636 z "},"⁷":{"ha":694,"x_min":174,"x_max":521,"o":"m 174 901 l 174 1026 l 521 1026 l 521 918 l 369 550 l 304 550 l 308 658 l 429 875 l 433 953 l 174 901 z "},"⁸":{"ha":694,"x_min":178,"x_max":499,"o":"m 178 918 l 217 1031 l 499 1006 l 499 571 l 196 571 l 178 918 m 433 853 l 433 940 l 261 940 l 261 853 l 433 853 m 433 636 l 433 767 l 261 767 l 261 636 l 433 636 z "},"⁹":{"ha":694,"x_min":165,"x_max":525,"o":"m 165 901 l 217 1031 l 499 1006 l 525 675 l 425 550 l 217 550 l 217 636 l 433 636 l 433 718 l 196 744 l 165 901 m 433 810 l 433 940 l 261 940 l 261 810 l 433 810 z "},"⁺":{"ha":694,"x_min":174,"x_max":521,"o":"m 304 810 l 304 940 l 390 940 l 390 810 l 521 810 l 521 722 l 390 722 l 390 593 l 304 593 l 304 722 l 174 722 l 174 810 l 304 810 z "},"⁻":{"ha":694,"x_min":131,"x_max":521,"o":"m 131 722 l 131 810 l 521 810 l 521 722 l 131 722 z "},"⁼":{"ha":694,"x_min":131,"x_max":521,"o":"m 131 636 l 131 722 l 521 722 l 521 636 l 131 636 m 131 853 l 131 940 l 521 940 l 521 853 l 131 853 z "},"⁽":{"ha":694,"x_min":261,"x_max":451,"o":"m 261 922 l 364 1026 l 451 1026 l 347 922 l 347 653 l 451 550 l 364 550 l 261 653 l 261 922 z "},"⁾":{"ha":694,"x_min":243,"x_max":433,"o":"m 347 922 l 243 1026 l 331 1026 l 433 922 l 433 653 l 331 550 l 243 550 l 347 653 l 347 922 z "},"ⁿ":{"ha":694,"x_min":131,"x_max":521,"o":"m 131 550 l 131 983 l 417 983 l 521 879 l 521 550 l 433 550 l 433 897 l 217 897 l 217 550 l 131 550 z "},"₀":{"ha":694,"x_min":169,"x_max":525,"o":"m 169 250 l 269 375 l 425 375 l 525 250 l 499 -28 l 347 -124 l 196 -28 l 169 250 m 433 -15 l 433 289 l 261 289 l 261 -15 l 433 -15 z "},"₁":{"ha":694,"x_min":196,"x_max":478,"o":"m 196 232 l 313 375 l 390 375 l 390 -15 l 478 -15 l 478 -101 l 217 -101 l 217 -15 l 304 -15 l 304 193 l 196 232 z "},"₂":{"ha":694,"x_min":165,"x_max":529,"o":"m 165 242 l 217 381 l 499 354 l 529 193 l 335 -15 l 521 -15 l 521 -101 l 174 -101 l 174 -32 l 433 219 l 433 289 l 269 289 l 231 181 l 165 242 z "},"₃":{"ha":694,"x_min":165,"x_max":499,"o":"m 174 319 l 235 381 l 499 354 l 499 -81 l 204 -81 l 165 28 l 433 -24 l 433 115 l 304 115 l 304 203 l 433 203 l 433 301 l 174 250 l 174 319 z "},"₄":{"ha":694,"x_min":174,"x_max":521,"o":"m 174 89 l 451 375 l 521 375 l 521 -101 l 433 -101 l 433 -15 l 174 -15 l 174 89 m 433 72 l 433 203 l 400 203 l 294 72 l 433 72 z "},"₅":{"ha":694,"x_min":165,"x_max":499,"o":"m 174 115 l 174 375 l 478 375 l 478 289 l 261 289 l 261 207 l 499 181 l 499 -81 l 204 -81 l 165 28 l 433 -24 l 433 115 l 174 115 z "},"₆":{"ha":694,"x_min":169,"x_max":499,"o":"m 169 250 l 269 375 l 478 375 l 478 289 l 261 289 l 261 207 l 499 181 l 499 -81 l 196 -81 l 169 250 m 433 -15 l 433 115 l 261 115 l 261 -15 l 433 -15 z "},"₇":{"ha":694,"x_min":174,"x_max":521,"o":"m 174 250 l 174 375 l 521 375 l 521 267 l 369 -101 l 304 -101 l 308 7 l 429 224 l 433 301 l 174 250 z "},"₈":{"ha":694,"x_min":178,"x_max":499,"o":"m 178 267 l 217 381 l 499 354 l 499 -81 l 196 -81 l 178 267 m 433 203 l 433 289 l 261 289 l 261 203 l 433 203 m 433 -15 l 433 115 l 261 115 l 261 -15 l 433 -15 z "},"₉":{"ha":694,"x_min":165,"x_max":525,"o":"m 165 250 l 217 381 l 499 354 l 525 24 l 425 -101 l 217 -101 l 217 -15 l 433 -15 l 433 68 l 196 93 l 165 250 m 433 158 l 433 289 l 261 289 l 261 158 l 433 158 z "},"₊":{"ha":694,"x_min":174,"x_max":521,"o":"m 304 158 l 304 289 l 390 289 l 390 158 l 521 158 l 521 72 l 390 72 l 390 -58 l 304 -58 l 304 72 l 174 72 l 174 158 l 304 158 z "},"₋":{"ha":694,"x_min":131,"x_max":521,"o":"m 131 72 l 131 158 l 521 158 l 521 72 l 131 72 z "},"₌":{"ha":694,"x_min":131,"x_max":521,"o":"m 131 -15 l 131 72 l 521 72 l 521 -15 l 131 -15 m 131 203 l 131 289 l 521 289 l 521 203 l 131 203 z "},"₍":{"ha":694,"x_min":261,"x_max":451,"o":"m 261 272 l 364 375 l 451 375 l 347 272 l 347 3 l 451 -101 l 364 -101 l 261 3 l 261 272 z "},"₎":{"ha":694,"x_min":243,"x_max":433,"o":"m 347 272 l 243 375 l 331 375 l 433 272 l 433 3 l 331 -101 l 243 -101 l 347 3 l 347 272 z "},"ₐ":{"ha":694,"x_min":151,"x_max":521,"o":"m 174 246 l 174 332 l 417 332 l 521 228 l 521 -106 l 151 -81 l 151 138 l 433 163 l 433 246 l 174 246 m 433 -15 l 433 72 l 217 72 l 217 -15 l 433 -15 z "},"ₑ":{"ha":694,"x_min":131,"x_max":525,"o":"m 131 228 l 235 332 l 417 332 l 521 228 l 521 72 l 217 72 l 217 -15 l 525 -15 l 474 -101 l 235 -101 l 131 3 l 131 228 m 433 158 l 433 246 l 217 246 l 217 158 l 433 158 z "},"ₒ":{"ha":694,"x_min":131,"x_max":521,"o":"m 131 228 l 235 332 l 417 332 l 521 228 l 521 3 l 417 -101 l 235 -101 l 131 3 l 131 228 m 433 -15 l 433 246 l 217 246 l 217 -15 l 433 -15 z "},"ₓ":{"ha":694,"x_min":117,"x_max":533,"o":"m 131 276 l 131 332 l 208 332 l 317 197 l 478 346 l 533 289 l 378 115 l 533 -58 l 478 -119 l 331 28 l 174 -115 l 117 -58 l 274 115 l 131 276 z "},"ₔ":{"ha":694,"x_min":126,"x_max":521,"o":"m 126 246 l 178 332 l 417 332 l 521 228 l 521 3 l 417 -101 l 235 -101 l 131 3 l 131 158 l 433 158 l 433 246 l 126 246 m 433 -15 l 433 72 l 217 72 l 217 -15 l 433 -15 z "},"ₕ":{"ha":694,"x_min":131,"x_max":521,"o":"m 131 -101 l 131 506 l 217 506 l 217 332 l 417 332 l 521 228 l 521 -101 l 433 -101 l 433 246 l 217 246 l 217 -101 l 131 -101 z "},"ₖ":{"ha":694,"x_min":174,"x_max":578,"o":"m 174 -101 l 174 506 l 261 506 l 261 146 l 460 332 l 578 332 l 378 115 l 578 -101 l 460 -101 l 261 85 l 261 -101 l 174 -101 z "},"ₗ":{"ha":694,"x_min":217,"x_max":478,"o":"m 217 419 l 217 506 l 390 506 l 390 -15 l 478 -15 l 478 -101 l 217 -101 l 217 -15 l 304 -15 l 304 419 l 217 419 z "},"ₘ":{"ha":694,"x_min":86,"x_max":608,"o":"m 86 -101 l 86 332 l 503 332 l 608 228 l 608 -101 l 521 -101 l 521 246 l 390 246 l 390 -101 l 304 -101 l 304 246 l 174 246 l 174 -101 l 86 -101 z "},"ₚ":{"ha":694,"x_min":131,"x_max":521,"o":"m 131 -232 l 131 332 l 417 332 l 521 228 l 521 3 l 417 -101 l 217 -101 l 217 -232 l 131 -232 m 433 -15 l 433 246 l 217 246 l 217 -15 l 433 -15 z "},"₧":{"ha":694,"x_min":43,"x_max":651,"o":"m 433 375 l 433 506 l 521 506 l 521 375 l 651 375 l 651 289 l 521 289 l 521 115 l 651 115 l 651 24 l 456 50 l 429 289 l 304 289 l 304 375 l 433 375 m 43 28 l 43 897 l 331 897 l 433 792 l 433 524 l 331 419 l 131 419 l 131 28 l 43 28 m 325 528 l 325 788 l 131 814 l 131 501 l 325 528 z "},"€":{"ha":694,"x_min":-22,"x_max":664,"o":"m 86 697 l 274 897 l 508 897 l 664 722 l 525 722 l 474 810 l 335 810 l 174 667 l 174 593 l 433 593 l 433 506 l 174 506 l 174 419 l 433 419 l 433 332 l 174 332 l 174 276 l 317 115 l 474 115 l 525 203 l 664 203 l 508 28 l 286 28 l 86 215 l 86 324 l -22 367 l 108 463 l -22 558 l 86 601 l 86 697 z "},"₮":{"ha":694,"x_min":86,"x_max":608,"o":"m 86 810 l 86 897 l 608 897 l 608 810 l 390 810 l 390 558 l 586 601 l 369 424 l 586 467 l 390 324 l 390 28 l 304 28 l 304 281 l 108 236 l 325 415 l 108 371 l 304 514 l 304 810 l 86 810 z "},"ℎ":{"ha":694,"x_min":86,"x_max":608,"o":"m 86 28 l 86 897 l 174 897 l 174 636 l 503 636 l 608 532 l 608 28 l 525 28 l 499 528 l 174 554 l 174 28 l 86 28 z "},"ℏ":{"ha":694,"x_min":65,"x_max":608,"o":"m 65 788 l 96 897 l 174 897 l 174 810 l 390 810 l 390 722 l 174 722 l 174 636 l 503 636 l 608 532 l 608 28 l 525 28 l 499 528 l 174 554 l 174 28 l 92 28 l 65 788 z "},"№":{"ha":694,"x_min":0,"x_max":651,"o":"m 433 115 l 433 203 l 651 203 l 651 115 l 433 115 m 433 246 l 433 332 l 651 332 l 651 246 l 433 246 m 425 722 l 478 857 l 629 832 l 629 614 l 478 589 l 425 722 m 0 28 l 0 897 l 65 892 l 294 397 l 304 897 l 390 897 l 390 28 l 304 28 l 300 181 l 92 571 l 86 28 l 0 28 z "},"™":{"ha":694,"x_min":43,"x_max":651,"o":"m 347 550 l 347 897 l 513 792 l 651 906 l 651 550 l 564 550 l 564 753 l 433 753 l 433 550 l 347 550 m 43 810 l 43 897 l 304 897 l 304 810 l 217 810 l 217 550 l 131 550 l 131 810 l 43 810 z "},"Ω":{"ha":694,"x_min":86,"x_max":608,"o":"m 86 792 l 192 897 l 503 897 l 608 792 l 608 297 l 478 193 l 478 115 l 608 115 l 608 28 l 390 28 l 390 236 l 525 346 l 499 788 l 196 788 l 169 346 l 304 236 l 304 28 l 86 28 l 86 115 l 217 115 l 217 193 l 86 297 l 86 792 z "},"←":{"ha":694,"x_min":26,"x_max":651,"o":"m 26 463 l 278 722 l 347 722 l 347 667 l 204 506 l 651 506 l 651 419 l 204 419 l 360 246 l 300 185 l 26 463 z "},"↑":{"ha":694,"x_min":69,"x_max":625,"o":"m 69 636 l 321 897 l 374 897 l 625 636 l 564 579 l 390 736 l 390 28 l 304 28 l 304 736 l 131 579 l 69 636 z "},"→":{"ha":694,"x_min":43,"x_max":668,"o":"m 347 667 l 347 722 l 417 722 l 668 463 l 394 185 l 335 246 l 490 419 l 43 419 l 43 506 l 490 506 l 347 667 z "},"↓":{"ha":694,"x_min":69,"x_max":625,"o":"m 304 189 l 304 897 l 390 897 l 390 189 l 564 346 l 625 285 l 347 7 l 69 285 l 131 346 l 304 189 z "},"↔":{"ha":694,"x_min":-17,"x_max":717,"o":"m -17 463 l 235 722 l 304 722 l 304 667 l 161 506 l 533 506 l 378 679 l 439 740 l 717 463 l 439 185 l 378 246 l 533 419 l 161 419 l 317 246 l 256 185 l -17 463 z "},"↕":{"ha":694,"x_min":69,"x_max":625,"o":"m 69 636 l 321 897 l 374 897 l 625 636 l 564 579 l 390 736 l 390 189 l 564 346 l 625 285 l 347 7 l 69 285 l 131 346 l 304 189 l 304 736 l 131 579 l 69 636 z "},"↨":{"ha":694,"x_min":69,"x_max":625,"o":"m 69 636 l 321 897 l 374 897 l 625 636 l 564 579 l 390 736 l 390 276 l 564 432 l 625 375 l 374 115 l 608 115 l 608 28 l 86 28 l 86 115 l 321 115 l 69 375 l 131 432 l 304 276 l 304 736 l 131 579 l 69 636 z "},"↵":{"ha":694,"x_min":22,"x_max":608,"o":"m 521 332 l 521 897 l 608 897 l 608 246 l 204 246 l 360 72 l 300 11 l 22 289 l 300 567 l 360 506 l 204 332 l 521 332 z "},"⇐":{"ha":694,"x_min":-17,"x_max":651,"o":"m -17 463 l 235 722 l 313 722 l 265 593 l 651 593 l 651 506 l 174 506 l 174 419 l 651 419 l 651 332 l 265 332 l 313 203 l 235 203 l -17 463 z "},"⇑":{"ha":694,"x_min":86,"x_max":608,"o":"m 86 653 l 321 897 l 364 897 l 608 663 l 608 583 l 478 632 l 478 28 l 390 28 l 390 722 l 304 722 l 304 28 l 217 28 l 217 632 l 86 583 l 86 653 z "},"⇒":{"ha":694,"x_min":0,"x_max":668,"o":"m 386 593 l 339 722 l 417 722 l 668 463 l 417 203 l 339 203 l 386 332 l 0 332 l 0 419 l 478 419 l 478 506 l 0 506 l 0 593 l 386 593 z "},"⇓":{"ha":694,"x_min":86,"x_max":608,"o":"m 217 293 l 217 897 l 304 897 l 304 203 l 390 203 l 390 897 l 478 897 l 478 293 l 608 342 l 608 263 l 347 11 l 86 263 l 86 342 l 217 293 z "},"⇔":{"ha":694,"x_min":-17,"x_max":711,"o":"m -17 463 l 235 722 l 313 722 l 265 593 l 429 593 l 382 722 l 460 722 l 711 463 l 460 203 l 382 203 l 429 332 l 265 332 l 313 203 l 235 203 l -17 463 m 521 419 l 521 506 l 174 506 l 174 419 l 521 419 z "},"⇕":{"ha":694,"x_min":86,"x_max":608,"o":"m 86 653 l 321 897 l 364 897 l 608 663 l 608 583 l 478 632 l 478 293 l 608 342 l 608 263 l 347 11 l 86 263 l 86 342 l 217 293 l 217 632 l 86 583 l 86 653 m 390 203 l 390 722 l 304 722 l 304 203 l 390 203 z "},"∀":{"ha":694,"x_min":43,"x_max":608,"o":"m 43 788 l 43 897 l 122 897 l 174 636 l 478 636 l 533 897 l 608 897 l 608 788 l 378 28 l 274 28 l 43 788 m 425 440 l 433 550 l 217 550 l 217 493 l 321 146 l 425 440 z "},"∃":{"ha":694,"x_min":86,"x_max":608,"o":"m 86 810 l 86 897 l 608 897 l 608 28 l 86 28 l 86 115 l 521 115 l 521 419 l 86 419 l 86 506 l 521 506 l 521 810 l 86 810 z "},"∄":{"ha":694,"x_min":31,"x_max":608,"o":"m 482 897 l 529 1026 l 608 1026 l 608 28 l 178 28 l 96 -124 l 31 -62 l 261 375 l 261 419 l 86 419 l 86 506 l 286 506 l 433 810 l 86 810 l 86 897 l 482 897 m 521 506 l 521 767 l 490 767 l 390 544 l 390 506 l 521 506 m 521 115 l 521 419 l 364 419 l 217 115 l 521 115 z "},"∅":{"ha":694,"x_min":86,"x_max":564,"o":"m 429 722 l 482 897 l 564 897 l 564 849 l 478 683 l 564 632 l 564 306 l 460 203 l 221 203 l 169 28 l 86 28 l 86 76 l 174 242 l 86 293 l 86 619 l 192 722 l 429 722 m 343 571 l 347 636 l 174 636 l 178 267 l 343 571 m 478 636 l 451 636 l 304 328 l 304 289 l 478 289 l 478 636 z "},"∆":{"ha":694,"x_min":86,"x_max":608,"o":"m 86 176 l 321 897 l 374 897 l 608 176 l 608 28 l 86 28 l 86 176 m 521 172 l 374 636 l 321 636 l 174 172 l 174 115 l 521 115 l 521 172 z "},"∈":{"ha":694,"x_min":86,"x_max":608,"o":"m 86 683 l 300 897 l 608 897 l 608 810 l 308 810 l 174 675 l 174 506 l 608 506 l 608 419 l 174 419 l 174 250 l 308 115 l 608 115 l 608 28 l 300 28 l 86 242 l 86 683 z "},"∉":{"ha":694,"x_min":78,"x_max":656,"o":"m 525 897 l 572 1026 l 656 1026 l 599 836 l 433 571 l 433 506 l 608 506 l 608 419 l 404 419 l 304 197 l 304 115 l 608 115 l 608 15 l 221 58 l 169 -101 l 78 -101 l 143 50 q 104 428 131 181 l 78 675 l 300 897 l 525 897 m 331 506 l 478 810 l 308 810 l 174 675 l 174 506 l 331 506 m 304 350 l 304 419 l 174 419 l 178 181 l 304 350 z "},"∊":{"ha":694,"x_min":86,"x_max":608,"o":"m 86 593 l 261 767 l 608 767 l 608 679 l 278 679 l 174 575 l 174 506 l 608 506 l 608 419 l 174 419 l 174 350 l 278 246 l 608 246 l 608 158 l 261 158 l 86 332 l 86 593 z "},"∋":{"ha":694,"x_min":86,"x_max":608,"o":"m 86 810 l 86 897 l 394 897 l 608 683 l 608 242 l 394 28 l 86 28 l 86 115 l 386 115 l 521 250 l 521 419 l 86 419 l 86 506 l 521 506 l 521 675 l 386 810 l 86 810 z "},"∌":{"ha":694,"x_min":39,"x_max":617,"o":"m 96 836 l 39 1026 l 122 1026 l 169 897 l 394 897 l 617 675 q 558 115 564 181 l 551 50 l 617 -101 l 525 -101 l 474 58 l 86 15 l 86 115 l 390 115 l 390 197 l 290 419 l 86 419 l 86 506 l 261 506 l 261 571 l 96 836 m 521 675 l 386 810 l 217 810 l 364 506 l 521 506 l 521 675 m 517 181 l 521 419 l 390 419 l 390 350 l 517 181 z "},"∍":{"ha":694,"x_min":86,"x_max":608,"o":"m 86 679 l 86 767 l 433 767 l 608 593 l 608 332 l 433 158 l 86 158 l 86 246 l 417 246 l 521 350 l 521 419 l 86 419 l 86 506 l 521 506 l 521 575 l 417 679 l 86 679 z "},"−":{"ha":694,"x_min":86,"x_max":608,"o":"m 86 419 l 86 506 l 608 506 l 608 419 l 86 419 z "},"∙":{"ha":694,"x_min":204,"x_max":439,"o":"m 204 458 l 261 597 l 413 571 l 439 419 l 300 363 l 204 458 z "},"√":{"ha":694,"x_min":86,"x_max":651,"o":"m 478 97 l 478 1026 l 651 1026 l 651 940 l 564 940 l 564 28 l 417 28 l 86 350 l 86 506 l 174 506 l 174 393 l 478 97 z "},"∞":{"ha":694,"x_min":43,"x_max":651,"o":"m 43 575 l 139 671 l 543 667 l 651 583 l 651 342 l 543 254 l 151 254 l 43 342 l 43 575 m 282 363 l 282 563 l 174 601 l 122 463 l 174 324 l 282 363 m 543 363 l 543 563 l 433 601 l 382 463 l 433 324 l 543 363 z "},"∟":{"ha":694,"x_min":86,"x_max":608,"o":"m 86 203 l 86 722 l 174 722 l 174 289 l 608 289 l 608 203 l 86 203 z "},"∧":{"ha":694,"x_min":82,"x_max":613,"o":"m 139 224 l 313 636 l 382 636 l 556 224 l 613 28 l 529 28 l 382 463 l 313 463 l 165 28 l 82 28 l 139 224 z "},"∨":{"ha":694,"x_min":82,"x_max":613,"o":"m 139 440 l 82 636 l 165 636 l 313 203 l 382 203 l 529 636 l 613 636 l 556 440 l 382 28 l 313 28 l 139 440 z "},"∩":{"ha":694,"x_min":86,"x_max":608,"o":"m 86 663 l 192 767 l 503 767 l 608 663 l 608 28 l 525 28 l 499 658 l 196 658 l 169 28 l 86 28 l 86 663 z "},"∪":{"ha":694,"x_min":86,"x_max":608,"o":"m 86 133 l 86 767 l 169 767 l 196 138 l 499 138 l 525 767 l 608 767 l 608 133 l 503 28 l 192 28 l 86 133 z "},"≈":{"ha":694,"x_min":78,"x_max":617,"o":"m 78 285 l 126 419 l 331 419 l 429 319 l 564 432 l 617 381 l 568 246 l 364 246 l 265 346 l 131 232 l 78 285 m 78 544 l 126 679 l 331 679 l 429 579 l 564 693 l 617 640 l 568 506 l 364 506 l 265 606 l 131 493 l 78 544 z "},"≠":{"ha":694,"x_min":43,"x_max":608,"o":"m 429 636 l 482 722 l 590 722 l 603 550 l 490 550 l 335 375 l 608 375 l 608 289 l 221 289 l 169 203 l 61 203 l 47 375 l 204 375 l 360 550 l 43 550 l 43 636 l 429 636 z "},"≡":{"ha":694,"x_min":86,"x_max":608,"o":"m 86 158 l 86 246 l 608 246 l 608 158 l 86 158 m 86 419 l 86 506 l 608 506 l 608 419 l 86 419 m 86 679 l 86 767 l 608 767 l 608 679 l 86 679 z "},"≤":{"ha":694,"x_min":86,"x_max":608,"o":"m 86 28 l 86 115 l 608 115 l 608 28 l 86 28 m 113 550 l 451 897 l 582 897 l 243 550 l 582 203 l 451 203 l 113 550 z "},"≥":{"ha":694,"x_min":86,"x_max":608,"o":"m 86 28 l 86 115 l 608 115 l 608 28 l 86 28 m 451 550 l 113 897 l 243 897 l 582 550 l 243 203 l 113 203 l 451 550 z "},"⌀":{"ha":694,"x_min":86,"x_max":564,"o":"m 429 722 l 482 897 l 564 897 l 564 849 l 478 683 l 564 632 l 564 306 l 460 203 l 221 203 l 169 28 l 86 28 l 86 76 l 174 242 l 86 293 l 86 619 l 192 722 l 429 722 m 343 571 l 347 636 l 174 636 l 178 267 l 343 571 m 478 636 l 451 636 l 304 328 l 304 289 l 478 289 l 478 636 z "},"⌂":{"ha":694,"x_min":43,"x_max":651,"o":"m 43 436 l 321 722 l 364 722 l 651 444 l 651 28 l 43 28 l 43 436 m 564 406 l 364 593 l 317 593 l 131 393 l 131 115 l 564 115 l 564 406 z "},"⌐":{"ha":694,"x_min":86,"x_max":608,"o":"m 86 289 l 86 636 l 608 636 l 608 550 l 174 550 l 174 289 l 86 289 z "},"⌙":{"ha":694,"x_min":86,"x_max":608,"o":"m 86 289 l 86 636 l 174 636 l 174 375 l 608 375 l 608 289 l 86 289 z "},"⌠":{"ha":694,"x_min":304,"x_max":617,"o":"m 304 840 l 360 897 l 568 897 l 617 763 l 551 701 l 513 810 l 390 810 l 390 -232 l 304 -232 l 304 840 z "},"⌡":{"ha":694,"x_min":78,"x_max":394,"o":"m 304 115 l 304 1157 l 394 1157 l 369 50 l 131 24 l 78 163 l 143 224 l 182 115 l 304 115 z "},"⎛":{"ha":694,"x_min":131,"x_max":572,"o":"m 261 892 l 486 1157 l 572 1157 l 347 892 l 217 444 l 217 -232 l 131 -232 l 131 444 l 261 892 z "},"⎜":{"ha":694,"x_min":131,"x_max":217,"o":"m 131 -232 l 131 1157 l 217 1157 l 217 -232 l 131 -232 z "},"⎝":{"ha":694,"x_min":131,"x_max":572,"o":"m 131 481 l 131 1157 l 217 1157 l 217 481 l 347 33 l 572 -232 l 486 -232 l 261 33 l 131 481 z "},"⎞":{"ha":694,"x_min":122,"x_max":564,"o":"m 347 892 l 122 1157 l 208 1157 l 433 892 l 564 444 l 564 -232 l 478 -232 l 478 444 l 347 892 z "},"⎟":{"ha":694,"x_min":478,"x_max":564,"o":"m 478 -232 l 478 1157 l 564 1157 l 564 -232 l 478 -232 z "},"⎠":{"ha":694,"x_min":122,"x_max":564,"o":"m 478 481 l 478 1157 l 564 1157 l 564 481 l 433 33 l 208 -232 l 122 -232 l 347 33 l 478 481 z "},"⎡":{"ha":694,"x_min":131,"x_max":564,"o":"m 131 -232 l 131 1157 l 564 1157 l 564 1069 l 217 1069 l 217 -232 l 131 -232 z "},"⎢":{"ha":694,"x_min":131,"x_max":217,"o":"m 131 -232 l 131 1157 l 217 1157 l 217 -232 l 131 -232 z "},"⎣":{"ha":694,"x_min":131,"x_max":564,"o":"m 131 -232 l 131 1157 l 217 1157 l 217 -144 l 564 -144 l 564 -232 l 131 -232 z "},"⎤":{"ha":694,"x_min":131,"x_max":564,"o":"m 131 1069 l 131 1157 l 564 1157 l 564 -232 l 478 -232 l 478 1069 l 131 1069 z "},"⎥":{"ha":694,"x_min":478,"x_max":564,"o":"m 478 -232 l 478 1157 l 564 1157 l 564 -232 l 478 -232 z "},"⎦":{"ha":694,"x_min":131,"x_max":564,"o":"m 478 -144 l 478 1157 l 564 1157 l 564 -232 l 131 -232 l 131 -144 l 478 -144 z "},"⎧":{"ha":694,"x_min":217,"x_max":651,"o":"m 217 983 l 390 1157 l 651 1157 l 651 1069 l 408 1069 l 304 967 l 304 -232 l 217 -232 l 217 983 z "},"⎨":{"ha":694,"x_min":0,"x_max":304,"o":"m 196 571 l 221 1157 l 304 1157 l 304 567 l 200 463 l 304 358 l 304 -232 l 221 -232 l 196 354 l 0 440 l 0 485 l 196 571 z "},"⎩":{"ha":694,"x_min":217,"x_max":651,"o":"m 217 -58 l 217 1157 l 304 1157 l 304 -42 l 408 -144 l 651 -144 l 651 -232 l 390 -232 l 217 -58 z "},"⎫":{"ha":694,"x_min":0,"x_max":433,"o":"m 0 1069 l 0 1157 l 261 1157 l 433 983 l 433 -232 l 347 -232 l 347 967 l 243 1069 l 0 1069 z "},"⎬":{"ha":694,"x_min":347,"x_max":651,"o":"m 347 567 l 347 1157 l 429 1157 l 456 528 l 651 501 l 651 424 l 456 397 l 429 -232 l 347 -232 l 347 358 l 451 463 l 347 567 z "},"⎭":{"ha":694,"x_min":0,"x_max":433,"o":"m 347 -42 l 347 1157 l 433 1157 l 433 -58 l 261 -232 l 0 -232 l 0 -144 l 243 -144 l 347 -42 z "},"⎮":{"ha":694,"x_min":304,"x_max":390,"o":"m 304 -232 l 304 1157 l 390 1157 l 390 -232 l 304 -232 z "},"⎯":{"ha":694,"x_min":0,"x_max":694,"o":"m 0 419 l 0 506 l 694 506 l 694 419 l 0 419 z "},"⎺":{"ha":694,"x_min":0,"x_max":694,"o":"m 0 1069 l 0 1157 l 694 1157 l 694 1069 l 0 1069 z "},"⎻":{"ha":694,"x_min":0,"x_max":694,"o":"m 0 722 l 0 810 l 694 810 l 694 722 l 0 722 z "},"⎼":{"ha":694,"x_min":0,"x_max":694,"o":"m 0 115 l 0 203 l 694 203 l 694 115 l 0 115 z "},"⎽":{"ha":694,"x_min":0,"x_max":694,"o":"m 0 -232 l 0 -144 l 694 -144 l 694 -232 l 0 -232 z "},"⏐":{"ha":694,"x_min":304,"x_max":390,"o":"m 304 -232 l 304 1157 l 390 1157 l 390 -232 l 304 -232 z "},"⏻":{"ha":694,"x_min":0,"x_max":694,"o":"m 347 860 q 305 842 322 860 q 288 800 288 825 l 288 800 l 288 411 q 305 369 288 386 q 347 351 322 351 q 390 369 372 351 q 407 411 407 386 l 407 800 l 407 800 q 390 842 407 825 q 347 860 372 860 l 347 860 m 135 665 l 135 665 q 89 644 107 665 q 0 411 0 546 q 102 167 0 268 q 347 65 204 65 q 592 167 490 65 q 694 411 694 268 q 606 644 694 546 q 560 665 588 665 q 519 648 536 665 q 501 606 501 631 q 517 565 501 581 q 576 411 576 500 q 510 250 576 317 q 348 183 443 183 q 186 250 253 183 q 119 411 119 317 q 178 565 119 500 q 193 606 193 581 q 176 647 193 629 q 135 665 158 664 z "},"⏼":{"ha":694,"x_min":0,"x_max":694,"o":"m 288 353 l 288 571 q 305 613 288 596 q 347 629 322 629 q 390 613 372 629 q 407 571 407 596 l 407 353 q 390 311 407 328 q 347 294 372 294 q 305 312 322 294 q 288 353 288 329 m 0 463 q 101 708 0 607 q 347 810 203 810 l 347 750 l 347 690 q 186 624 253 690 q 119 463 119 557 q 186 301 119 368 q 347 233 254 233 q 510 301 442 233 q 576 463 576 368 q 510 624 576 557 q 347 690 443 690 l 347 750 l 347 810 q 592 708 490 810 q 694 463 694 607 q 593 217 694 319 q 347 115 492 115 q 101 218 203 117 q 0 463 0 319 z "},"⏽":{"ha":694,"x_min":228,"x_max":467,"o":"m 344 1157 q 263 1121 297 1156 q 229 1038 229 1086 l 229 1036 l 229 -111 l 229 -112 q 263 -197 229 -162 q 347 -232 297 -232 q 431 -197 396 -232 q 465 -112 465 -162 l 465 -111 l 465 1036 l 465 1038 q 431 1122 465 1088 q 346 1157 396 1157 l 344 1157 z "},"⏾":{"ha":694,"x_min":-1,"x_max":694,"o":"m 299 939 q 137 826 206 899 q 34 666 68 754 q 1 478 0 578 q 41 285 1 378 q 153 123 81 192 q 314 20 226 54 q 501 -13 401 -14 q 694 28 601 -12 q 441 154 554 61 q 268 383 328 247 q 218 669 208 525 q 299 939 228 813 z "},"␉":{"ha":694,"x_min":43,"x_max":608,"o":"m 261 332 l 261 419 l 608 419 l 608 332 l 478 332 l 478 28 l 390 28 l 390 332 l 261 332 m 43 506 l 43 897 l 131 897 l 131 767 l 304 767 l 304 897 l 390 897 l 390 506 l 304 506 l 304 679 l 131 679 l 131 506 l 43 506 z "},"␊":{"ha":694,"x_min":43,"x_max":608,"o":"m 261 28 l 261 419 l 608 419 l 608 332 l 347 332 l 347 246 l 521 246 l 521 158 l 347 158 l 347 28 l 261 28 m 43 506 l 43 897 l 131 897 l 131 593 l 390 593 l 390 506 l 43 506 z "},"␋":{"ha":694,"x_min":43,"x_max":608,"o":"m 261 332 l 261 419 l 608 419 l 608 332 l 478 332 l 478 28 l 390 28 l 390 332 l 261 332 m 43 649 l 43 897 l 126 897 l 151 614 l 282 614 l 308 897 l 390 897 l 390 649 l 217 493 l 43 649 z "},"␌":{"ha":694,"x_min":43,"x_max":608,"o":"m 261 28 l 261 419 l 608 419 l 608 332 l 347 332 l 347 246 l 521 246 l 521 158 l 347 158 l 347 28 l 261 28 m 43 506 l 43 897 l 390 897 l 390 810 l 131 810 l 131 722 l 304 722 l 304 636 l 131 636 l 131 506 l 43 506 z "},"␍":{"ha":694,"x_min":39,"x_max":625,"o":"m 261 28 l 261 419 l 568 419 l 621 276 l 482 172 l 625 28 l 508 28 l 347 172 l 347 28 l 261 28 m 521 246 l 521 332 l 347 332 l 347 246 l 521 246 m 39 775 l 86 901 l 360 875 l 400 767 l 131 822 l 131 583 l 400 636 l 360 528 l 65 528 l 39 775 z "},"␤":{"ha":694,"x_min":43,"x_max":608,"o":"m 261 28 l 261 419 l 347 419 l 347 115 l 608 115 l 608 28 l 261 28 m 43 506 l 43 897 l 92 897 l 300 658 l 304 897 l 390 897 l 390 506 l 343 506 l 135 744 l 131 506 l 43 506 z "},"─":{"ha":694,"x_min":0,"x_max":694,"o":"m 0 419 l 0 506 l 694 506 l 694 419 l 0 419 z "},"━":{"ha":694,"x_min":0,"x_max":694,"o":"m 0 375 l 0 550 l 694 550 l 694 375 l 0 375 z "},"│":{"ha":694,"x_min":304,"x_max":390,"o":"m 304 -232 l 304 1157 l 390 1157 l 390 -232 l 304 -232 z "},"┃":{"ha":694,"x_min":261,"x_max":433,"o":"m 261 -232 l 261 1157 l 433 1157 l 433 -232 l 261 -232 z "},"┈":{"ha":694,"x_min":0,"x_max":651,"o":"m 478 419 l 478 506 l 651 506 l 651 419 l 478 419 m 217 419 l 217 506 l 433 506 l 433 419 l 217 419 m 0 419 l 0 506 l 174 506 l 174 419 l 0 419 z "},"┉":{"ha":694,"x_min":0,"x_max":651,"o":"m 478 375 l 478 550 l 651 550 l 651 375 l 478 375 m 217 375 l 217 550 l 433 550 l 433 375 l 217 375 m 0 375 l 0 550 l 174 550 l 174 375 l 0 375 z "},"┊":{"ha":694,"x_min":304,"x_max":390,"o":"m 304 -144 l 304 115 l 390 115 l 390 -144 l 304 -144 m 304 203 l 304 463 l 390 463 l 390 203 l 304 203 m 304 550 l 304 810 l 390 810 l 390 550 l 304 550 m 304 897 l 304 1157 l 390 1157 l 390 897 l 304 897 z "},"┋":{"ha":694,"x_min":261,"x_max":433,"o":"m 261 -144 l 261 115 l 433 115 l 433 -144 l 261 -144 m 261 203 l 261 463 l 433 463 l 433 203 l 261 203 m 261 550 l 261 810 l 433 810 l 433 550 l 261 550 m 261 897 l 261 1157 l 433 1157 l 433 897 l 261 897 z "},"┌":{"ha":694,"x_min":304,"x_max":694,"o":"m 304 -232 l 304 506 l 694 506 l 694 419 l 390 419 l 390 -232 l 304 -232 z "},"┍":{"ha":694,"x_min":304,"x_max":694,"o":"m 304 -232 l 304 550 l 694 550 l 694 375 l 390 375 l 390 -232 l 304 -232 z "},"┎":{"ha":694,"x_min":261,"x_max":694,"o":"m 261 -232 l 261 506 l 694 506 l 694 419 l 433 419 l 433 -232 l 261 -232 z "},"┏":{"ha":694,"x_min":261,"x_max":694,"o":"m 261 -232 l 261 550 l 694 550 l 694 375 l 433 375 l 433 -232 l 261 -232 z "},"┐":{"ha":694,"x_min":0,"x_max":390,"o":"m 0 419 l 0 506 l 390 506 l 390 -232 l 304 -232 l 304 419 l 0 419 z "},"┑":{"ha":694,"x_min":0,"x_max":390,"o":"m 0 375 l 0 550 l 390 550 l 390 -232 l 304 -232 l 304 375 l 0 375 z "},"┒":{"ha":694,"x_min":0,"x_max":433,"o":"m 0 419 l 0 506 l 433 506 l 433 -232 l 261 -232 l 261 419 l 0 419 z "},"┓":{"ha":694,"x_min":0,"x_max":433,"o":"m 0 375 l 0 550 l 433 550 l 433 -232 l 261 -232 l 261 375 l 0 375 z "},"└":{"ha":694,"x_min":304,"x_max":694,"o":"m 304 419 l 304 1157 l 390 1157 l 390 506 l 694 506 l 694 419 l 304 419 z "},"┕":{"ha":694,"x_min":304,"x_max":694,"o":"m 304 375 l 304 1157 l 390 1157 l 390 550 l 694 550 l 694 375 l 304 375 z "},"┖":{"ha":694,"x_min":261,"x_max":694,"o":"m 261 419 l 261 1157 l 433 1157 l 433 506 l 694 506 l 694 419 l 261 419 z "},"┗":{"ha":694,"x_min":261,"x_max":694,"o":"m 261 375 l 261 1157 l 433 1157 l 433 550 l 694 550 l 694 375 l 261 375 z "},"┘":{"ha":694,"x_min":0,"x_max":390,"o":"m 304 506 l 304 1157 l 390 1157 l 390 419 l 0 419 l 0 506 l 304 506 z "},"┙":{"ha":694,"x_min":0,"x_max":390,"o":"m 304 550 l 304 1157 l 390 1157 l 390 375 l 0 375 l 0 550 l 304 550 z "},"┚":{"ha":694,"x_min":0,"x_max":433,"o":"m 261 506 l 261 1157 l 433 1157 l 433 419 l 0 419 l 0 506 l 261 506 z "},"┛":{"ha":694,"x_min":0,"x_max":433,"o":"m 261 550 l 261 1157 l 433 1157 l 433 375 l 0 375 l 0 550 l 261 550 z "},"├":{"ha":694,"x_min":304,"x_max":694,"o":"m 304 -232 l 304 1157 l 390 1157 l 390 506 l 694 506 l 694 419 l 390 419 l 390 -232 l 304 -232 z "},"┝":{"ha":694,"x_min":304,"x_max":694,"o":"m 304 -232 l 304 1157 l 390 1157 l 390 550 l 694 550 l 694 375 l 390 375 l 390 -232 l 304 -232 z "},"┞":{"ha":694,"x_min":261,"x_max":694,"o":"m 261 744 l 261 1157 l 433 1157 l 433 506 l 694 506 l 694 419 l 390 419 l 390 -232 l 317 -232 l 261 744 z "},"┟":{"ha":694,"x_min":261,"x_max":694,"o":"m 261 181 l 317 1157 l 390 1157 l 390 506 l 694 506 l 694 419 l 433 419 l 433 -232 l 261 -232 l 261 181 z "},"┠":{"ha":694,"x_min":261,"x_max":694,"o":"m 261 -232 l 261 1157 l 433 1157 l 433 506 l 694 506 l 694 419 l 433 419 l 433 -232 l 261 -232 z "},"┡":{"ha":694,"x_min":261,"x_max":694,"o":"m 261 693 l 261 1157 l 433 1157 l 433 550 l 694 550 l 694 375 l 390 375 l 390 -232 l 317 -232 l 261 693 z "},"┢":{"ha":694,"x_min":261,"x_max":694,"o":"m 261 232 l 317 1157 l 390 1157 l 390 550 l 694 550 l 694 375 l 433 375 l 433 -232 l 261 -232 l 261 232 z "},"┣":{"ha":694,"x_min":261,"x_max":694,"o":"m 261 -232 l 261 1157 l 433 1157 l 433 550 l 694 550 l 694 375 l 433 375 l 433 -232 l 261 -232 z "},"┤":{"ha":694,"x_min":0,"x_max":390,"o":"m 304 506 l 304 1157 l 390 1157 l 390 -232 l 304 -232 l 304 419 l 0 419 l 0 506 l 304 506 z "},"┥":{"ha":694,"x_min":0,"x_max":390,"o":"m 304 550 l 304 1157 l 390 1157 l 390 -232 l 304 -232 l 304 375 l 0 375 l 0 550 l 304 550 z "},"┦":{"ha":694,"x_min":0,"x_max":433,"o":"m 261 506 l 261 1157 l 433 1157 l 433 744 l 378 -232 l 304 -232 l 304 419 l 0 419 l 0 506 l 261 506 z "},"┧":{"ha":694,"x_min":0,"x_max":433,"o":"m 304 506 l 304 1157 l 378 1157 l 433 181 l 433 -232 l 261 -232 l 261 419 l 0 419 l 0 506 l 304 506 z "},"┨":{"ha":694,"x_min":0,"x_max":433,"o":"m 261 506 l 261 1157 l 433 1157 l 433 -232 l 261 -232 l 261 419 l 0 419 l 0 506 l 261 506 z "},"┩":{"ha":694,"x_min":0,"x_max":433,"o":"m 261 550 l 261 1157 l 433 1157 l 433 693 l 378 -232 l 304 -232 l 304 375 l 0 375 l 0 550 l 261 550 z "},"┪":{"ha":694,"x_min":0,"x_max":433,"o":"m 304 550 l 304 1157 l 378 1157 l 433 232 l 433 -232 l 261 -232 l 261 375 l 0 375 l 0 550 l 304 550 z "},"┫":{"ha":694,"x_min":0,"x_max":433,"o":"m 261 550 l 261 1157 l 433 1157 l 433 -232 l 261 -232 l 261 375 l 0 375 l 0 550 l 261 550 z "},"┬":{"ha":694,"x_min":0,"x_max":694,"o":"m 0 419 l 0 506 l 694 506 l 694 419 l 390 419 l 390 -232 l 304 -232 l 304 419 l 0 419 z "},"┭":{"ha":694,"x_min":0,"x_max":694,"o":"m 0 375 l 0 550 l 239 550 l 694 493 l 694 419 l 390 419 l 390 -232 l 304 -232 l 304 375 l 0 375 z "},"┮":{"ha":694,"x_min":0,"x_max":694,"o":"m 0 501 l 325 536 l 694 550 l 694 375 l 390 375 l 390 -232 l 304 -232 l 304 419 l 0 419 l 0 501 z "},"┯":{"ha":694,"x_min":0,"x_max":694,"o":"m 0 375 l 0 550 l 694 550 l 694 375 l 390 375 l 390 -232 l 304 -232 l 304 375 l 0 375 z "},"┰":{"ha":694,"x_min":0,"x_max":694,"o":"m 0 419 l 0 506 l 694 506 l 694 419 l 433 419 l 433 -232 l 261 -232 l 261 419 l 0 419 z "},"┱":{"ha":694,"x_min":0,"x_max":694,"o":"m 0 375 l 0 550 l 290 550 l 694 493 l 694 419 l 433 419 l 433 -232 l 261 -232 l 261 375 l 0 375 z "},"┲":{"ha":694,"x_min":0,"x_max":694,"o":"m 0 501 l 282 536 l 694 550 l 694 375 l 433 375 l 433 -232 l 261 -232 l 261 419 l 0 419 l 0 501 z "},"┳":{"ha":694,"x_min":0,"x_max":694,"o":"m 0 375 l 0 550 l 694 550 l 694 375 l 433 375 l 433 -232 l 261 -232 l 261 375 l 0 375 z "},"┴":{"ha":694,"x_min":0,"x_max":694,"o":"m 304 506 l 304 1157 l 390 1157 l 390 506 l 694 506 l 694 419 l 0 419 l 0 506 l 304 506 z "},"┵":{"ha":694,"x_min":0,"x_max":694,"o":"m 304 550 l 304 1157 l 390 1157 l 390 506 l 694 506 l 694 432 l 239 375 l 0 375 l 0 550 l 304 550 z "},"┶":{"ha":694,"x_min":0,"x_max":694,"o":"m 304 506 l 304 1157 l 390 1157 l 390 550 l 694 550 l 694 375 l 456 375 l 0 432 l 0 506 l 304 506 z "},"┷":{"ha":694,"x_min":0,"x_max":694,"o":"m 304 550 l 304 1157 l 390 1157 l 390 550 l 694 550 l 694 375 l 0 375 l 0 550 l 304 550 z "},"┸":{"ha":694,"x_min":0,"x_max":694,"o":"m 261 506 l 261 1157 l 433 1157 l 433 506 l 694 506 l 694 419 l 0 419 l 0 506 l 261 506 z "},"┹":{"ha":694,"x_min":0,"x_max":694,"o":"m 261 550 l 261 1157 l 433 1157 l 433 506 l 694 506 l 694 432 l 290 375 l 0 375 l 0 550 l 261 550 z "},"┺":{"ha":694,"x_min":0,"x_max":694,"o":"m 261 506 l 261 1157 l 433 1157 l 433 550 l 694 550 l 694 375 l 404 375 l 0 432 l 0 506 l 261 506 z "},"┻":{"ha":694,"x_min":0,"x_max":694,"o":"m 261 550 l 261 1157 l 433 1157 l 433 550 l 694 550 l 694 375 l 0 375 l 0 550 l 261 550 z "},"┼":{"ha":694,"x_min":0,"x_max":694,"o":"m 304 506 l 304 1157 l 390 1157 l 390 506 l 694 506 l 694 419 l 390 419 l 390 -232 l 304 -232 l 304 419 l 0 419 l 0 506 l 304 506 z "},"┽":{"ha":694,"x_min":0,"x_max":694,"o":"m 304 550 l 304 1157 l 390 1157 l 390 506 l 694 506 l 694 419 l 390 419 l 390 -232 l 304 -232 l 304 375 l 0 375 l 0 550 l 304 550 z "},"┾":{"ha":694,"x_min":0,"x_max":694,"o":"m 304 506 l 304 1157 l 390 1157 l 390 550 l 694 550 l 694 375 l 390 375 l 390 -232 l 304 -232 l 304 419 l 0 419 l 0 506 l 304 506 z "},"┿":{"ha":694,"x_min":0,"x_max":694,"o":"m 304 550 l 304 1157 l 390 1157 l 390 550 l 694 550 l 694 375 l 390 375 l 390 -232 l 304 -232 l 304 375 l 0 375 l 0 550 l 304 550 z "},"╀":{"ha":694,"x_min":0,"x_max":694,"o":"m 261 506 l 261 1157 l 433 1157 l 433 506 l 694 506 l 694 419 l 390 419 l 390 -232 l 304 -232 l 304 419 l 0 419 l 0 506 l 261 506 z "},"╁":{"ha":694,"x_min":0,"x_max":694,"o":"m 304 506 l 304 1157 l 390 1157 l 390 506 l 694 506 l 694 419 l 433 419 l 433 -232 l 261 -232 l 261 419 l 0 419 l 0 506 l 304 506 z "},"╂":{"ha":694,"x_min":0,"x_max":694,"o":"m 261 506 l 261 1157 l 433 1157 l 433 506 l 694 506 l 694 419 l 433 419 l 433 -232 l 261 -232 l 261 419 l 0 419 l 0 506 l 261 506 z "},"╃":{"ha":694,"x_min":0,"x_max":694,"o":"m 261 550 l 261 1157 l 433 1157 l 433 506 l 694 506 l 694 419 l 390 419 l 390 -232 l 304 -232 l 304 375 l 0 375 l 0 550 l 261 550 z "},"╄":{"ha":694,"x_min":0,"x_max":694,"o":"m 261 506 l 261 1157 l 433 1157 l 433 550 l 694 550 l 694 375 l 390 375 l 390 -232 l 304 -232 l 304 419 l 0 419 l 0 506 l 261 506 z "},"╅":{"ha":694,"x_min":0,"x_max":694,"o":"m 304 550 l 304 1157 l 390 1157 l 390 506 l 694 506 l 694 419 l 433 419 l 433 -232 l 261 -232 l 261 375 l 0 375 l 0 550 l 304 550 z "},"╆":{"ha":694,"x_min":0,"x_max":694,"o":"m 304 506 l 304 1157 l 390 1157 l 390 550 l 694 550 l 694 375 l 433 375 l 433 -232 l 261 -232 l 261 419 l 0 419 l 0 506 l 304 506 z "},"╇":{"ha":694,"x_min":0,"x_max":694,"o":"m 261 550 l 261 1157 l 433 1157 l 433 550 l 694 550 l 694 375 l 390 375 l 390 -232 l 304 -232 l 304 375 l 0 375 l 0 550 l 261 550 z "},"╈":{"ha":694,"x_min":0,"x_max":694,"o":"m 304 550 l 304 1157 l 390 1157 l 390 550 l 694 550 l 694 375 l 433 375 l 433 -232 l 261 -232 l 261 375 l 0 375 l 0 550 l 304 550 z "},"╉":{"ha":694,"x_min":0,"x_max":694,"o":"m 261 550 l 261 1157 l 433 1157 l 433 506 l 694 506 l 694 419 l 433 419 l 433 -232 l 261 -232 l 261 375 l 0 375 l 0 550 l 261 550 z "},"╊":{"ha":694,"x_min":0,"x_max":694,"o":"m 261 506 l 261 1157 l 433 1157 l 433 550 l 694 550 l 694 375 l 433 375 l 433 -232 l 261 -232 l 261 419 l 0 419 l 0 506 l 261 506 z "},"╋":{"ha":694,"x_min":0,"x_max":694,"o":"m 261 550 l 261 1157 l 433 1157 l 433 550 l 694 550 l 694 375 l 433 375 l 433 -232 l 261 -232 l 261 375 l 0 375 l 0 550 l 261 550 z "},"═":{"ha":694,"x_min":0,"x_max":694,"o":"m 0 332 l 0 419 l 694 419 l 694 332 l 0 332 m 0 506 l 0 593 l 694 593 l 694 506 l 0 506 z "},"║":{"ha":694,"x_min":217,"x_max":478,"o":"m 390 -232 l 390 1157 l 478 1157 l 478 -232 l 390 -232 m 217 -232 l 217 1157 l 304 1157 l 304 -232 l 217 -232 z "},"╒":{"ha":694,"x_min":304,"x_max":694,"o":"m 304 -232 l 304 593 l 694 593 l 694 506 l 390 506 l 390 419 l 694 419 l 694 332 l 390 332 l 390 -232 l 304 -232 z "},"╓":{"ha":694,"x_min":217,"x_max":694,"o":"m 217 -232 l 217 506 l 694 506 l 694 419 l 478 419 l 478 -232 l 390 -232 l 390 419 l 304 419 l 304 -232 l 217 -232 z "},"╔":{"ha":694,"x_min":217,"x_max":694,"o":"m 390 -232 l 390 419 l 694 419 l 694 332 l 478 332 l 478 -232 l 390 -232 m 217 -232 l 217 593 l 694 593 l 694 506 l 304 506 l 304 -232 l 217 -232 z "},"╕":{"ha":694,"x_min":0,"x_max":390,"o":"m 0 506 l 0 593 l 390 593 l 390 -232 l 304 -232 l 304 332 l 0 332 l 0 419 l 304 419 l 304 506 l 0 506 z "},"╖":{"ha":694,"x_min":0,"x_max":478,"o":"m 0 419 l 0 506 l 478 506 l 478 -232 l 390 -232 l 390 419 l 304 419 l 304 -232 l 217 -232 l 217 419 l 0 419 z "},"╗":{"ha":694,"x_min":0,"x_max":478,"o":"m 0 332 l 0 419 l 304 419 l 304 -232 l 217 -232 l 217 332 l 0 332 m 0 506 l 0 593 l 478 593 l 478 -232 l 390 -232 l 390 506 l 0 506 z "},"╘":{"ha":694,"x_min":304,"x_max":694,"o":"m 304 332 l 304 1157 l 390 1157 l 390 593 l 694 593 l 694 506 l 390 506 l 390 419 l 694 419 l 694 332 l 304 332 z "},"╙":{"ha":694,"x_min":217,"x_max":694,"o":"m 217 419 l 217 1157 l 304 1157 l 304 506 l 390 506 l 390 1157 l 478 1157 l 478 506 l 694 506 l 694 419 l 217 419 z "},"╚":{"ha":694,"x_min":217,"x_max":694,"o":"m 390 506 l 390 1157 l 478 1157 l 478 593 l 694 593 l 694 506 l 390 506 m 217 332 l 217 1157 l 304 1157 l 304 419 l 694 419 l 694 332 l 217 332 z "},"╛":{"ha":694,"x_min":0,"x_max":390,"o":"m 304 593 l 304 1157 l 390 1157 l 390 332 l 0 332 l 0 419 l 304 419 l 304 506 l 0 506 l 0 593 l 304 593 z "},"╜":{"ha":694,"x_min":0,"x_max":478,"o":"m 217 506 l 217 1157 l 304 1157 l 304 506 l 390 506 l 390 1157 l 478 1157 l 478 419 l 0 419 l 0 506 l 217 506 z "},"╝":{"ha":694,"x_min":0,"x_max":478,"o":"m 390 419 l 390 1157 l 478 1157 l 478 332 l 0 332 l 0 419 l 390 419 m 217 593 l 217 1157 l 304 1157 l 304 506 l 0 506 l 0 593 l 217 593 z "},"╞":{"ha":694,"x_min":304,"x_max":694,"o":"m 304 -232 l 304 1157 l 390 1157 l 390 593 l 694 593 l 694 506 l 390 506 l 390 419 l 694 419 l 694 332 l 390 332 l 390 -232 l 304 -232 z "},"╟":{"ha":694,"x_min":217,"x_max":694,"o":"m 390 -232 l 390 1157 l 478 1157 l 478 506 l 694 506 l 694 419 l 478 419 l 478 -232 l 390 -232 m 217 -232 l 217 1157 l 304 1157 l 304 -232 l 217 -232 z "},"╠":{"ha":694,"x_min":217,"x_max":694,"o":"m 390 -232 l 390 419 l 694 419 l 694 332 l 478 332 l 478 -232 l 390 -232 m 390 506 l 390 1157 l 478 1157 l 478 593 l 694 593 l 694 506 l 390 506 m 217 -232 l 217 1157 l 304 1157 l 304 -232 l 217 -232 z "},"╡":{"ha":694,"x_min":0,"x_max":390,"o":"m 304 593 l 304 1157 l 390 1157 l 390 -232 l 304 -232 l 304 332 l 0 332 l 0 419 l 304 419 l 304 506 l 0 506 l 0 593 l 304 593 z "},"╢":{"ha":694,"x_min":0,"x_max":478,"o":"m 390 -232 l 390 1157 l 478 1157 l 478 -232 l 390 -232 m 217 506 l 217 1157 l 304 1157 l 304 -232 l 217 -232 l 217 419 l 0 419 l 0 506 l 217 506 z "},"╣":{"ha":694,"x_min":0,"x_max":478,"o":"m 0 332 l 0 419 l 304 419 l 304 -232 l 217 -232 l 217 332 l 0 332 m 390 -232 l 390 1157 l 478 1157 l 478 -232 l 390 -232 m 217 593 l 217 1157 l 304 1157 l 304 506 l 0 506 l 0 593 l 217 593 z "},"╤":{"ha":694,"x_min":0,"x_max":694,"o":"m 0 332 l 0 419 l 694 419 l 694 332 l 390 332 l 390 -232 l 304 -232 l 304 332 l 0 332 m 0 506 l 0 593 l 694 593 l 694 506 l 0 506 z "},"╥":{"ha":694,"x_min":0,"x_max":694,"o":"m 0 419 l 0 506 l 694 506 l 694 419 l 478 419 l 478 -232 l 390 -232 l 390 419 l 304 419 l 304 -232 l 217 -232 l 217 419 l 0 419 z "},"╦":{"ha":694,"x_min":0,"x_max":694,"o":"m 390 -232 l 390 419 l 694 419 l 694 332 l 478 332 l 478 -232 l 390 -232 m 0 332 l 0 419 l 304 419 l 304 -232 l 217 -232 l 217 332 l 0 332 m 0 506 l 0 593 l 694 593 l 694 506 l 0 506 z "},"╧":{"ha":694,"x_min":0,"x_max":694,"o":"m 0 332 l 0 419 l 694 419 l 694 332 l 0 332 m 304 593 l 304 1157 l 390 1157 l 390 593 l 694 593 l 694 506 l 0 506 l 0 593 l 304 593 z "},"╨":{"ha":694,"x_min":0,"x_max":694,"o":"m 217 506 l 217 1157 l 304 1157 l 304 506 l 390 506 l 390 1157 l 478 1157 l 478 506 l 694 506 l 694 419 l 0 419 l 0 506 l 217 506 z "},"╩":{"ha":694,"x_min":0,"x_max":694,"o":"m 0 332 l 0 419 l 694 419 l 694 332 l 0 332 m 390 506 l 390 1157 l 478 1157 l 478 593 l 694 593 l 694 506 l 390 506 m 217 593 l 217 1157 l 304 1157 l 304 506 l 0 506 l 0 593 l 217 593 z "},"╪":{"ha":694,"x_min":0,"x_max":694,"o":"m 304 593 l 304 1157 l 390 1157 l 390 593 l 694 593 l 694 506 l 390 506 l 390 419 l 694 419 l 694 332 l 390 332 l 390 -232 l 304 -232 l 304 332 l 0 332 l 0 419 l 304 419 l 304 506 l 0 506 l 0 593 l 304 593 z "},"╫":{"ha":694,"x_min":0,"x_max":694,"o":"m 217 506 l 217 1157 l 304 1157 l 304 506 l 390 506 l 390 1157 l 478 1157 l 478 506 l 694 506 l 694 419 l 478 419 l 478 -232 l 390 -232 l 390 419 l 304 419 l 304 -232 l 217 -232 l 217 419 l 0 419 l 0 506 l 217 506 z "},"╬":{"ha":694,"x_min":0,"x_max":694,"o":"m 390 -232 l 390 419 l 694 419 l 694 332 l 478 332 l 478 -232 l 390 -232 m 0 332 l 0 419 l 304 419 l 304 -232 l 217 -232 l 217 332 l 0 332 m 390 506 l 390 1157 l 478 1157 l 478 593 l 694 593 l 694 506 l 390 506 m 217 593 l 217 1157 l 304 1157 l 304 506 l 0 506 l 0 593 l 217 593 z "},"╭":{"ha":694,"x_min":304,"x_max":694,"o":"m 304 293 l 517 506 l 694 506 l 694 419 l 564 419 l 390 246 l 390 -232 l 304 -232 l 304 293 z "},"╮":{"ha":694,"x_min":0,"x_max":390,"o":"m 0 419 l 0 506 l 178 506 l 390 293 l 390 -232 l 304 -232 l 304 246 l 131 419 l 0 419 z "},"╯":{"ha":694,"x_min":0,"x_max":390,"o":"m 304 679 l 304 1157 l 390 1157 l 390 632 l 178 419 l 0 419 l 0 506 l 131 506 l 304 679 z "},"╰":{"ha":694,"x_min":304,"x_max":694,"o":"m 304 632 l 304 1157 l 390 1157 l 390 679 l 564 506 l 694 506 l 694 419 l 517 419 l 304 632 z "},"╱":{"ha":694,"x_min":-4,"x_max":699,"o":"m -4 -154 l 664 1179 l 699 1079 l 31 -254 l -4 -154 z "},"╲":{"ha":694,"x_min":0,"x_max":699,"o":"m 0 1069 l 0 1157 l 43 1157 l 699 -154 l 664 -254 l 0 1069 z "},"╳":{"ha":694,"x_min":-4,"x_max":699,"o":"m 0 1069 l 0 1161 l 69 1122 l 321 593 l 374 593 l 664 1179 l 699 1079 l 390 463 l 699 -154 l 664 -254 l 374 332 l 321 332 l 31 -254 l -4 -154 l 304 463 l 0 1069 z "},"╴":{"ha":694,"x_min":0,"x_max":390,"o":"m 0 419 l 0 506 l 390 506 l 390 419 l 0 419 z "},"╵":{"ha":694,"x_min":304,"x_max":390,"o":"m 304 419 l 304 1157 l 390 1157 l 390 419 l 304 419 z "},"╶":{"ha":694,"x_min":304,"x_max":694,"o":"m 304 419 l 304 506 l 694 506 l 694 419 l 304 419 z "},"╷":{"ha":694,"x_min":304,"x_max":390,"o":"m 304 -232 l 304 506 l 390 506 l 390 -232 l 304 -232 z "},"╸":{"ha":694,"x_min":0,"x_max":390,"o":"m 0 375 l 0 550 l 390 550 l 390 375 l 0 375 z "},"╹":{"ha":694,"x_min":261,"x_max":433,"o":"m 261 419 l 261 1157 l 433 1157 l 433 419 l 261 419 z "},"╺":{"ha":694,"x_min":304,"x_max":694,"o":"m 304 375 l 304 550 l 694 550 l 694 375 l 304 375 z "},"╻":{"ha":694,"x_min":261,"x_max":433,"o":"m 261 -232 l 261 506 l 433 506 l 433 -232 l 261 -232 z "},"╼":{"ha":694,"x_min":0,"x_max":694,"o":"m 0 501 l 325 536 l 694 550 l 694 375 l 456 375 l 0 432 l 0 501 z "},"╽":{"ha":694,"x_min":261,"x_max":433,"o":"m 261 181 l 317 1157 l 378 1157 l 433 181 l 433 -232 l 261 -232 l 261 181 z "},"╾":{"ha":694,"x_min":0,"x_max":707,"o":"m 0 363 l 0 563 l 672 501 l 707 463 l 672 424 l 0 363 z "},"╿":{"ha":694,"x_min":247,"x_max":447,"o":"m 313 -210 l 247 1157 l 447 1157 l 382 -210 l 347 -244 l 313 -210 z "},"▀":{"ha":694,"x_min":0,"x_max":694,"o":"m 0 463 l 0 1157 l 694 1157 l 694 463 l 0 463 z "},"▁":{"ha":694,"x_min":0,"x_max":694,"o":"m 0 -232 l 0 -58 l 694 -58 l 694 -232 l 0 -232 z "},"▂":{"ha":694,"x_min":0,"x_max":694,"o":"m 0 -232 l 0 115 l 694 115 l 694 -232 l 0 -232 z "},"▃":{"ha":694,"x_min":0,"x_max":694,"o":"m 0 -232 l 0 289 l 694 289 l 694 -232 l 0 -232 z "},"▄":{"ha":694,"x_min":0,"x_max":694,"o":"m 0 -232 l 0 463 l 694 463 l 694 -232 l 0 -232 z "},"▅":{"ha":694,"x_min":0,"x_max":694,"o":"m 0 -232 l 0 636 l 694 636 l 694 -232 l 0 -232 z "},"▆":{"ha":694,"x_min":0,"x_max":694,"o":"m 0 -232 l 0 810 l 694 810 l 694 -232 l 0 -232 z "},"▇":{"ha":694,"x_min":0,"x_max":694,"o":"m 0 -232 l 0 983 l 694 983 l 694 -232 l 0 -232 z "},"█":{"ha":694,"x_min":0,"x_max":694,"o":"m 0 -232 l 0 1157 l 694 1157 l 694 -232 l 0 -232 z "},"▉":{"ha":694,"x_min":0,"x_max":608,"o":"m 0 -232 l 0 1157 l 608 1157 l 608 -232 l 0 -232 z "},"▊":{"ha":694,"x_min":0,"x_max":521,"o":"m 0 -232 l 0 1157 l 521 1157 l 521 -232 l 0 -232 z "},"▋":{"ha":694,"x_min":0,"x_max":433,"o":"m 0 -232 l 0 1157 l 433 1157 l 433 -232 l 0 -232 z "},"▌":{"ha":694,"x_min":0,"x_max":347,"o":"m 0 -232 l 0 1157 l 347 1157 l 347 -232 l 0 -232 z "},"▍":{"ha":694,"x_min":0,"x_max":261,"o":"m 0 -232 l 0 1157 l 261 1157 l 261 -232 l 0 -232 z "},"▎":{"ha":694,"x_min":0,"x_max":174,"o":"m 0 -232 l 0 1157 l 174 1157 l 174 -232 l 0 -232 z "},"▏":{"ha":694,"x_min":0,"x_max":86,"o":"m 0 -232 l 0 1157 l 86 1157 l 86 -232 l 0 -232 z "},"▐":{"ha":694,"x_min":347,"x_max":694,"o":"m 347 -232 l 347 1157 l 694 1157 l 694 -232 l 347 -232 z "},"░":{"ha":694,"x_min":0,"x_max":0,"o":""},"▒":{"ha":694,"x_min":22,"x_max":672,"o":"m 282 58 l 278 888 l 413 867 l 417 38 l 282 58 m 374 853 l 347 853 l 339 832 l 321 76 l 369 119 l 374 853 m 196 -32 l 196 967 l 499 957 l 499 -42 l 196 -32 m 456 11 l 456 922 l 261 922 l 251 918 l 239 -1 l 456 11 m 108 -124 l 108 1053 l 586 1049 l 586 -128 l 108 -124 m 543 -75 l 543 1010 l 174 1010 l 165 1006 l 151 -85 l 543 -75 m 22 -210 l 22 1139 l 672 1135 l 672 -214 l 22 -210 m 629 -167 l 629 1092 l 78 1092 l 65 -171 l 629 -167 z "},"▓":{"ha":694,"x_min":0,"x_max":672,"o":"m 0 -214 l 0 1157 l 672 1157 l 672 -210 l 0 -214 z "},"▖":{"ha":694,"x_min":0,"x_max":347,"o":"m 0 -232 l 0 463 l 347 463 l 347 -232 l 0 -232 z "},"▗":{"ha":694,"x_min":347,"x_max":694,"o":"m 347 -232 l 347 463 l 694 463 l 694 -232 l 347 -232 z "},"▘":{"ha":694,"x_min":0,"x_max":347,"o":"m 0 463 l 0 1157 l 347 1157 l 347 463 l 0 463 z "},"▙":{"ha":694,"x_min":0,"x_max":694,"o":"m 0 -232 l 0 1157 l 347 1157 l 347 463 l 694 463 l 694 -232 l 0 -232 z "},"▚":{"ha":694,"x_min":0,"x_max":694,"o":"m 0 463 l 0 1157 l 347 1157 l 347 463 l 694 463 l 694 -232 l 347 -232 l 347 463 l 0 463 z "},"▛":{"ha":694,"x_min":0,"x_max":694,"o":"m 0 -232 l 0 1157 l 694 1157 l 694 463 l 347 463 l 347 -232 l 0 -232 z "},"▜":{"ha":694,"x_min":0,"x_max":694,"o":"m 0 463 l 0 1157 l 694 1157 l 694 -232 l 347 -232 l 347 463 l 0 463 z "},"▝":{"ha":694,"x_min":347,"x_max":694,"o":"m 347 463 l 347 1157 l 694 1157 l 694 463 l 347 463 z "},"▞":{"ha":694,"x_min":0,"x_max":694,"o":"m 347 463 l 347 1157 l 694 1157 l 694 463 l 347 463 l 347 -232 l 0 -232 l 0 463 l 347 463 z "},"▟":{"ha":694,"x_min":0,"x_max":694,"o":"m 347 463 l 347 1157 l 694 1157 l 694 -232 l 0 -232 l 0 463 l 347 463 z "},"■":{"ha":694,"x_min":131,"x_max":521,"o":"m 131 203 l 131 722 l 521 722 l 521 203 l 131 203 z "},"▬":{"ha":694,"x_min":43,"x_max":608,"o":"m 43 28 l 43 375 l 608 375 l 608 28 l 43 28 z "},"▮":{"ha":694,"x_min":86,"x_max":608,"o":"m 86 28 l 86 897 l 608 897 l 608 28 l 86 28 z "},"▲":{"ha":694,"x_min":0,"x_max":651,"o":"m 0 158 l 325 810 l 647 181 l 651 115 l 0 115 l 0 158 z "},"▶":{"ha":694,"x_min":0,"x_max":694,"o":"m 0 158 l 0 810 l 43 810 l 694 485 l 65 163 l 0 158 z "},"▼":{"ha":694,"x_min":0,"x_max":651,"o":"m 4 744 l 0 810 l 651 810 l 651 767 l 325 115 l 4 744 z "},"◀":{"ha":694,"x_min":0,"x_max":694,"o":"m 0 485 l 629 806 l 694 810 l 694 158 l 651 158 l 0 485 z "},"◆":{"ha":694,"x_min":26,"x_max":668,"o":"m 26 463 l 321 767 l 374 767 l 668 463 l 347 138 l 26 463 z "},"◊":{"ha":694,"x_min":26,"x_max":668,"o":"m 26 463 l 321 767 l 374 767 l 668 463 l 347 138 l 26 463 m 539 458 l 378 636 l 317 636 l 156 458 l 347 272 l 539 458 z "},"○":{"ha":694,"x_min":208,"x_max":456,"o":"m 208 463 l 261 597 l 456 571 l 456 354 l 261 328 l 208 463 m 390 419 l 390 506 l 304 506 l 304 419 l 390 419 z "},"●":{"ha":694,"x_min":208,"x_max":456,"o":"m 208 463 l 261 597 l 456 571 l 456 354 l 261 328 l 208 463 z "},"◘":{"ha":694,"x_min":0,"x_max":694,"o":"m 0 -232 l 0 1157 l 694 1157 l 694 -232 l 0 -232 m 456 354 l 456 571 l 261 597 l 208 463 l 261 328 l 456 354 z "},"◙":{"ha":694,"x_min":0,"x_max":694,"o":"m 304 419 l 304 506 l 390 506 l 390 419 l 304 419 m 0 -232 l 0 1157 l 694 1157 l 694 -232 l 0 -232 m 456 354 l 456 571 l 261 597 l 208 463 l 261 328 l 456 354 z "},"☺":{"ha":694,"x_min":43,"x_max":651,"o":"m 221 289 l 169 375 l 525 375 l 474 289 l 221 289 m 390 550 l 390 636 l 521 636 l 521 550 l 390 550 m 174 550 l 174 636 l 304 636 l 304 550 l 174 550 m 43 792 l 147 897 l 547 897 l 651 792 l 651 133 l 547 28 l 147 28 l 43 133 l 43 792 m 543 138 l 543 788 l 174 814 l 126 693 l 151 138 l 543 138 z "},"☻":{"ha":694,"x_min":43,"x_max":651,"o":"m 43 792 l 147 897 l 547 897 l 651 792 l 651 133 l 547 28 l 147 28 l 43 133 l 43 792 m 304 550 l 304 636 l 174 636 l 174 550 l 304 550 m 521 550 l 521 636 l 390 636 l 390 550 l 521 550 m 425 246 l 529 375 l 165 375 l 269 246 l 425 246 z "},"☼":{"ha":694,"x_min":74,"x_max":621,"o":"m 304 579 l 304 853 l 390 853 l 390 579 l 564 736 l 621 679 l 464 506 l 608 506 l 608 419 l 464 419 l 621 246 l 564 189 l 390 346 l 390 72 l 304 72 l 304 346 l 131 189 l 74 246 l 231 419 l 86 419 l 86 506 l 231 506 l 74 679 l 131 736 l 304 579 m 390 419 l 390 506 l 304 506 l 304 419 l 390 419 z "},"♀":{"ha":694,"x_min":82,"x_max":613,"o":"m 82 771 l 182 897 l 513 897 l 613 771 l 586 485 l 390 397 l 390 289 l 608 289 l 608 203 l 390 203 l 390 28 l 304 28 l 304 203 l 86 203 l 86 289 l 304 289 l 304 397 l 108 485 l 82 771 m 499 528 l 499 788 l 217 814 l 165 683 l 196 528 l 499 528 z "},"♂":{"ha":694,"x_min":39,"x_max":651,"o":"m 304 810 l 304 897 l 651 897 l 651 550 l 564 550 l 564 736 l 390 579 l 564 458 l 564 133 l 460 28 l 139 28 l 39 154 l 65 485 l 286 589 l 490 810 l 304 810 m 456 138 l 456 440 l 174 467 l 122 336 l 151 138 l 456 138 z "},"♠":{"ha":694,"x_min":39,"x_max":656,"o":"m 39 536 l 325 892 l 369 892 l 656 536 l 629 319 l 474 224 l 390 354 l 390 115 l 478 115 l 478 28 l 217 28 l 217 115 l 304 115 l 304 354 l 221 224 l 65 319 l 39 536 z "},"♣":{"ha":694,"x_min":22,"x_max":672,"o":"m 217 840 l 278 901 l 456 875 l 486 671 l 390 575 l 390 519 l 572 528 l 672 375 l 572 224 l 390 232 l 390 115 l 478 115 l 478 28 l 217 28 l 217 115 l 304 115 l 304 232 l 122 224 l 22 375 l 122 528 l 304 519 l 304 589 l 217 640 l 217 840 z "},"♥":{"ha":694,"x_min":0,"x_max":694,"o":"m 651 728 q 694 607 694 674 q 656 453 694 531 q 347 144 607 357 q 39 453 88 347 q 0 607 0 529 q 44 728 0 675 q 174 781 88 781 q 299 724 251 781 q 347 665 347 675 q 396 724 347 675 q 521 781 443 781 q 651 728 607 781 z "},"♦":{"ha":694,"x_min":26,"x_max":668,"o":"m 26 463 l 321 767 l 374 767 l 668 463 l 347 138 l 26 463 z "},"♪":{"ha":694,"x_min":22,"x_max":608,"o":"m 131 124 l 131 897 l 608 897 l 608 550 l 217 550 l 217 68 l 82 19 l 22 85 l 131 124 m 521 636 l 521 810 l 217 810 l 217 636 l 521 636 z "},"♫":{"ha":694,"x_min":-22,"x_max":651,"o":"m 86 124 l 86 897 l 651 897 l 651 111 l 517 64 l 456 128 l 564 167 l 564 550 l 174 550 l 174 68 l 39 19 l -22 85 l 86 124 m 564 636 l 564 810 l 174 810 l 174 636 l 564 636 z "},"⚡":{"ha":694,"x_min":0,"x_max":694,"o":"m 694 532 l 69 -93 l 278 393 l 0 393 l 625 1018 l 417 532 l 694 532 z "},"✓":{"ha":694,"x_min":0,"x_max":694,"o":"m 286 203 l 625 897 l 694 897 l 694 853 l 282 28 l 235 28 l 0 506 l 0 550 l 74 550 l 231 203 l 286 203 z "},"✔":{"ha":694,"x_min":0,"x_max":694,"o":"m 239 197 l 582 897 l 694 897 l 694 853 l 282 28 l 192 28 l 0 424 l 0 550 l 69 550 l 239 197 z "},"✗":{"ha":694,"x_min":69,"x_max":608,"o":"m 343 579 l 494 897 l 564 897 l 564 849 l 394 519 l 608 319 l 564 276 l 364 463 l 161 28 l 86 28 l 86 76 l 313 514 l 69 767 l 147 767 l 343 579 z "},"✘":{"ha":694,"x_min":26,"x_max":621,"o":"m 335 632 l 443 897 l 564 897 l 564 857 l 417 550 l 621 332 l 564 276 l 364 463 l 161 28 l 43 28 l 43 72 l 278 550 l 26 810 l 147 810 l 335 632 z "},"⠀":{"ha":694,"x_min":0,"x_max":0,"o":""},"⠁":{"ha":694,"x_min":131,"x_max":217,"o":"m 131 897 l 131 1069 l 217 1069 l 217 897 l 131 897 z "},"⠂":{"ha":694,"x_min":131,"x_max":217,"o":"m 131 550 l 131 722 l 217 722 l 217 550 l 131 550 z "},"⠃":{"ha":694,"x_min":131,"x_max":217,"o":"m 131 550 l 131 722 l 217 722 l 217 550 l 131 550 m 131 897 l 131 1069 l 217 1069 l 217 897 l 131 897 z "},"⠄":{"ha":694,"x_min":131,"x_max":217,"o":"m 131 203 l 131 375 l 217 375 l 217 203 l 131 203 z "},"⠅":{"ha":694,"x_min":131,"x_max":217,"o":"m 131 203 l 131 375 l 217 375 l 217 203 l 131 203 m 131 897 l 131 1069 l 217 1069 l 217 897 l 131 897 z "},"⠆":{"ha":694,"x_min":131,"x_max":217,"o":"m 131 203 l 131 375 l 217 375 l 217 203 l 131 203 m 131 550 l 131 722 l 217 722 l 217 550 l 131 550 z "},"⠇":{"ha":694,"x_min":131,"x_max":217,"o":"m 131 203 l 131 375 l 217 375 l 217 203 l 131 203 m 131 550 l 131 722 l 217 722 l 217 550 l 131 550 m 131 897 l 131 1069 l 217 1069 l 217 897 l 131 897 z "},"⠈":{"ha":694,"x_min":478,"x_max":564,"o":"m 478 897 l 478 1069 l 564 1069 l 564 897 l 478 897 z "},"⠉":{"ha":694,"x_min":131,"x_max":564,"o":"m 478 897 l 478 1069 l 564 1069 l 564 897 l 478 897 m 131 897 l 131 1069 l 217 1069 l 217 897 l 131 897 z "},"⠊":{"ha":694,"x_min":131,"x_max":564,"o":"m 131 550 l 131 722 l 217 722 l 217 550 l 131 550 m 478 897 l 478 1069 l 564 1069 l 564 897 l 478 897 z "},"⠋":{"ha":694,"x_min":131,"x_max":564,"o":"m 131 550 l 131 722 l 217 722 l 217 550 l 131 550 m 478 897 l 478 1069 l 564 1069 l 564 897 l 478 897 m 131 897 l 131 1069 l 217 1069 l 217 897 l 131 897 z "},"⠌":{"ha":694,"x_min":131,"x_max":564,"o":"m 131 203 l 131 375 l 217 375 l 217 203 l 131 203 m 478 897 l 478 1069 l 564 1069 l 564 897 l 478 897 z "},"⠍":{"ha":694,"x_min":131,"x_max":564,"o":"m 131 203 l 131 375 l 217 375 l 217 203 l 131 203 m 478 897 l 478 1069 l 564 1069 l 564 897 l 478 897 m 131 897 l 131 1069 l 217 1069 l 217 897 l 131 897 z "},"⠎":{"ha":694,"x_min":131,"x_max":564,"o":"m 131 203 l 131 375 l 217 375 l 217 203 l 131 203 m 131 550 l 131 722 l 217 722 l 217 550 l 131 550 m 478 897 l 478 1069 l 564 1069 l 564 897 l 478 897 z "},"⠏":{"ha":694,"x_min":131,"x_max":564,"o":"m 131 203 l 131 375 l 217 375 l 217 203 l 131 203 m 131 550 l 131 722 l 217 722 l 217 550 l 131 550 m 478 897 l 478 1069 l 564 1069 l 564 897 l 478 897 m 131 897 l 131 1069 l 217 1069 l 217 897 l 131 897 z "},"⠐":{"ha":694,"x_min":478,"x_max":564,"o":"m 478 550 l 478 722 l 564 722 l 564 550 l 478 550 z "},"⠑":{"ha":694,"x_min":131,"x_max":564,"o":"m 478 550 l 478 722 l 564 722 l 564 550 l 478 550 m 131 897 l 131 1069 l 217 1069 l 217 897 l 131 897 z "},"⠒":{"ha":694,"x_min":131,"x_max":564,"o":"m 478 550 l 478 722 l 564 722 l 564 550 l 478 550 m 131 550 l 131 722 l 217 722 l 217 550 l 131 550 z "},"⠓":{"ha":694,"x_min":131,"x_max":564,"o":"m 478 550 l 478 722 l 564 722 l 564 550 l 478 550 m 131 550 l 131 722 l 217 722 l 217 550 l 131 550 m 131 897 l 131 1069 l 217 1069 l 217 897 l 131 897 z "},"⠔":{"ha":694,"x_min":131,"x_max":564,"o":"m 131 203 l 131 375 l 217 375 l 217 203 l 131 203 m 478 550 l 478 722 l 564 722 l 564 550 l 478 550 z "},"⠕":{"ha":694,"x_min":131,"x_max":564,"o":"m 131 203 l 131 375 l 217 375 l 217 203 l 131 203 m 478 550 l 478 722 l 564 722 l 564 550 l 478 550 m 131 897 l 131 1069 l 217 1069 l 217 897 l 131 897 z "},"⠖":{"ha":694,"x_min":131,"x_max":564,"o":"m 131 203 l 131 375 l 217 375 l 217 203 l 131 203 m 478 550 l 478 722 l 564 722 l 564 550 l 478 550 m 131 550 l 131 722 l 217 722 l 217 550 l 131 550 z "},"⠗":{"ha":694,"x_min":131,"x_max":564,"o":"m 131 203 l 131 375 l 217 375 l 217 203 l 131 203 m 478 550 l 478 722 l 564 722 l 564 550 l 478 550 m 131 550 l 131 722 l 217 722 l 217 550 l 131 550 m 131 897 l 131 1069 l 217 1069 l 217 897 l 131 897 z "},"⠘":{"ha":694,"x_min":478,"x_max":564,"o":"m 478 550 l 478 722 l 564 722 l 564 550 l 478 550 m 478 897 l 478 1069 l 564 1069 l 564 897 l 478 897 z "},"⠙":{"ha":694,"x_min":131,"x_max":564,"o":"m 478 550 l 478 722 l 564 722 l 564 550 l 478 550 m 478 897 l 478 1069 l 564 1069 l 564 897 l 478 897 m 131 897 l 131 1069 l 217 1069 l 217 897 l 131 897 z "},"⠚":{"ha":694,"x_min":131,"x_max":564,"o":"m 478 550 l 478 722 l 564 722 l 564 550 l 478 550 m 131 550 l 131 722 l 217 722 l 217 550 l 131 550 m 478 897 l 478 1069 l 564 1069 l 564 897 l 478 897 z "},"⠛":{"ha":694,"x_min":131,"x_max":564,"o":"m 478 550 l 478 722 l 564 722 l 564 550 l 478 550 m 131 550 l 131 722 l 217 722 l 217 550 l 131 550 m 478 897 l 478 1069 l 564 1069 l 564 897 l 478 897 m 131 897 l 131 1069 l 217 1069 l 217 897 l 131 897 z "},"⠜":{"ha":694,"x_min":131,"x_max":564,"o":"m 131 203 l 131 375 l 217 375 l 217 203 l 131 203 m 478 550 l 478 722 l 564 722 l 564 550 l 478 550 m 478 897 l 478 1069 l 564 1069 l 564 897 l 478 897 z "},"⠝":{"ha":694,"x_min":131,"x_max":564,"o":"m 131 203 l 131 375 l 217 375 l 217 203 l 131 203 m 478 550 l 478 722 l 564 722 l 564 550 l 478 550 m 478 897 l 478 1069 l 564 1069 l 564 897 l 478 897 m 131 897 l 131 1069 l 217 1069 l 217 897 l 131 897 z "},"⠞":{"ha":694,"x_min":131,"x_max":564,"o":"m 131 203 l 131 375 l 217 375 l 217 203 l 131 203 m 478 550 l 478 722 l 564 722 l 564 550 l 478 550 m 131 550 l 131 722 l 217 722 l 217 550 l 131 550 m 478 897 l 478 1069 l 564 1069 l 564 897 l 478 897 z "},"⠟":{"ha":694,"x_min":131,"x_max":564,"o":"m 131 203 l 131 375 l 217 375 l 217 203 l 131 203 m 478 550 l 478 722 l 564 722 l 564 550 l 478 550 m 131 550 l 131 722 l 217 722 l 217 550 l 131 550 m 478 897 l 478 1069 l 564 1069 l 564 897 l 478 897 m 131 897 l 131 1069 l 217 1069 l 217 897 l 131 897 z "},"⠠":{"ha":694,"x_min":478,"x_max":564,"o":"m 478 203 l 478 375 l 564 375 l 564 203 l 478 203 z "},"⠡":{"ha":694,"x_min":131,"x_max":564,"o":"m 478 203 l 478 375 l 564 375 l 564 203 l 478 203 m 131 897 l 131 1069 l 217 1069 l 217 897 l 131 897 z "},"⠢":{"ha":694,"x_min":131,"x_max":564,"o":"m 478 203 l 478 375 l 564 375 l 564 203 l 478 203 m 131 550 l 131 722 l 217 722 l 217 550 l 131 550 z "},"⠣":{"ha":694,"x_min":131,"x_max":564,"o":"m 478 203 l 478 375 l 564 375 l 564 203 l 478 203 m 131 550 l 131 722 l 217 722 l 217 550 l 131 550 m 131 897 l 131 1069 l 217 1069 l 217 897 l 131 897 z "}}}
